<svg width="327" height="60" viewBox="0 0 327 60" fill="none" xmlns="http://www.w3.org/2000/svg">
<rect x="0.5" y="0.5" width="326" height="59" rx="11.5" fill="#1F4E3C" fill-opacity="0.05"/>
<rect x="0.5" y="0.5" width="326" height="59" rx="11.5" stroke="#1F4E3C" stroke-dasharray="4 4"/>
<rect x="14" y="12" width="36" height="36" rx="18" fill="#1F4E3C"/>
<path d="M37.2811 30.7731H32.8994V35.2166H31.1509V30.7731H26.7897V29.1891H31.1509V24.7251H32.8994V29.1891H37.2811V30.7731Z" fill="white"/>
<path d="M64.712 24.3H66.656L70.728 35.5H68.968L68.192 33.372H63.176L62.408 35.5H60.64L64.712 24.3ZM63.792 31.708H67.576L65.68 26.508L63.792 31.708ZM77.4289 23.5H79.0929V35.5H77.4289V34.324C77.1675 34.74 76.8262 35.076 76.4049 35.332C75.9835 35.5827 75.4902 35.708 74.9249 35.708C74.3435 35.708 73.7995 35.5987 73.2929 35.38C72.7862 35.1613 72.3382 34.86 71.9489 34.476C71.5649 34.0867 71.2635 33.6387 71.0449 33.132C70.8262 32.6253 70.7169 32.0813 70.7169 31.5C70.7169 30.9187 70.8262 30.3747 71.0449 29.868C71.2635 29.356 71.5649 28.908 71.9489 28.524C72.3382 28.1347 72.7862 27.8307 73.2929 27.612C73.7995 27.3933 74.3435 27.284 74.9249 27.284C75.4902 27.284 75.9835 27.412 76.4049 27.668C76.8262 27.9187 77.1675 28.2493 77.4289 28.66V23.5ZM74.9409 34.1C75.4102 34.1 75.8209 33.9853 76.1729 33.756C76.5249 33.5213 76.7969 33.2067 76.9889 32.812C77.1862 32.4173 77.2849 31.98 77.2849 31.5C77.2849 31.0147 77.1862 30.5747 76.9889 30.18C76.7915 29.7853 76.5169 29.4733 76.1649 29.244C75.8182 29.0093 75.4102 28.892 74.9409 28.892C74.4769 28.892 74.0529 29.0093 73.6689 29.244C73.2902 29.4787 72.9862 29.7933 72.7569 30.188C72.5329 30.5827 72.4209 31.02 72.4209 31.5C72.4209 31.9853 72.5355 32.4253 72.7649 32.82C72.9995 33.2093 73.3062 33.5213 73.6849 33.756C74.0689 33.9853 74.4875 34.1 74.9409 34.1ZM86.7907 23.5H88.4547V35.5H86.7907V34.324C86.5294 34.74 86.1881 35.076 85.7667 35.332C85.3454 35.5827 84.8521 35.708 84.2867 35.708C83.7054 35.708 83.1614 35.5987 82.6547 35.38C82.1481 35.1613 81.7001 34.86 81.3107 34.476C80.9267 34.0867 80.6254 33.6387 80.4067 33.132C80.1881 32.6253 80.0787 32.0813 80.0787 31.5C80.0787 30.9187 80.1881 30.3747 80.4067 29.868C80.6254 29.356 80.9267 28.908 81.3107 28.524C81.7001 28.1347 82.1481 27.8307 82.6547 27.612C83.1614 27.3933 83.7054 27.284 84.2867 27.284C84.8521 27.284 85.3454 27.412 85.7667 27.668C86.1881 27.9187 86.5294 28.2493 86.7907 28.66V23.5ZM84.3027 34.1C84.7721 34.1 85.1827 33.9853 85.5347 33.756C85.8867 33.5213 86.1587 33.2067 86.3507 32.812C86.5481 32.4173 86.6467 31.98 86.6467 31.5C86.6467 31.0147 86.5481 30.5747 86.3507 30.18C86.1534 29.7853 85.8787 29.4733 85.5267 29.244C85.1801 29.0093 84.7721 28.892 84.3027 28.892C83.8387 28.892 83.4147 29.0093 83.0307 29.244C82.6521 29.4787 82.3481 29.7933 82.1187 30.188C81.8947 30.5827 81.7827 31.02 81.7827 31.5C81.7827 31.9853 81.8974 32.4253 82.1267 32.82C82.3614 33.2093 82.6681 33.5213 83.0467 33.756C83.4307 33.9853 83.8494 34.1 84.3027 34.1ZM93.5325 35.5V24.3H97.2365C98.0098 24.3 98.7352 24.4467 99.4125 24.74C100.09 25.028 100.684 25.4307 101.196 25.948C101.708 26.46 102.108 27.0547 102.396 27.732C102.69 28.404 102.836 29.1267 102.836 29.9C102.836 30.6733 102.69 31.3987 102.396 32.076C102.108 32.748 101.708 33.3427 101.196 33.86C100.684 34.372 100.09 34.7747 99.4125 35.068C98.7352 35.356 98.0098 35.5 97.2365 35.5H93.5325ZM95.1965 33.836H97.2365C97.7805 33.836 98.2872 33.7347 98.7565 33.532C99.2312 33.3293 99.6498 33.0467 100.012 32.684C100.38 32.3213 100.666 31.9027 100.868 31.428C101.071 30.9533 101.172 30.444 101.172 29.9C101.172 29.356 101.071 28.8467 100.868 28.372C100.666 27.8973 100.38 27.4787 100.012 27.116C99.6498 26.7533 99.2312 26.4707 98.7565 26.268C98.2872 26.0653 97.7805 25.964 97.2365 25.964H95.1965V33.836ZM107.258 35.708C106.522 35.708 105.85 35.5187 105.242 35.14C104.639 34.7613 104.157 34.2547 103.794 33.62C103.437 32.98 103.258 32.2733 103.258 31.5C103.258 30.9133 103.362 30.3667 103.57 29.86C103.778 29.348 104.063 28.9 104.426 28.516C104.794 28.1267 105.221 27.8227 105.706 27.604C106.191 27.3853 106.709 27.276 107.258 27.276C107.994 27.276 108.663 27.4653 109.266 27.844C109.874 28.2227 110.357 28.732 110.714 29.372C111.077 30.012 111.258 30.7213 111.258 31.5C111.258 32.0813 111.154 32.6253 110.946 33.132C110.738 33.6387 110.45 34.0867 110.082 34.476C109.719 34.86 109.295 35.1613 108.81 35.38C108.33 35.5987 107.813 35.708 107.258 35.708ZM107.258 34.044C107.701 34.044 108.098 33.9267 108.45 33.692C108.802 33.4573 109.079 33.148 109.282 32.764C109.49 32.3747 109.594 31.9533 109.594 31.5C109.594 31.036 109.487 30.6093 109.274 30.22C109.066 29.8307 108.786 29.5213 108.434 29.292C108.082 29.0573 107.69 28.94 107.258 28.94C106.821 28.94 106.423 29.0573 106.066 29.292C105.714 29.5267 105.434 29.8387 105.226 30.228C105.023 30.6173 104.922 31.0413 104.922 31.5C104.922 31.9747 105.029 32.404 105.242 32.788C105.455 33.172 105.738 33.4787 106.09 33.708C106.447 33.932 106.837 34.044 107.258 34.044ZM117.418 33.228L118.906 34.036C118.543 34.5427 118.082 34.948 117.522 35.252C116.967 35.556 116.364 35.708 115.714 35.708C114.978 35.708 114.306 35.5187 113.698 35.14C113.095 34.7613 112.612 34.2547 112.25 33.62C111.892 32.98 111.714 32.2733 111.714 31.5C111.714 30.9133 111.818 30.3667 112.026 29.86C112.234 29.348 112.519 28.9 112.882 28.516C113.25 28.1267 113.676 27.8227 114.162 27.604C114.647 27.3853 115.164 27.276 115.714 27.276C116.364 27.276 116.967 27.428 117.522 27.732C118.082 28.036 118.543 28.444 118.906 28.956L117.418 29.764C117.194 29.4973 116.932 29.2947 116.634 29.156C116.335 29.012 116.028 28.94 115.714 28.94C115.276 28.94 114.879 29.06 114.522 29.3C114.17 29.5347 113.89 29.8467 113.682 30.236C113.479 30.62 113.378 31.0413 113.378 31.5C113.378 31.9533 113.482 32.3747 113.69 32.764C113.898 33.148 114.178 33.4573 114.53 33.692C114.887 33.9267 115.282 34.044 115.714 34.044C116.044 34.044 116.359 33.9693 116.658 33.82C116.956 33.6707 117.21 33.4733 117.418 33.228ZM119.548 32.5V27.5H121.212V32.092C121.212 32.4493 121.3 32.7747 121.476 33.068C121.652 33.3613 121.887 33.596 122.18 33.772C122.473 33.9427 122.796 34.028 123.148 34.028C123.505 34.028 123.828 33.9427 124.116 33.772C124.409 33.596 124.641 33.3613 124.812 33.068C124.988 32.7747 125.076 32.4493 125.076 32.092V27.5H126.74L126.748 35.5H125.084L125.076 34.636C124.804 34.9667 124.465 35.228 124.06 35.42C123.655 35.612 123.22 35.708 122.756 35.708C122.164 35.708 121.625 35.564 121.14 35.276C120.655 34.988 120.268 34.6013 119.98 34.116C119.692 33.6307 119.548 33.092 119.548 32.5ZM128.011 35.5V27.5H129.675V28.348C129.953 28.0173 130.291 27.756 130.691 27.564C131.097 27.372 131.534 27.276 132.003 27.276C132.574 27.276 133.099 27.4147 133.579 27.692C134.059 27.964 134.441 28.3267 134.723 28.78C135.006 28.3267 135.382 27.964 135.851 27.692C136.326 27.4147 136.849 27.276 137.419 27.276C138.011 27.276 138.55 27.42 139.035 27.708C139.521 27.996 139.907 28.3827 140.195 28.868C140.483 29.3533 140.627 29.892 140.627 30.484V35.5H138.963V30.908C138.963 30.556 138.878 30.2333 138.707 29.94C138.537 29.6467 138.307 29.4093 138.019 29.228C137.731 29.0467 137.411 28.956 137.059 28.956C136.707 28.956 136.387 29.0413 136.099 29.212C135.811 29.3827 135.582 29.6147 135.411 29.908C135.241 30.2013 135.155 30.5347 135.155 30.908V35.5H133.491V30.908C133.491 30.5347 133.406 30.2013 133.235 29.908C133.065 29.6147 132.833 29.3827 132.539 29.212C132.251 29.0413 131.931 28.956 131.579 28.956C131.233 28.956 130.913 29.0467 130.619 29.228C130.331 29.4093 130.102 29.6467 129.931 29.94C129.761 30.2333 129.675 30.556 129.675 30.908V35.5H128.011ZM145.252 35.708C144.516 35.708 143.844 35.5187 143.236 35.14C142.634 34.7613 142.151 34.2547 141.788 33.62C141.431 32.98 141.252 32.2733 141.252 31.5C141.252 30.9133 141.356 30.3667 141.564 29.86C141.772 29.348 142.058 28.9 142.42 28.516C142.788 28.1267 143.215 27.8227 143.7 27.604C144.186 27.3853 144.703 27.276 145.252 27.276C145.866 27.276 146.428 27.404 146.94 27.66C147.452 27.9107 147.89 28.26 148.252 28.708C148.615 29.1507 148.882 29.6627 149.052 30.244C149.223 30.82 149.274 31.4333 149.204 32.084H143.036C143.106 32.452 143.239 32.7853 143.436 33.084C143.639 33.3773 143.895 33.6093 144.204 33.78C144.519 33.9507 144.868 34.0387 145.252 34.044C145.658 34.044 146.026 33.9427 146.356 33.74C146.692 33.5373 146.967 33.2573 147.18 32.9L148.868 33.292C148.548 34.0013 148.066 34.5827 147.42 35.036C146.775 35.484 146.052 35.708 145.252 35.708ZM142.98 30.812H147.524C147.471 30.428 147.335 30.0813 147.116 29.772C146.903 29.4573 146.634 29.2093 146.308 29.028C145.988 28.8413 145.636 28.748 145.252 28.748C144.874 28.748 144.522 28.8387 144.196 29.02C143.876 29.2013 143.61 29.4493 143.396 29.764C143.188 30.0733 143.05 30.4227 142.98 30.812ZM157.388 30.484V35.5H155.724V30.892C155.724 30.5347 155.636 30.2093 155.46 29.916C155.289 29.6227 155.057 29.3907 154.764 29.22C154.476 29.044 154.151 28.956 153.788 28.956C153.436 28.956 153.113 29.044 152.82 29.22C152.527 29.3907 152.292 29.6227 152.116 29.916C151.94 30.2093 151.852 30.5347 151.852 30.892V35.5H150.188V27.5H151.852V28.348C152.129 28.0173 152.471 27.756 152.876 27.564C153.281 27.372 153.719 27.276 154.188 27.276C154.78 27.276 155.319 27.42 155.804 27.708C156.289 27.996 156.673 28.3827 156.956 28.868C157.244 29.3533 157.388 29.892 157.388 30.484ZM162.868 29.164H161.188L161.18 35.5H159.516L159.524 29.164H158.252V27.5H159.524L159.516 24.988H161.18L161.188 27.5H162.868V29.164ZM166.249 35.652C165.828 35.6253 165.417 35.54 165.017 35.396C164.617 35.252 164.265 35.0573 163.961 34.812C163.663 34.5613 163.439 34.268 163.289 33.932L164.705 33.324C164.775 33.468 164.895 33.6093 165.065 33.748C165.241 33.8867 165.447 34.0013 165.681 34.092C165.916 34.1773 166.161 34.22 166.417 34.22C166.668 34.22 166.9 34.1853 167.113 34.116C167.332 34.0413 167.511 33.9293 167.649 33.78C167.788 33.6307 167.857 33.452 167.857 33.244C167.857 33.0093 167.777 32.828 167.617 32.7C167.463 32.5667 167.268 32.4653 167.033 32.396C166.799 32.3267 166.564 32.26 166.329 32.196C165.807 32.0787 165.327 31.9187 164.889 31.716C164.457 31.508 164.113 31.244 163.857 30.924C163.601 30.5987 163.473 30.2013 163.473 29.732C163.473 29.22 163.612 28.7773 163.889 28.404C164.167 28.0253 164.529 27.7347 164.977 27.532C165.431 27.3293 165.913 27.228 166.425 27.228C167.065 27.228 167.652 27.364 168.185 27.636C168.719 27.908 169.127 28.2813 169.409 28.756L168.089 29.54C168.009 29.38 167.889 29.236 167.729 29.108C167.569 28.98 167.388 28.8787 167.185 28.804C166.983 28.724 166.772 28.6787 166.553 28.668C166.281 28.6573 166.028 28.6893 165.793 28.764C165.564 28.8333 165.38 28.9453 165.241 29.1C165.103 29.2547 165.033 29.452 165.033 29.692C165.033 29.9267 165.116 30.1027 165.281 30.22C165.447 30.332 165.655 30.4227 165.905 30.492C166.161 30.5613 166.423 30.6387 166.689 30.724C167.164 30.8733 167.609 31.0573 168.025 31.276C168.441 31.4893 168.777 31.7533 169.033 32.068C169.289 32.3827 169.412 32.7667 169.401 33.22C169.401 33.7213 169.249 34.1613 168.945 34.54C168.647 34.9187 168.257 35.2067 167.777 35.404C167.297 35.6013 166.788 35.684 166.249 35.652Z" fill="black"/>
<rect x="253" y="20" width="60" height="20" rx="10" fill="#1F4E3C" fill-opacity="0.05"/>
<path d="M273.53 25.88V30.24C273.53 32.18 272.56 33.14 270.63 33.14C269.62 33.14 268.88 32.9 268.4 32.42C267.92 31.94 267.69 31.21 267.69 30.22V25.88H268.94V30.47C268.94 31.57 269.51 32.11 270.65 32.11C270.99 32.11 271.28 32.07 271.5 31.97C271.72 31.88 271.89 31.74 272 31.54C272.1 31.35 272.18 31.14 272.22 30.92C272.26 30.7 272.28 30.42 272.28 30.08V25.88H273.53ZM275.566 27.84V28.53C275.906 27.97 276.466 27.69 277.246 27.69C277.956 27.69 278.526 27.94 278.956 28.44C279.376 28.94 279.596 29.61 279.596 30.44C279.596 31.26 279.386 31.91 278.966 32.4C278.546 32.89 277.996 33.13 277.306 33.13C276.566 33.13 276.006 32.86 275.626 32.32V34.91H274.496V27.84H275.566ZM277.016 28.61C276.566 28.61 276.216 28.77 275.966 29.09C275.706 29.41 275.586 29.86 275.586 30.42C275.586 30.98 275.706 31.42 275.966 31.74C276.226 32.06 276.576 32.22 277.036 32.22C277.466 32.22 277.806 32.06 278.066 31.74C278.316 31.42 278.446 30.99 278.446 30.44C278.446 29.88 278.316 29.44 278.056 29.11C277.796 28.78 277.456 28.61 277.016 28.61ZM281.418 25.88V33H280.288V25.88H281.418ZM284.708 27.69C285.488 27.69 286.118 27.94 286.588 28.43C287.048 28.93 287.288 29.59 287.288 30.42C287.288 31.26 287.048 31.93 286.588 32.42C286.128 32.92 285.498 33.16 284.708 33.16C283.898 33.16 283.258 32.92 282.788 32.42C282.308 31.93 282.078 31.26 282.078 30.42C282.078 29.59 282.308 28.93 282.788 28.43C283.268 27.94 283.908 27.69 284.708 27.69ZM284.688 28.59C284.228 28.59 283.878 28.76 283.618 29.08C283.358 29.41 283.228 29.86 283.228 30.42C283.228 31 283.358 31.46 283.618 31.78C283.878 32.11 284.238 32.27 284.698 32.27C285.138 32.27 285.488 32.11 285.748 31.78C286.008 31.45 286.138 30.99 286.138 30.41C286.138 29.85 286.008 29.4 285.748 29.08C285.488 28.76 285.138 28.59 284.688 28.59ZM287.855 29.43C287.975 28.27 288.725 27.68 290.115 27.68C290.755 27.68 291.275 27.81 291.655 28.06C292.035 28.32 292.235 28.71 292.235 29.24V31.86C292.235 32.01 292.245 32.11 292.285 32.16C292.325 32.22 292.395 32.24 292.505 32.24C292.585 32.24 292.665 32.24 292.765 32.22V33.02C292.465 33.1 292.225 33.13 292.025 33.13C291.535 33.13 291.255 32.93 291.185 32.51C290.745 32.93 290.145 33.13 289.375 33.13C288.835 33.13 288.415 33 288.105 32.72C287.785 32.44 287.635 32.07 287.635 31.59C287.635 31.45 287.645 31.31 287.685 31.18C287.715 31.06 287.755 30.95 287.795 30.85C287.835 30.76 287.905 30.67 288.005 30.59C288.105 30.51 288.185 30.45 288.245 30.39C288.305 30.34 288.415 30.29 288.555 30.24C288.695 30.2 288.805 30.16 288.875 30.14C288.945 30.12 289.065 30.09 289.245 30.06C289.415 30.04 289.525 30.02 289.585 30.01C289.645 30 289.765 29.98 289.945 29.96C290.345 29.91 290.625 29.87 290.775 29.83C290.915 29.79 291.015 29.74 291.075 29.66C291.115 29.61 291.145 29.49 291.145 29.29C291.145 28.77 290.785 28.51 290.085 28.51C289.705 28.51 289.435 28.58 289.265 28.72C289.085 28.86 288.975 29.1 288.935 29.43H287.855ZM291.135 30.41C291.045 30.46 290.945 30.5 290.835 30.54C290.715 30.58 290.625 30.6 290.555 30.61C290.485 30.62 290.375 30.63 290.225 30.65C290.075 30.67 289.975 30.69 289.935 30.69C289.795 30.71 289.685 30.73 289.605 30.75C289.525 30.77 289.425 30.79 289.305 30.83C289.185 30.87 289.095 30.92 289.035 30.98C288.975 31.04 288.915 31.11 288.875 31.21C288.825 31.31 288.805 31.42 288.805 31.55C288.805 31.8 288.885 31.99 289.045 32.12C289.205 32.26 289.435 32.32 289.735 32.32C290.235 32.32 290.625 32.19 290.905 31.91C291.055 31.76 291.135 31.46 291.135 31.02V30.41ZM298.01 25.88V33H296.94V32.29C296.61 32.86 296.06 33.14 295.29 33.14C294.56 33.14 293.98 32.9 293.55 32.4C293.12 31.91 292.91 31.25 292.91 30.41C292.91 29.59 293.12 28.93 293.54 28.44C293.96 27.95 294.53 27.7 295.25 27.7C295.97 27.7 296.52 27.97 296.89 28.51V25.88H298.01ZM295.46 28.62C295.02 28.62 294.68 28.78 294.43 29.1C294.18 29.42 294.06 29.85 294.06 30.39C294.06 30.96 294.18 31.41 294.44 31.73C294.7 32.06 295.05 32.22 295.5 32.22C295.94 32.22 296.29 32.06 296.54 31.74C296.79 31.42 296.92 30.98 296.92 30.41C296.92 29.85 296.79 29.41 296.53 29.09C296.27 28.78 295.92 28.62 295.46 28.62Z" fill="#1F4E3C"/>
</svg>
