<svg width="327" height="60" viewBox="0 0 327 60" fill="none" xmlns="http://www.w3.org/2000/svg">
<rect x="0.5" y="0.5" width="326" height="59" rx="11.5" fill="#1F4E3C" fill-opacity="0.05"/>
<rect x="0.5" y="0.5" width="326" height="59" rx="11.5" stroke="#1F4E3C" stroke-dasharray="4 4"/>
<rect x="14" y="12" width="36" height="36" rx="18" fill="#1F4E3C"/>
<path d="M37.2811 30.7731H32.8994V35.2166H31.1509V30.7731H26.7897V29.1891H31.1509V24.7251H32.8994V29.1891H37.2811V30.7731Z" fill="white"/>
<path d="M64.712 24.3H66.656L70.728 35.5H68.968L68.192 33.372H63.176L62.408 35.5H60.64L64.712 24.3ZM63.792 31.708H67.576L65.68 26.508L63.792 31.708ZM77.4289 23.5H79.0929V35.5H77.4289V34.324C77.1675 34.74 76.8262 35.076 76.4049 35.332C75.9835 35.5827 75.4902 35.708 74.9249 35.708C74.3435 35.708 73.7995 35.5987 73.2929 35.38C72.7862 35.1613 72.3382 34.86 71.9489 34.476C71.5649 34.0867 71.2635 33.6387 71.0449 33.132C70.8262 32.6253 70.7169 32.0813 70.7169 31.5C70.7169 30.9187 70.8262 30.3747 71.0449 29.868C71.2635 29.356 71.5649 28.908 71.9489 28.524C72.3382 28.1347 72.7862 27.8307 73.2929 27.612C73.7995 27.3933 74.3435 27.284 74.9249 27.284C75.4902 27.284 75.9835 27.412 76.4049 27.668C76.8262 27.9187 77.1675 28.2493 77.4289 28.66V23.5ZM74.9409 34.1C75.4102 34.1 75.8209 33.9853 76.1729 33.756C76.5249 33.5213 76.7969 33.2067 76.9889 32.812C77.1862 32.4173 77.2849 31.98 77.2849 31.5C77.2849 31.0147 77.1862 30.5747 76.9889 30.18C76.7915 29.7853 76.5169 29.4733 76.1649 29.244C75.8182 29.0093 75.4102 28.892 74.9409 28.892C74.4769 28.892 74.0529 29.0093 73.6689 29.244C73.2902 29.4787 72.9862 29.7933 72.7569 30.188C72.5329 30.5827 72.4209 31.02 72.4209 31.5C72.4209 31.9853 72.5355 32.4253 72.7649 32.82C72.9995 33.2093 73.3062 33.5213 73.6849 33.756C74.0689 33.9853 74.4875 34.1 74.9409 34.1ZM86.7907 23.5H88.4547V35.5H86.7907V34.324C86.5294 34.74 86.1881 35.076 85.7667 35.332C85.3454 35.5827 84.8521 35.708 84.2867 35.708C83.7054 35.708 83.1614 35.5987 82.6547 35.38C82.1481 35.1613 81.7001 34.86 81.3107 34.476C80.9267 34.0867 80.6254 33.6387 80.4067 33.132C80.1881 32.6253 80.0787 32.0813 80.0787 31.5C80.0787 30.9187 80.1881 30.3747 80.4067 29.868C80.6254 29.356 80.9267 28.908 81.3107 28.524C81.7001 28.1347 82.1481 27.8307 82.6547 27.612C83.1614 27.3933 83.7054 27.284 84.2867 27.284C84.8521 27.284 85.3454 27.412 85.7667 27.668C86.1881 27.9187 86.5294 28.2493 86.7907 28.66V23.5ZM84.3027 34.1C84.7721 34.1 85.1827 33.9853 85.5347 33.756C85.8867 33.5213 86.1587 33.2067 86.3507 32.812C86.5481 32.4173 86.6467 31.98 86.6467 31.5C86.6467 31.0147 86.5481 30.5747 86.3507 30.18C86.1534 29.7853 85.8787 29.4733 85.5267 29.244C85.1801 29.0093 84.7721 28.892 84.3027 28.892C83.8387 28.892 83.4147 29.0093 83.0307 29.244C82.6521 29.4787 82.3481 29.7933 82.1187 30.188C81.8947 30.5827 81.7827 31.02 81.7827 31.5C81.7827 31.9853 81.8974 32.4253 82.1267 32.82C82.3614 33.2093 82.6681 33.5213 83.0467 33.756C83.4307 33.9853 83.8494 34.1 84.3027 34.1ZM93.5325 35.5V24.3H97.3885C97.9912 24.3 98.5352 24.4493 99.0205 24.748C99.5112 25.0467 99.9005 25.4493 100.188 25.956C100.482 26.4627 100.628 27.0227 100.628 27.636C100.628 28.26 100.479 28.8253 100.18 29.332C99.8872 29.8333 99.4952 30.2333 99.0045 30.532C98.5138 30.8307 97.9752 30.98 97.3885 30.98H95.1965V35.5H93.5325ZM95.1965 29.316H97.2205C97.5405 29.316 97.8312 29.236 98.0925 29.076C98.3592 28.916 98.5698 28.7027 98.7245 28.436C98.8845 28.1693 98.9645 27.868 98.9645 27.532C98.9645 27.196 98.8845 26.8947 98.7245 26.628C98.5698 26.356 98.3592 26.1427 98.0925 25.988C97.8312 25.828 97.5405 25.748 97.2205 25.748H95.1965V29.316ZM101.598 35.5V27.5H103.262V28.348C103.539 28.0173 103.88 27.756 104.286 27.564C104.691 27.372 105.128 27.276 105.598 27.276C105.896 27.276 106.192 27.316 106.486 27.396L105.822 29.076C105.614 28.996 105.406 28.956 105.198 28.956C104.846 28.956 104.523 29.044 104.23 29.22C103.936 29.3907 103.702 29.6227 103.526 29.916C103.35 30.2093 103.262 30.5347 103.262 30.892V35.5H101.598ZM110.214 35.708C109.478 35.708 108.806 35.5187 108.198 35.14C107.595 34.7613 107.112 34.2547 106.75 33.62C106.392 32.98 106.214 32.2733 106.214 31.5C106.214 30.9133 106.318 30.3667 106.526 29.86C106.734 29.348 107.019 28.9 107.382 28.516C107.75 28.1267 108.176 27.8227 108.662 27.604C109.147 27.3853 109.664 27.276 110.214 27.276C110.95 27.276 111.619 27.4653 112.222 27.844C112.83 28.2227 113.312 28.732 113.67 29.372C114.032 30.012 114.214 30.7213 114.214 31.5C114.214 32.0813 114.11 32.6253 113.902 33.132C113.694 33.6387 113.406 34.0867 113.038 34.476C112.675 34.86 112.251 35.1613 111.766 35.38C111.286 35.5987 110.768 35.708 110.214 35.708ZM110.214 34.044C110.656 34.044 111.054 33.9267 111.406 33.692C111.758 33.4573 112.035 33.148 112.238 32.764C112.446 32.3747 112.55 31.9533 112.55 31.5C112.55 31.036 112.443 30.6093 112.23 30.22C112.022 29.8307 111.742 29.5213 111.39 29.292C111.038 29.0573 110.646 28.94 110.214 28.94C109.776 28.94 109.379 29.0573 109.022 29.292C108.67 29.5267 108.39 29.8387 108.182 30.228C107.979 30.6173 107.878 31.0413 107.878 31.5C107.878 31.9747 107.984 32.404 108.198 32.788C108.411 33.172 108.694 33.4787 109.046 33.708C109.403 33.932 109.792 34.044 110.214 34.044ZM117.362 25.684V27.5H119.618V29.164H117.362V35.5H115.698V29.164H114.746V27.5H115.698V25.684C115.698 25.2467 115.804 24.8493 116.018 24.492C116.231 24.1293 116.516 23.8413 116.874 23.628C117.236 23.4147 117.639 23.308 118.082 23.308C118.402 23.308 118.714 23.372 119.018 23.5C119.322 23.628 119.594 23.8253 119.834 24.092L118.642 25.268C118.583 25.172 118.5 25.1 118.394 25.052C118.292 24.9987 118.188 24.972 118.082 24.972C117.884 24.972 117.714 25.0413 117.57 25.18C117.431 25.3187 117.362 25.4867 117.362 25.684ZM120.511 27.5H122.175V35.5H120.511V27.5ZM121.359 26.34C121.103 26.34 120.89 26.2573 120.719 26.092C120.549 25.9267 120.463 25.7187 120.463 25.468C120.463 25.2227 120.549 25.0173 120.719 24.852C120.89 24.6813 121.101 24.596 121.351 24.596C121.597 24.596 121.805 24.6813 121.975 24.852C122.146 25.0173 122.231 25.2227 122.231 25.468C122.231 25.7187 122.146 25.9267 121.975 26.092C121.81 26.2573 121.605 26.34 121.359 26.34ZM123.779 35.5V23.5H125.443V35.5H123.779ZM130.427 35.708C129.691 35.708 129.019 35.5187 128.411 35.14C127.808 34.7613 127.326 34.2547 126.963 33.62C126.606 32.98 126.427 32.2733 126.427 31.5C126.427 30.9133 126.531 30.3667 126.739 29.86C126.947 29.348 127.232 28.9 127.595 28.516C127.963 28.1267 128.39 27.8227 128.875 27.604C129.36 27.3853 129.878 27.276 130.427 27.276C131.04 27.276 131.603 27.404 132.115 27.66C132.627 27.9107 133.064 28.26 133.427 28.708C133.79 29.1507 134.056 29.6627 134.227 30.244C134.398 30.82 134.448 31.4333 134.379 32.084H128.211C128.28 32.452 128.414 32.7853 128.611 33.084C128.814 33.3773 129.07 33.6093 129.379 33.78C129.694 33.9507 130.043 34.0387 130.427 34.044C130.832 34.044 131.2 33.9427 131.531 33.74C131.867 33.5373 132.142 33.2573 132.355 32.9L134.043 33.292C133.723 34.0013 133.24 34.5827 132.595 35.036C131.95 35.484 131.227 35.708 130.427 35.708ZM128.155 30.812H132.699C132.646 30.428 132.51 30.0813 132.291 29.772C132.078 29.4573 131.808 29.2093 131.483 29.028C131.163 28.8413 130.811 28.748 130.427 28.748C130.048 28.748 129.696 28.8387 129.371 29.02C129.051 29.2013 128.784 29.4493 128.571 29.764C128.363 30.0733 128.224 30.4227 128.155 30.812ZM139.006 35.5V24.3H142.862C143.464 24.3 144.008 24.4493 144.494 24.748C144.984 25.0467 145.374 25.4493 145.662 25.956C145.955 26.4627 146.102 27.0227 146.102 27.636C146.102 28.26 145.952 28.8253 145.654 29.332C145.36 29.8333 144.968 30.2333 144.478 30.532C143.987 30.8307 143.448 30.98 142.862 30.98H140.67V35.5H139.006ZM140.67 29.316H142.694C143.014 29.316 143.304 29.236 143.566 29.076C143.832 28.916 144.043 28.7027 144.198 28.436C144.358 28.1693 144.438 27.868 144.438 27.532C144.438 27.196 144.358 26.8947 144.198 26.628C144.043 26.356 143.832 26.1427 143.566 25.988C143.304 25.828 143.014 25.748 142.694 25.748H140.67V29.316ZM154.489 30.484V35.5H152.825V30.892C152.825 30.5347 152.737 30.2093 152.561 29.916C152.391 29.6227 152.159 29.3907 151.865 29.22C151.577 29.044 151.252 28.956 150.889 28.956C150.537 28.956 150.215 29.044 149.921 29.22C149.628 29.3907 149.393 29.6227 149.217 29.916C149.041 30.2093 148.953 30.5347 148.953 30.892V35.5H147.289V23.5H148.953V28.348C149.231 28.0173 149.572 27.756 149.977 27.564C150.383 27.372 150.82 27.276 151.289 27.276C151.881 27.276 152.42 27.42 152.905 27.708C153.391 27.996 153.775 28.3827 154.057 28.868C154.345 29.3533 154.489 29.892 154.489 30.484ZM159.109 35.708C158.373 35.708 157.701 35.5187 157.093 35.14C156.49 34.7613 156.007 34.2547 155.645 33.62C155.287 32.98 155.109 32.2733 155.109 31.5C155.109 30.9133 155.213 30.3667 155.421 29.86C155.629 29.348 155.914 28.9 156.277 28.516C156.645 28.1267 157.071 27.8227 157.557 27.604C158.042 27.3853 158.559 27.276 159.109 27.276C159.845 27.276 160.514 27.4653 161.117 27.844C161.725 28.2227 162.207 28.732 162.565 29.372C162.927 30.012 163.109 30.7213 163.109 31.5C163.109 32.0813 163.005 32.6253 162.797 33.132C162.589 33.6387 162.301 34.0867 161.933 34.476C161.57 34.86 161.146 35.1613 160.661 35.38C160.181 35.5987 159.663 35.708 159.109 35.708ZM159.109 34.044C159.551 34.044 159.949 33.9267 160.301 33.692C160.653 33.4573 160.93 33.148 161.133 32.764C161.341 32.3747 161.445 31.9533 161.445 31.5C161.445 31.036 161.338 30.6093 161.125 30.22C160.917 29.8307 160.637 29.5213 160.285 29.292C159.933 29.0573 159.541 28.94 159.109 28.94C158.671 28.94 158.274 29.0573 157.917 29.292C157.565 29.5267 157.285 29.8387 157.077 30.228C156.874 30.6173 156.773 31.0413 156.773 31.5C156.773 31.9747 156.879 32.404 157.093 32.788C157.306 33.172 157.589 33.4787 157.941 33.708C158.298 33.932 158.687 34.044 159.109 34.044ZM168.237 29.164H166.557L166.549 35.5H164.885L164.893 29.164H163.621V27.5H164.893L164.885 24.988H166.549L166.557 27.5H168.237V29.164ZM172.661 35.708C171.925 35.708 171.253 35.5187 170.645 35.14C170.042 34.7613 169.559 34.2547 169.197 33.62C168.839 32.98 168.661 32.2733 168.661 31.5C168.661 30.9133 168.765 30.3667 168.973 29.86C169.181 29.348 169.466 28.9 169.829 28.516C170.197 28.1267 170.623 27.8227 171.109 27.604C171.594 27.3853 172.111 27.276 172.661 27.276C173.397 27.276 174.066 27.4653 174.669 27.844C175.277 28.2227 175.759 28.732 176.117 29.372C176.479 30.012 176.661 30.7213 176.661 31.5C176.661 32.0813 176.557 32.6253 176.349 33.132C176.141 33.6387 175.853 34.0867 175.485 34.476C175.122 34.86 174.698 35.1613 174.213 35.38C173.733 35.5987 173.215 35.708 172.661 35.708ZM172.661 34.044C173.103 34.044 173.501 33.9267 173.853 33.692C174.205 33.4573 174.482 33.148 174.685 32.764C174.893 32.3747 174.997 31.9533 174.997 31.5C174.997 31.036 174.89 30.6093 174.677 30.22C174.469 29.8307 174.189 29.5213 173.837 29.292C173.485 29.0573 173.093 28.94 172.661 28.94C172.223 28.94 171.826 29.0573 171.469 29.292C171.117 29.5267 170.837 29.8387 170.629 30.228C170.426 30.6173 170.325 31.0413 170.325 31.5C170.325 31.9747 170.431 32.404 170.645 32.788C170.858 33.172 171.141 33.4787 171.493 33.708C171.85 33.932 172.239 34.044 172.661 34.044Z" fill="black"/>
<rect x="253" y="20" width="60" height="20" rx="10" fill="#1F4E3C" fill-opacity="0.05"/>
<path d="M273.53 25.88V30.24C273.53 32.18 272.56 33.14 270.63 33.14C269.62 33.14 268.88 32.9 268.4 32.42C267.92 31.94 267.69 31.21 267.69 30.22V25.88H268.94V30.47C268.94 31.57 269.51 32.11 270.65 32.11C270.99 32.11 271.28 32.07 271.5 31.97C271.72 31.88 271.89 31.74 272 31.54C272.1 31.35 272.18 31.14 272.22 30.92C272.26 30.7 272.28 30.42 272.28 30.08V25.88H273.53ZM275.566 27.84V28.53C275.906 27.97 276.466 27.69 277.246 27.69C277.956 27.69 278.526 27.94 278.956 28.44C279.376 28.94 279.596 29.61 279.596 30.44C279.596 31.26 279.386 31.91 278.966 32.4C278.546 32.89 277.996 33.13 277.306 33.13C276.566 33.13 276.006 32.86 275.626 32.32V34.91H274.496V27.84H275.566ZM277.016 28.61C276.566 28.61 276.216 28.77 275.966 29.09C275.706 29.41 275.586 29.86 275.586 30.42C275.586 30.98 275.706 31.42 275.966 31.74C276.226 32.06 276.576 32.22 277.036 32.22C277.466 32.22 277.806 32.06 278.066 31.74C278.316 31.42 278.446 30.99 278.446 30.44C278.446 29.88 278.316 29.44 278.056 29.11C277.796 28.78 277.456 28.61 277.016 28.61ZM281.418 25.88V33H280.288V25.88H281.418ZM284.708 27.69C285.488 27.69 286.118 27.94 286.588 28.43C287.048 28.93 287.288 29.59 287.288 30.42C287.288 31.26 287.048 31.93 286.588 32.42C286.128 32.92 285.498 33.16 284.708 33.16C283.898 33.16 283.258 32.92 282.788 32.42C282.308 31.93 282.078 31.26 282.078 30.42C282.078 29.59 282.308 28.93 282.788 28.43C283.268 27.94 283.908 27.69 284.708 27.69ZM284.688 28.59C284.228 28.59 283.878 28.76 283.618 29.08C283.358 29.41 283.228 29.86 283.228 30.42C283.228 31 283.358 31.46 283.618 31.78C283.878 32.11 284.238 32.27 284.698 32.27C285.138 32.27 285.488 32.11 285.748 31.78C286.008 31.45 286.138 30.99 286.138 30.41C286.138 29.85 286.008 29.4 285.748 29.08C285.488 28.76 285.138 28.59 284.688 28.59ZM287.855 29.43C287.975 28.27 288.725 27.68 290.115 27.68C290.755 27.68 291.275 27.81 291.655 28.06C292.035 28.32 292.235 28.71 292.235 29.24V31.86C292.235 32.01 292.245 32.11 292.285 32.16C292.325 32.22 292.395 32.24 292.505 32.24C292.585 32.24 292.665 32.24 292.765 32.22V33.02C292.465 33.1 292.225 33.13 292.025 33.13C291.535 33.13 291.255 32.93 291.185 32.51C290.745 32.93 290.145 33.13 289.375 33.13C288.835 33.13 288.415 33 288.105 32.72C287.785 32.44 287.635 32.07 287.635 31.59C287.635 31.45 287.645 31.31 287.685 31.18C287.715 31.06 287.755 30.95 287.795 30.85C287.835 30.76 287.905 30.67 288.005 30.59C288.105 30.51 288.185 30.45 288.245 30.39C288.305 30.34 288.415 30.29 288.555 30.24C288.695 30.2 288.805 30.16 288.875 30.14C288.945 30.12 289.065 30.09 289.245 30.06C289.415 30.04 289.525 30.02 289.585 30.01C289.645 30 289.765 29.98 289.945 29.96C290.345 29.91 290.625 29.87 290.775 29.83C290.915 29.79 291.015 29.74 291.075 29.66C291.115 29.61 291.145 29.49 291.145 29.29C291.145 28.77 290.785 28.51 290.085 28.51C289.705 28.51 289.435 28.58 289.265 28.72C289.085 28.86 288.975 29.1 288.935 29.43H287.855ZM291.135 30.41C291.045 30.46 290.945 30.5 290.835 30.54C290.715 30.58 290.625 30.6 290.555 30.61C290.485 30.62 290.375 30.63 290.225 30.65C290.075 30.67 289.975 30.69 289.935 30.69C289.795 30.71 289.685 30.73 289.605 30.75C289.525 30.77 289.425 30.79 289.305 30.83C289.185 30.87 289.095 30.92 289.035 30.98C288.975 31.04 288.915 31.11 288.875 31.21C288.825 31.31 288.805 31.42 288.805 31.55C288.805 31.8 288.885 31.99 289.045 32.12C289.205 32.26 289.435 32.32 289.735 32.32C290.235 32.32 290.625 32.19 290.905 31.91C291.055 31.76 291.135 31.46 291.135 31.02V30.41ZM298.01 25.88V33H296.94V32.29C296.61 32.86 296.06 33.14 295.29 33.14C294.56 33.14 293.98 32.9 293.55 32.4C293.12 31.91 292.91 31.25 292.91 30.41C292.91 29.59 293.12 28.93 293.54 28.44C293.96 27.95 294.53 27.7 295.25 27.7C295.97 27.7 296.52 27.97 296.89 28.51V25.88H298.01ZM295.46 28.62C295.02 28.62 294.68 28.78 294.43 29.1C294.18 29.42 294.06 29.85 294.06 30.39C294.06 30.96 294.18 31.41 294.44 31.73C294.7 32.06 295.05 32.22 295.5 32.22C295.94 32.22 296.29 32.06 296.54 31.74C296.79 31.42 296.92 30.98 296.92 30.41C296.92 29.85 296.79 29.41 296.53 29.09C296.27 28.78 295.92 28.62 295.46 28.62Z" fill="#1F4E3C"/>
</svg>
