<svg width="158" height="45" viewBox="0 0 158 45" fill="none" xmlns="http://www.w3.org/2000/svg">
<rect y="0.855652" width="158" height="44" rx="8" fill="white"/>
<path d="M62.5917 29.1057C61.9 30.139 61.1667 31.1473 60.05 31.164C58.9333 31.189 58.575 30.5057 57.3083 30.5057C56.0333 30.5057 55.6417 31.1473 54.5833 31.189C53.4917 31.2307 52.6667 30.089 51.9667 29.0807C50.5417 27.0223 49.45 23.2307 50.9167 20.6807C51.6417 19.414 52.9417 18.614 54.35 18.589C55.4167 18.5723 56.4333 19.314 57.0917 19.314C57.7417 19.314 58.975 18.4223 60.2667 18.5557C60.8083 18.5807 62.325 18.7723 63.3 20.2057C63.225 20.2557 61.4917 21.2723 61.5083 23.3807C61.5333 25.8973 63.7167 26.739 63.7417 26.7473C63.7167 26.8057 63.3917 27.9473 62.5917 29.1057ZM57.8333 15.7723C58.4417 15.0807 59.45 14.5557 60.2833 14.5223C60.3917 15.4973 60 16.4807 59.4167 17.1807C58.8417 17.889 57.8917 18.439 56.9583 18.364C56.8333 17.4057 57.3 16.4057 57.8333 15.7723Z" fill="black"/>
<path d="M79.123 18.0557H80.544L84.107 27.8557H82.861L82.133 25.8537H77.534L76.813 27.8557H75.56L79.123 18.0557ZM77.968 24.6777H81.699L79.83 19.5607L77.968 24.6777ZM86.1019 31.3557H84.9259V20.8557H86.1019V22.0527C86.3399 21.642 86.6572 21.3107 87.0539 21.0587C87.4506 20.802 87.9219 20.6737 88.4679 20.6737C88.9766 20.6737 89.4526 20.7693 89.8959 20.9607C90.3439 21.152 90.7359 21.418 91.0719 21.7587C91.4079 22.0947 91.6716 22.4843 91.8629 22.9277C92.0542 23.371 92.1499 23.847 92.1499 24.3557C92.1499 24.8643 92.0542 25.3427 91.8629 25.7907C91.6716 26.2387 91.4079 26.633 91.0719 26.9737C90.7359 27.3097 90.3439 27.5733 89.8959 27.7647C89.4526 27.956 88.9766 28.0517 88.4679 28.0517C87.9219 28.0517 87.4506 27.9257 87.0539 27.6737C86.6572 27.417 86.3399 27.0833 86.1019 26.6727V31.3557ZM88.4539 21.8147C88.0012 21.8147 87.6046 21.929 87.2639 22.1577C86.9232 22.3863 86.6596 22.692 86.4729 23.0747C86.2909 23.4573 86.1999 23.8843 86.1999 24.3557C86.1999 24.8223 86.2909 25.2493 86.4729 25.6367C86.6596 26.024 86.9209 26.332 87.2569 26.5607C87.5976 26.7893 87.9966 26.9037 88.4539 26.9037C88.9066 26.9037 89.3219 26.7917 89.6999 26.5677C90.0779 26.339 90.3812 26.0333 90.6099 25.6507C90.8386 25.2633 90.9529 24.8317 90.9529 24.3557C90.9529 23.889 90.8409 23.4643 90.6169 23.0817C90.3929 22.6943 90.0919 22.3863 89.7139 22.1577C89.3359 21.929 88.9159 21.8147 88.4539 21.8147ZM94.1898 31.3557H93.0138V20.8557H94.1898V22.0527C94.4278 21.642 94.7451 21.3107 95.1418 21.0587C95.5384 20.802 96.0098 20.6737 96.5558 20.6737C97.0644 20.6737 97.5404 20.7693 97.9838 20.9607C98.4318 21.152 98.8238 21.418 99.1598 21.7587C99.4958 22.0947 99.7594 22.4843 99.9508 22.9277C100.142 23.371 100.238 23.847 100.238 24.3557C100.238 24.8643 100.142 25.3427 99.9508 25.7907C99.7594 26.2387 99.4958 26.633 99.1598 26.9737C98.8238 27.3097 98.4318 27.5733 97.9838 27.7647C97.5404 27.956 97.0644 28.0517 96.5558 28.0517C96.0098 28.0517 95.5384 27.9257 95.1418 27.6737C94.7451 27.417 94.4278 27.0833 94.1898 26.6727V31.3557ZM96.5418 21.8147C96.0891 21.8147 95.6924 21.929 95.3518 22.1577C95.0111 22.3863 94.7474 22.692 94.5608 23.0747C94.3788 23.4573 94.2878 23.8843 94.2878 24.3557C94.2878 24.8223 94.3788 25.2493 94.5608 25.6367C94.7474 26.024 95.0088 26.332 95.3448 26.5607C95.6854 26.7893 96.0844 26.9037 96.5418 26.9037C96.9944 26.9037 97.4098 26.7917 97.7878 26.5677C98.1658 26.339 98.4691 26.0333 98.6978 25.6507C98.9264 25.2633 99.0408 24.8317 99.0408 24.3557C99.0408 23.889 98.9288 23.4643 98.7048 23.0817C98.4808 22.6943 98.1798 22.3863 97.8018 22.1577C97.4238 21.929 97.0038 21.8147 96.5418 21.8147ZM101.033 27.8557V17.3557H102.209V27.8557H101.033ZM106.596 28.0377C105.952 28.0377 105.364 27.872 104.832 27.5407C104.304 27.2093 103.882 26.766 103.565 26.2107C103.252 25.6507 103.096 25.0323 103.096 24.3557C103.096 23.8423 103.187 23.364 103.369 22.9207C103.551 22.4727 103.8 22.0807 104.118 21.7447C104.44 21.404 104.813 21.138 105.238 20.9467C105.662 20.7553 106.115 20.6597 106.596 20.6597C107.123 20.6597 107.606 20.767 108.045 20.9817C108.488 21.1917 108.866 21.4857 109.179 21.8637C109.496 22.2417 109.732 22.6803 109.886 23.1797C110.044 23.679 110.103 24.2133 110.061 24.7827H104.349C104.405 25.1793 104.535 25.534 104.741 25.8467C104.946 26.1547 105.207 26.3997 105.525 26.5817C105.847 26.7637 106.204 26.857 106.596 26.8617C107.016 26.8617 107.396 26.7543 107.737 26.5397C108.077 26.3203 108.353 26.0217 108.563 25.6437L109.76 25.9237C109.48 26.5443 109.057 27.053 108.493 27.4497C107.928 27.8417 107.296 28.0377 106.596 28.0377ZM104.314 23.8587H108.878C108.84 23.4667 108.714 23.1097 108.5 22.7877C108.285 22.461 108.012 22.1997 107.681 22.0037C107.349 21.8077 106.988 21.7097 106.596 21.7097C106.204 21.7097 105.844 21.8053 105.518 21.9967C105.191 22.188 104.92 22.447 104.706 22.7737C104.496 23.0957 104.365 23.4573 104.314 23.8587Z" fill="#2C2C2C"/>
</svg>
