<svg width="34" height="35" viewBox="0 0 34 35" fill="none" xmlns="http://www.w3.org/2000/svg">
<circle cx="17" cy="17.6028" r="16.5" stroke="#CDF4C7"/>
<path d="M23.8253 19.3191L22.8837 17.7525C22.6753 17.4108 22.492 16.7525 22.492 16.3525V14.7941C22.492 11.7691 20.0337 9.31079 17.017 9.31079C13.992 9.31912 11.5337 11.7691 11.5337 14.7941V16.3441C11.5337 16.7441 11.3503 17.4025 11.1503 17.7441L10.2087 19.3108C9.85033 19.9191 9.767 20.6108 9.992 21.2108C10.217 21.8191 10.7253 22.3025 11.392 22.5191C12.292 22.8191 13.2003 23.0358 14.1253 23.1941C14.217 23.2108 14.3087 23.2191 14.4003 23.2358C14.517 23.2525 14.642 23.2691 14.767 23.2858C14.9837 23.3191 15.2003 23.3441 15.4253 23.3608C15.9503 23.4108 16.4837 23.4358 17.017 23.4358C17.542 23.4358 18.067 23.4108 18.5837 23.3608C18.7753 23.3441 18.967 23.3275 19.1503 23.3025C19.3003 23.2858 19.4503 23.2691 19.6003 23.2441C19.692 23.2358 19.7837 23.2191 19.8753 23.2025C20.8087 23.0525 21.7337 22.8191 22.6337 22.5191C23.2753 22.3025 23.767 21.8191 24.0003 21.2025C24.2337 20.5775 24.167 19.8941 23.8253 19.3191ZM17.6253 15.9358C17.6253 16.2858 17.342 16.5691 16.992 16.5691C16.642 16.5691 16.3587 16.2858 16.3587 15.9358V13.3525C16.3587 13.0025 16.642 12.7191 16.992 12.7191C17.342 12.7191 17.6253 13.0025 17.6253 13.3525V15.9358Z" fill="#CDF4C7"/>
<path d="M19.3587 24.2781C19.0087 25.2448 18.0837 25.9364 17.0004 25.9364C16.3421 25.9364 15.6921 25.6698 15.2337 25.1948C14.9671 24.9448 14.7671 24.6114 14.6504 24.2698C14.7587 24.2864 14.8671 24.2948 14.9837 24.3114C15.1754 24.3364 15.3754 24.3614 15.5754 24.3781C16.0504 24.4198 16.5337 24.4448 17.0171 24.4448C17.4921 24.4448 17.9671 24.4198 18.4337 24.3781C18.6087 24.3614 18.7837 24.3531 18.9504 24.3281C19.0837 24.3114 19.2171 24.2948 19.3587 24.2781Z" fill="#CDF4C7"/>
</svg>
