<svg width="16" height="16" viewBox="0 0 16 16" fill="none" xmlns="http://www.w3.org/2000/svg">
<path d="M8.38495 1.50625C8.3412 1.50396 8.29762 1.5132 8.25857 1.53305C8.21952 1.55291 8.18637 1.58268 8.16245 1.61937C7.5187 2.5925 7.49995 3.48687 7.49995 3.5C7.50024 3.5744 7.51714 3.64781 7.54941 3.71486C7.58168 3.7819 7.6285 3.8409 7.68647 3.88755C7.74444 3.9342 7.81209 3.96733 7.88448 3.98451C7.95688 4.00169 8.0322 4.0025 8.10495 3.98687C8.2185 3.95967 8.31943 3.8947 8.3912 3.8026C8.46297 3.7105 8.50132 3.59675 8.49995 3.48C8.50234 3.41161 8.51874 3.34443 8.54814 3.28264C8.57754 3.22085 8.61932 3.16574 8.67088 3.12075C8.72243 3.07575 8.78268 3.04182 8.84789 3.02105C8.91309 3.00028 8.98186 2.99311 9.04995 3C9.17543 3.01457 9.291 3.0753 9.37418 3.17037C9.45736 3.26545 9.50219 3.38807 9.49995 3.51437C9.49771 3.9122 9.33753 4.29284 9.05464 4.57256C8.77176 4.85228 8.38934 5.00817 7.99151 5.00593C7.59369 5.0037 7.21304 4.84352 6.93332 4.56063C6.6536 4.27774 6.49771 3.89532 6.49995 3.4975C6.49995 3.45812 6.50557 2.82375 6.83995 1.9975C6.85688 1.95522 6.86195 1.90911 6.85459 1.86417C6.84723 1.81922 6.82774 1.77713 6.79821 1.74246C6.76868 1.70778 6.73024 1.68183 6.68704 1.66741C6.64383 1.65298 6.59751 1.65064 6.55307 1.66062C5.07986 1.99902 3.77033 2.83954 2.84912 4.03797C1.92792 5.23641 1.45246 6.71806 1.50432 8.22875C1.62495 11.67 4.45182 14.4375 7.89495 14.4937C9.59345 14.5198 11.2346 13.8798 12.4672 12.7109C13.6998 11.542 14.4258 9.93706 14.4899 8.23957C14.5539 6.54208 13.9509 4.88696 12.8099 3.62851C11.6689 2.37006 10.0806 1.60829 8.38495 1.50625ZM4.99995 7.99437C4.99995 7.84604 5.04394 7.70103 5.12635 7.57769C5.20876 7.45436 5.32589 7.35823 5.46294 7.30146C5.59998 7.2447 5.75078 7.22984 5.89627 7.25878C6.04175 7.28772 6.17539 7.35915 6.28028 7.46404C6.38517 7.56893 6.4566 7.70257 6.48554 7.84805C6.51448 7.99354 6.49962 8.14434 6.44286 8.28138C6.38609 8.41843 6.28996 8.53556 6.16663 8.61797C6.04329 8.70039 5.89828 8.74437 5.74995 8.74437C5.55104 8.74437 5.36027 8.66535 5.21962 8.5247C5.07897 8.38405 4.99995 8.19328 4.99995 7.99437ZM10.0168 11.4175C9.41173 11.7947 8.71299 11.9947 7.99995 11.9947C7.28691 11.9947 6.58816 11.7947 5.98307 11.4175C5.87085 11.3467 5.79135 11.2343 5.76204 11.1049C5.73274 10.9755 5.75604 10.8397 5.82682 10.7275C5.8976 10.6153 6.01006 10.5358 6.13946 10.5065C6.26886 10.4772 6.4046 10.5005 6.51682 10.5712C6.96214 10.8476 7.47583 10.9941 7.99995 10.9941C8.52406 10.9941 9.03775 10.8476 9.48307 10.5712C9.53864 10.5362 9.60056 10.5124 9.66531 10.5013C9.73006 10.4902 9.79636 10.492 9.86043 10.5065C9.92451 10.521 9.98509 10.548 10.0387 10.5859C10.0924 10.6238 10.138 10.6719 10.1731 10.7275C10.2081 10.7831 10.2319 10.845 10.243 10.9097C10.2541 10.9745 10.2524 11.0408 10.2379 11.1049C10.2233 11.1689 10.1964 11.2295 10.1584 11.2832C10.1205 11.3368 10.0724 11.3825 10.0168 11.4175ZM10.2499 8.74437C10.1016 8.74437 9.95661 8.70039 9.83327 8.61797C9.70993 8.53556 9.6138 8.41843 9.55704 8.28138C9.50027 8.14434 9.48542 7.99354 9.51436 7.84805C9.5433 7.70257 9.61473 7.56893 9.71962 7.46404C9.82451 7.35915 9.95815 7.28772 10.1036 7.25878C10.2491 7.22984 10.3999 7.2447 10.537 7.30146C10.674 7.35823 10.7911 7.45436 10.8736 7.57769C10.956 7.70103 10.9999 7.84604 10.9999 7.99437C10.9999 8.19328 10.9209 8.38405 10.7803 8.5247C10.6396 8.66535 10.4489 8.74437 10.2499 8.74437Z" fill="black"/>
</svg>
