<svg width="328" height="19" viewBox="0 0 328 19" fill="none" xmlns="http://www.w3.org/2000/svg">
<path d="M0 9.85565H144.5" stroke="#E3E3E3"/>
<path d="M161.42 15.0377C160.776 15.0377 160.188 14.872 159.656 14.5407C159.129 14.2093 158.706 13.766 158.389 13.2107C158.076 12.6507 157.92 12.0323 157.92 11.3557C157.92 10.8423 158.011 10.364 158.193 9.92065C158.375 9.47265 158.625 9.08065 158.942 8.74465C159.264 8.40398 159.637 8.13798 160.062 7.94665C160.487 7.75532 160.939 7.65965 161.42 7.65965C162.064 7.65965 162.65 7.82532 163.177 8.15665C163.709 8.48798 164.131 8.93365 164.444 9.49365C164.761 10.0537 164.92 10.6743 164.92 11.3557C164.92 11.8643 164.829 12.3403 164.647 12.7837C164.465 13.227 164.213 13.619 163.891 13.9597C163.574 14.2957 163.203 14.5593 162.778 14.7507C162.358 14.942 161.905 15.0377 161.42 15.0377ZM161.42 13.8617C161.859 13.8617 162.253 13.7473 162.603 13.5187C162.958 13.2853 163.235 12.9797 163.436 12.6017C163.641 12.219 163.744 11.8037 163.744 11.3557C163.744 10.8983 163.639 10.4783 163.429 10.0957C163.224 9.71299 162.946 9.40732 162.596 9.17865C162.246 8.94999 161.854 8.83565 161.42 8.83565C160.981 8.83565 160.587 8.95232 160.237 9.18565C159.887 9.41432 159.609 9.71998 159.404 10.1027C159.199 10.4853 159.096 10.903 159.096 11.3557C159.096 11.8223 159.201 12.247 159.411 12.6297C159.621 13.0077 159.903 13.3087 160.258 13.5327C160.613 13.752 161 13.8617 161.42 13.8617ZM165.772 14.8557V7.85565H166.948V8.73065C167.195 8.40398 167.508 8.14498 167.886 7.95365C168.264 7.75765 168.674 7.65965 169.118 7.65965C169.388 7.65965 169.65 7.69465 169.902 7.76465L169.426 8.94065C169.234 8.87998 169.048 8.84965 168.866 8.84965C168.516 8.84965 168.194 8.93598 167.9 9.10865C167.61 9.27665 167.379 9.50532 167.207 9.79465C167.034 10.084 166.948 10.406 166.948 10.7607V14.8557H165.772Z" fill="#767676"/>
<path d="M183.5 9.85565H328" stroke="#E3E3E3"/>
</svg>
