<svg width="16" height="16" viewBox="0 0 16 16" fill="none" xmlns="http://www.w3.org/2000/svg">
<path d="M6.4083 2.12333C5.3473 2.12333 3.72063 2.73566 4.2863 6.52766C4.29497 6.58499 4.3063 6.64699 4.31797 6.71333C4.4213 7.28366 4.58063 8.16666 3.56663 8.89466C4.2563 9.46066 5.23863 10.0263 6.4323 10.2713C6.38514 10.542 6.32596 10.8105 6.25497 11.076C6.15797 11.432 5.95463 11.6843 5.5913 11.792C5.2713 11.8867 4.93597 11.9633 4.59263 12.042C4.5043 12.062 4.4153 12.0823 4.32597 12.1033C3.89763 12.203 3.46097 12.3133 3.07397 12.4693C2.68597 12.626 2.3253 12.837 2.06463 13.1517C1.7993 13.4727 1.6573 13.8773 1.66697 14.3833C1.6703 14.5407 1.80497 14.6667 1.9703 14.6667H14.0296C14.195 14.6667 14.3296 14.5407 14.333 14.3833C14.3426 13.8773 14.201 13.4727 13.9353 13.1517C13.675 12.837 13.314 12.6257 12.9263 12.4693C12.539 12.313 12.1023 12.2027 11.6736 12.103L11.4076 12.042C11.064 11.9633 10.7286 11.8867 10.4086 11.792C10.0453 11.6843 9.84197 11.432 9.74497 11.076C9.66009 10.7599 9.59265 10.4395 9.54297 10.116C10.4556 9.84133 11.4256 9.34766 12.4333 8.55933L12.4286 8.55466C11.9556 8.10199 11.069 7.25333 11.006 5.23866C11.006 2.46466 9.2373 0.026659 6.4083 2.12333Z" fill="black"/>
</svg>
