<svg width="328" height="241" viewBox="0 0 328 241" fill="none" xmlns="http://www.w3.org/2000/svg">
<g clip-path="url(#clip0_125_6294)">
<path fill-rule="evenodd" clip-rule="evenodd" d="M152.31 12.2299C152.31 9.12964 153.542 6.15635 155.734 3.96412C157.926 1.77189 160.9 0.540314 164 0.540314C167.1 0.540314 170.074 1.77189 172.266 3.96412C174.458 6.15635 175.69 9.12964 175.69 12.2299C175.69 15.3302 174.458 18.3035 172.266 20.4957C170.074 22.6879 167.1 23.9195 164 23.9195C160.9 23.9195 157.926 22.6879 155.734 20.4957C153.542 18.3035 152.31 15.3302 152.31 12.2299ZM141.005 31.3776C143.384 29.1187 146.54 27.8593 149.821 27.8593C153.102 27.8593 156.258 29.1187 158.637 31.3776L158.688 31.4281L164 36.7402L169.317 31.4281L169.368 31.3776C171.747 29.1217 174.9 27.8641 178.179 27.8641C181.458 27.8641 184.611 29.1217 186.99 31.3776C188.172 32.4984 189.113 33.8478 189.757 35.3438C190.401 36.8398 190.734 38.4511 190.735 40.0797C190.737 41.7084 190.407 43.3203 189.765 44.8174C189.124 46.3145 188.185 47.6656 187.006 48.7883L165.757 69.4408C165.286 69.8989 164.655 70.1551 163.997 70.1551C163.34 70.1551 162.709 69.8989 162.238 69.4408L140.994 48.7883C139.815 47.666 138.876 46.3155 138.235 44.819C137.594 43.3226 137.264 41.7114 137.265 40.0834C137.266 38.4553 137.598 36.8445 138.241 35.3488C138.884 33.8531 139.824 32.4987 141.005 31.3776Z" fill="white"/>
</g>
<path d="M113.003 97.8317V83.436H116.047V89.3756H122.226V83.436H125.262V97.8317H122.226V91.885H116.047V97.8317H113.003ZM132.438 98.0426C131.327 98.0426 130.371 97.8176 129.57 97.3678C128.773 96.9132 128.159 96.2712 127.728 95.4418C127.297 94.6077 127.082 93.6212 127.082 92.4825C127.082 91.3719 127.297 90.3972 127.728 89.5584C128.159 88.7196 128.766 88.0659 129.549 87.5973C130.336 87.1287 131.259 86.8944 132.318 86.8944C133.031 86.8944 133.694 87.0092 134.308 87.2388C134.926 87.4637 135.465 87.8035 135.924 88.258C136.388 88.7126 136.749 89.2843 137.007 89.9731C137.264 90.6573 137.393 91.4586 137.393 92.3771V93.1995H128.277V91.3438H134.575C134.575 90.9127 134.481 90.5308 134.294 90.198C134.106 89.8653 133.846 89.6053 133.513 89.4178C133.185 89.2257 132.803 89.1296 132.368 89.1296C131.913 89.1296 131.51 89.2351 131.159 89.4459C130.812 89.6521 130.54 89.9309 130.343 90.2824C130.146 90.6292 130.046 91.0158 130.041 91.4422V93.2065C130.041 93.7407 130.139 94.2023 130.336 94.5913C130.538 94.9802 130.821 95.2801 131.187 95.491C131.552 95.7019 131.986 95.8073 132.487 95.8073C132.82 95.8073 133.124 95.7604 133.401 95.6667C133.677 95.573 133.914 95.4324 134.111 95.245C134.308 95.0575 134.458 94.8279 134.561 94.5561L137.33 94.7389C137.19 95.4043 136.901 95.9854 136.466 96.4821C136.034 96.9741 135.477 97.3584 134.793 97.6349C134.113 97.9067 133.328 98.0426 132.438 98.0426ZM142.228 98.0355C141.539 98.0355 140.926 97.916 140.387 97.6771C139.848 97.4334 139.421 97.0749 139.107 96.6016C138.798 96.1236 138.643 95.5285 138.643 94.8162C138.643 94.2164 138.754 93.7126 138.974 93.3049C139.194 92.8972 139.494 92.5692 139.874 92.3208C140.253 92.0725 140.684 91.885 141.167 91.7585C141.654 91.632 142.165 91.543 142.699 91.4914C143.327 91.4258 143.833 91.3649 144.218 91.3087C144.602 91.2477 144.881 91.1587 145.054 91.0415C145.227 90.9244 145.314 90.751 145.314 90.5214V90.4792C145.314 90.034 145.173 89.6896 144.892 89.4459C144.616 89.2023 144.222 89.0804 143.711 89.0804C143.173 89.0804 142.744 89.1999 142.425 89.4389C142.106 89.6732 141.896 89.9684 141.792 90.3246L139.023 90.0996C139.164 89.4436 139.44 88.8766 139.852 88.3986C140.265 87.9159 140.797 87.5457 141.448 87.288C142.104 87.0256 142.863 86.8944 143.725 86.8944C144.325 86.8944 144.899 86.9646 145.448 87.1052C146.001 87.2458 146.49 87.4637 146.917 87.7589C147.348 88.0542 147.688 88.4337 147.936 88.8977C148.184 89.3569 148.308 89.9075 148.308 90.5495V97.8317H145.469V96.3345H145.384C145.211 96.6719 144.979 96.9695 144.688 97.2272C144.398 97.4802 144.049 97.6794 143.641 97.8247C143.233 97.9652 142.763 98.0355 142.228 98.0355ZM143.086 95.969C143.526 95.969 143.915 95.8823 144.253 95.7089C144.59 95.5308 144.855 95.2918 145.047 94.9919C145.239 94.692 145.335 94.3523 145.335 93.9727V92.8269C145.241 92.8879 145.113 92.9441 144.949 92.9956C144.789 93.0425 144.609 93.087 144.407 93.1292C144.206 93.1667 144.004 93.2018 143.803 93.2346C143.601 93.2628 143.419 93.2885 143.255 93.312C142.903 93.3635 142.596 93.4455 142.334 93.558C142.071 93.6704 141.867 93.8227 141.722 94.0149C141.577 94.2023 141.504 94.4366 141.504 94.7178C141.504 95.1255 141.652 95.4371 141.947 95.6527C142.247 95.8635 142.627 95.969 143.086 95.969ZM153.428 83.436V97.8317H150.434V83.436H153.428ZM161.372 87.0349V89.2843H154.87V87.0349H161.372ZM156.346 84.4482H159.34V94.5139C159.34 94.7904 159.382 95.006 159.467 95.1606C159.551 95.3106 159.668 95.416 159.818 95.4769C159.973 95.5379 160.151 95.5683 160.352 95.5683C160.493 95.5683 160.634 95.5566 160.774 95.5332C160.915 95.505 161.023 95.484 161.098 95.4699L161.568 97.6981C161.419 97.745 161.208 97.7989 160.936 97.8598C160.664 97.9254 160.334 97.9652 159.945 97.9793C159.223 98.0074 158.59 97.9114 158.047 97.6911C157.508 97.4709 157.089 97.1288 156.789 96.6649C156.489 96.2009 156.341 95.6152 156.346 94.9076V84.4482ZM166.351 91.5898V97.8317H163.356V83.436H166.266V88.9398H166.393C166.637 88.3025 167.03 87.8035 167.574 87.4426C168.117 87.0771 168.799 86.8944 169.619 86.8944C170.369 86.8944 171.023 87.0584 171.58 87.3864C172.143 87.7097 172.579 88.176 172.888 88.7852C173.202 89.3897 173.356 90.1137 173.352 90.9572V97.8317H170.357V91.4914C170.362 90.826 170.193 90.3082 169.851 89.938C169.514 89.5678 169.041 89.3827 168.431 89.3827C168.024 89.3827 167.663 89.4694 167.349 89.6427C167.04 89.8161 166.796 90.0692 166.618 90.4019C166.444 90.7299 166.355 91.1259 166.351 91.5898ZM180.389 98.0426C179.283 98.0426 178.331 97.8083 177.535 97.3397C176.743 96.8664 176.134 96.2103 175.707 95.3715C175.285 94.5327 175.074 93.5673 175.074 92.4755C175.074 91.3696 175.288 90.3996 175.714 89.5654C176.145 88.7266 176.757 88.0729 177.549 87.6043C178.341 87.131 179.283 86.8944 180.374 86.8944C181.316 86.8944 182.141 87.0654 182.849 87.4075C183.556 87.7496 184.116 88.2299 184.529 88.8485C184.941 89.467 185.168 90.1934 185.211 91.0275H182.385C182.305 90.4886 182.094 90.0551 181.752 89.7271C181.415 89.3944 180.972 89.228 180.424 89.228C179.96 89.228 179.554 89.3546 179.208 89.6076C178.866 89.856 178.598 90.2191 178.406 90.6971C178.214 91.1751 178.118 91.7538 178.118 92.4333C178.118 93.1222 178.212 93.7079 178.399 94.1906C178.591 94.6733 178.861 95.0411 179.208 95.2942C179.554 95.5472 179.96 95.6737 180.424 95.6737C180.766 95.6737 181.073 95.6035 181.344 95.4629C181.621 95.3223 181.848 95.1184 182.026 94.8513C182.209 94.5795 182.329 94.2539 182.385 93.8743H185.211C185.164 94.699 184.939 95.4254 184.536 96.0533C184.137 96.6766 183.587 97.1639 182.884 97.5154C182.181 97.8668 181.349 98.0426 180.389 98.0426ZM190.009 98.0355C189.32 98.0355 188.706 97.916 188.167 97.6771C187.628 97.4334 187.202 97.0749 186.888 96.6016C186.578 96.1236 186.424 95.5285 186.424 94.8162C186.424 94.2164 186.534 93.7126 186.754 93.3049C186.974 92.8972 187.274 92.5692 187.654 92.3208C188.033 92.0725 188.464 91.885 188.947 91.7585C189.434 91.632 189.945 91.543 190.479 91.4914C191.107 91.4258 191.614 91.3649 191.998 91.3087C192.382 91.2477 192.661 91.1587 192.834 91.0415C193.008 90.9244 193.094 90.751 193.094 90.5214V90.4792C193.094 90.034 192.954 89.6896 192.673 89.4459C192.396 89.2023 192.002 89.0804 191.492 89.0804C190.953 89.0804 190.524 89.1999 190.205 89.4389C189.887 89.6732 189.676 89.9684 189.573 90.3246L186.803 90.0996C186.944 89.4436 187.22 88.8766 187.633 88.3986C188.045 87.9159 188.577 87.5457 189.228 87.288C189.884 87.0256 190.643 86.8944 191.506 86.8944C192.106 86.8944 192.68 86.9646 193.228 87.1052C193.781 87.2458 194.271 87.4637 194.697 87.7589C195.128 88.0542 195.468 88.4337 195.716 88.8977C195.965 89.3569 196.089 89.9075 196.089 90.5495V97.8317H193.249V96.3345H193.165C192.991 96.6719 192.759 96.9695 192.469 97.2272C192.178 97.4802 191.829 97.6794 191.421 97.8247C191.014 97.9652 190.543 98.0355 190.009 98.0355ZM190.866 95.969C191.307 95.969 191.696 95.8823 192.033 95.7089C192.37 95.5308 192.635 95.2918 192.827 94.9919C193.019 94.692 193.115 94.3523 193.115 93.9727V92.8269C193.022 92.8879 192.893 92.9441 192.729 92.9956C192.569 93.0425 192.389 93.087 192.188 93.1292C191.986 93.1667 191.785 93.2018 191.583 93.2346C191.382 93.2628 191.199 93.2885 191.035 93.312C190.683 93.3635 190.376 93.4455 190.114 93.558C189.852 93.6704 189.648 93.8227 189.502 94.0149C189.357 94.2023 189.285 94.4366 189.285 94.7178C189.285 95.1255 189.432 95.4371 189.727 95.6527C190.027 95.8635 190.407 95.969 190.866 95.969ZM198.214 97.8317V87.0349H201.117V88.9187H201.229C201.426 88.2486 201.757 87.7425 202.221 87.4005C202.684 87.0537 203.219 86.8803 203.823 86.8803C203.973 86.8803 204.135 86.8897 204.308 86.9084C204.482 86.9272 204.634 86.9529 204.765 86.9857V89.6427C204.624 89.6006 204.43 89.5631 204.182 89.5303C203.933 89.4975 203.706 89.4811 203.5 89.4811C203.059 89.4811 202.666 89.5771 202.319 89.7693C201.977 89.9567 201.705 90.2191 201.504 90.5565C201.307 90.8939 201.208 91.2829 201.208 91.7234V97.8317H198.214ZM210.533 98.0426C209.423 98.0426 208.467 97.8176 207.665 97.3678C206.869 96.9132 206.255 96.2712 205.824 95.4418C205.392 94.6077 205.177 93.6212 205.177 92.4825C205.177 91.3719 205.392 90.3972 205.824 89.5584C206.255 88.7196 206.862 88.0659 207.644 87.5973C208.431 87.1287 209.355 86.8944 210.414 86.8944C211.126 86.8944 211.789 87.0092 212.403 87.2388C213.021 87.4637 213.56 87.8035 214.02 88.258C214.484 88.7126 214.844 89.2843 215.102 89.9731C215.36 90.6573 215.489 91.4586 215.489 92.3771V93.1995H206.372V91.3438H212.67C212.67 90.9127 212.576 90.5308 212.389 90.198C212.201 89.8653 211.941 89.6053 211.609 89.4178C211.281 89.2257 210.899 89.1296 210.463 89.1296C210.008 89.1296 209.605 89.2351 209.254 89.4459C208.907 89.6521 208.635 89.9309 208.438 90.2824C208.242 90.6292 208.141 91.0158 208.136 91.4422V93.2065C208.136 93.7407 208.235 94.2023 208.431 94.5913C208.633 94.9802 208.916 95.2801 209.282 95.491C209.647 95.7019 210.081 95.8073 210.582 95.8073C210.915 95.8073 211.22 95.7604 211.496 95.6667C211.773 95.573 212.009 95.4324 212.206 95.245C212.403 95.0575 212.553 94.8279 212.656 94.5561L215.425 94.7389C215.285 95.4043 214.997 95.9854 214.561 96.4821C214.13 96.9741 213.572 97.3584 212.888 97.6349C212.208 97.9067 211.423 98.0426 210.533 98.0426Z" fill="white"/>
<path d="M5.136 150.832L0.84 134.032H3.408L6.552 146.356L9.684 134.032H11.952L15.096 146.356L18.24 134.032H20.808L16.536 150.832H13.668L10.824 139.708L7.98 150.832H5.136ZM26.3384 151.144C25.2344 151.144 24.2264 150.86 23.3144 150.292C22.4104 149.724 21.6864 148.964 21.1424 148.012C20.6064 147.052 20.3384 145.992 20.3384 144.832C20.3384 143.952 20.4944 143.132 20.8064 142.372C21.1184 141.604 21.5464 140.932 22.0904 140.356C22.6424 139.772 23.2824 139.316 24.0104 138.988C24.7384 138.66 25.5144 138.496 26.3384 138.496C27.2584 138.496 28.1024 138.688 28.8704 139.072C29.6384 139.448 30.2944 139.972 30.8384 140.644C31.3824 141.308 31.7824 142.076 32.0384 142.948C32.2944 143.812 32.3704 144.732 32.2664 145.708H23.0144C23.1184 146.26 23.3184 146.76 23.6144 147.208C23.9184 147.648 24.3024 147.996 24.7664 148.252C25.2384 148.508 25.7624 148.64 26.3384 148.648C26.9464 148.648 27.4984 148.496 27.9944 148.192C28.4984 147.888 28.9104 147.468 29.2304 146.932L31.7624 147.52C31.2824 148.584 30.5584 149.456 29.5904 150.136C28.6224 150.808 27.5384 151.144 26.3384 151.144ZM22.9304 143.8H29.7464C29.6664 143.224 29.4624 142.704 29.1344 142.24C28.8144 141.768 28.4104 141.396 27.9224 141.124C27.4424 140.844 26.9144 140.704 26.3384 140.704C25.7704 140.704 25.2424 140.84 24.7544 141.112C24.2744 141.384 23.8744 141.756 23.5544 142.228C23.2424 142.692 23.0344 143.216 22.9304 143.8ZM33.8097 150.832V132.832H36.3057V150.832H33.8097ZM46.5688 147.424L48.8008 148.636C48.2568 149.396 47.5648 150.004 46.7248 150.46C45.8928 150.916 44.9888 151.144 44.0128 151.144C42.9088 151.144 41.9008 150.86 40.9888 150.292C40.0848 149.724 39.3608 148.964 38.8168 148.012C38.2808 147.052 38.0128 145.992 38.0128 144.832C38.0128 143.952 38.1688 143.132 38.4808 142.372C38.7928 141.604 39.2208 140.932 39.7648 140.356C40.3168 139.772 40.9568 139.316 41.6848 138.988C42.4128 138.66 43.1888 138.496 44.0128 138.496C44.9888 138.496 45.8928 138.724 46.7248 139.18C47.5648 139.636 48.2568 140.248 48.8008 141.016L46.5688 142.228C46.2328 141.828 45.8408 141.524 45.3928 141.316C44.9448 141.1 44.4848 140.992 44.0128 140.992C43.3568 140.992 42.7608 141.172 42.2248 141.532C41.6968 141.884 41.2768 142.352 40.9648 142.936C40.6608 143.512 40.5088 144.144 40.5088 144.832C40.5088 145.512 40.6648 146.144 40.9768 146.728C41.2888 147.304 41.7088 147.768 42.2368 148.12C42.7728 148.472 43.3648 148.648 44.0128 148.648C44.5088 148.648 44.9808 148.536 45.4288 148.312C45.8768 148.088 46.2568 147.792 46.5688 147.424ZM55.6625 151.144C54.5585 151.144 53.5505 150.86 52.6385 150.292C51.7345 149.724 51.0105 148.964 50.4665 148.012C49.9305 147.052 49.6625 145.992 49.6625 144.832C49.6625 143.952 49.8185 143.132 50.1305 142.372C50.4425 141.604 50.8705 140.932 51.4145 140.356C51.9665 139.772 52.6065 139.316 53.3345 138.988C54.0625 138.66 54.8385 138.496 55.6625 138.496C56.7665 138.496 57.7705 138.78 58.6745 139.348C59.5865 139.916 60.3105 140.68 60.8465 141.64C61.3905 142.6 61.6625 143.664 61.6625 144.832C61.6625 145.704 61.5065 146.52 61.1945 147.28C60.8825 148.04 60.4505 148.712 59.8985 149.296C59.3545 149.872 58.7185 150.324 57.9905 150.652C57.2705 150.98 56.4945 151.144 55.6625 151.144ZM55.6625 148.648C56.3265 148.648 56.9225 148.472 57.4505 148.12C57.9785 147.768 58.3945 147.304 58.6985 146.728C59.0105 146.144 59.1665 145.512 59.1665 144.832C59.1665 144.136 59.0065 143.496 58.6865 142.912C58.3745 142.328 57.9545 141.864 57.4265 141.52C56.8985 141.168 56.3105 140.992 55.6625 140.992C55.0065 140.992 54.4105 141.168 53.8745 141.52C53.3465 141.872 52.9265 142.34 52.6145 142.924C52.3105 143.508 52.1585 144.144 52.1585 144.832C52.1585 145.544 52.3185 146.188 52.6385 146.764C52.9585 147.34 53.3825 147.8 53.9105 148.144C54.4465 148.48 55.0305 148.648 55.6625 148.648ZM63.3212 150.832V138.832H65.8172V140.104C66.2332 139.608 66.7412 139.216 67.3412 138.928C67.9492 138.64 68.6052 138.496 69.3092 138.496C70.1652 138.496 70.9532 138.704 71.6732 139.12C72.3932 139.528 72.9652 140.072 73.3892 140.752C73.8132 140.072 74.3772 139.528 75.0812 139.12C75.7932 138.704 76.5772 138.496 77.4332 138.496C78.3212 138.496 79.1292 138.712 79.8572 139.144C80.5852 139.576 81.1652 140.156 81.5972 140.884C82.0292 141.612 82.2452 142.42 82.2452 143.308V150.832H79.7492V143.944C79.7492 143.416 79.6212 142.932 79.3652 142.492C79.1092 142.052 78.7652 141.696 78.3332 141.424C77.9012 141.152 77.4212 141.016 76.8932 141.016C76.3652 141.016 75.8852 141.144 75.4532 141.4C75.0212 141.656 74.6772 142.004 74.4212 142.444C74.1652 142.884 74.0372 143.384 74.0372 143.944V150.832H71.5412V143.944C71.5412 143.384 71.4132 142.884 71.1572 142.444C70.9012 142.004 70.5532 141.656 70.1132 141.4C69.6812 141.144 69.2012 141.016 68.6732 141.016C68.1532 141.016 67.6732 141.152 67.2332 141.424C66.8012 141.696 66.4572 142.052 66.2012 142.492C65.9452 142.932 65.8172 143.416 65.8172 143.944V150.832H63.3212ZM89.415 151.144C88.311 151.144 87.303 150.86 86.391 150.292C85.487 149.724 84.763 148.964 84.219 148.012C83.683 147.052 83.415 145.992 83.415 144.832C83.415 143.952 83.571 143.132 83.883 142.372C84.195 141.604 84.623 140.932 85.167 140.356C85.719 139.772 86.359 139.316 87.087 138.988C87.815 138.66 88.591 138.496 89.415 138.496C90.335 138.496 91.179 138.688 91.947 139.072C92.715 139.448 93.371 139.972 93.915 140.644C94.459 141.308 94.859 142.076 95.115 142.948C95.371 143.812 95.447 144.732 95.343 145.708H86.091C86.195 146.26 86.395 146.76 86.691 147.208C86.995 147.648 87.379 147.996 87.843 148.252C88.315 148.508 88.839 148.64 89.415 148.648C90.023 148.648 90.575 148.496 91.071 148.192C91.575 147.888 91.987 147.468 92.307 146.932L94.839 147.52C94.359 148.584 93.635 149.456 92.667 150.136C91.699 150.808 90.615 151.144 89.415 151.144ZM86.007 143.8H92.823C92.743 143.224 92.539 142.704 92.211 142.24C91.891 141.768 91.487 141.396 90.999 141.124C90.519 140.844 89.991 140.704 89.415 140.704C88.847 140.704 88.319 140.84 87.831 141.112C87.351 141.384 86.951 141.756 86.631 142.228C86.319 142.692 86.111 143.216 86.007 143.8ZM109.083 141.328H106.563L106.551 150.832H104.055L104.067 141.328H102.159V138.832H104.067L104.055 135.064H106.551L106.563 138.832H109.083V141.328ZM115.95 151.144C114.846 151.144 113.838 150.86 112.926 150.292C112.022 149.724 111.298 148.964 110.754 148.012C110.218 147.052 109.95 145.992 109.95 144.832C109.95 143.952 110.106 143.132 110.418 142.372C110.73 141.604 111.158 140.932 111.702 140.356C112.254 139.772 112.894 139.316 113.622 138.988C114.35 138.66 115.126 138.496 115.95 138.496C117.054 138.496 118.058 138.78 118.962 139.348C119.874 139.916 120.598 140.68 121.134 141.64C121.678 142.6 121.95 143.664 121.95 144.832C121.95 145.704 121.794 146.52 121.482 147.28C121.17 148.04 120.738 148.712 120.186 149.296C119.642 149.872 119.006 150.324 118.278 150.652C117.558 150.98 116.782 151.144 115.95 151.144ZM115.95 148.648C116.614 148.648 117.21 148.472 117.738 148.12C118.266 147.768 118.682 147.304 118.986 146.728C119.298 146.144 119.454 145.512 119.454 144.832C119.454 144.136 119.294 143.496 118.974 142.912C118.662 142.328 118.242 141.864 117.714 141.52C117.186 141.168 116.598 140.992 115.95 140.992C115.294 140.992 114.698 141.168 114.162 141.52C113.634 141.872 113.214 142.34 112.902 142.924C112.598 143.508 112.446 144.144 112.446 144.832C112.446 145.544 112.606 146.188 112.926 146.764C113.246 147.34 113.67 147.8 114.198 148.144C114.734 148.48 115.318 148.648 115.95 148.648ZM139.601 134.032H142.541L136.805 143.248V150.832H134.309V143.248L128.585 134.032H131.525L135.557 140.524L139.601 134.032ZM147.383 151.144C146.279 151.144 145.271 150.86 144.359 150.292C143.455 149.724 142.731 148.964 142.187 148.012C141.651 147.052 141.383 145.992 141.383 144.832C141.383 143.952 141.539 143.132 141.851 142.372C142.163 141.604 142.591 140.932 143.135 140.356C143.687 139.772 144.327 139.316 145.055 138.988C145.783 138.66 146.559 138.496 147.383 138.496C148.487 138.496 149.491 138.78 150.395 139.348C151.307 139.916 152.031 140.68 152.567 141.64C153.111 142.6 153.383 143.664 153.383 144.832C153.383 145.704 153.227 146.52 152.915 147.28C152.603 148.04 152.171 148.712 151.619 149.296C151.075 149.872 150.439 150.324 149.711 150.652C148.991 150.98 148.215 151.144 147.383 151.144ZM147.383 148.648C148.047 148.648 148.643 148.472 149.171 148.12C149.699 147.768 150.115 147.304 150.419 146.728C150.731 146.144 150.887 145.512 150.887 144.832C150.887 144.136 150.727 143.496 150.407 142.912C150.095 142.328 149.675 141.864 149.147 141.52C148.619 141.168 148.031 140.992 147.383 140.992C146.727 140.992 146.131 141.168 145.595 141.52C145.067 141.872 144.647 142.34 144.335 142.924C144.031 143.508 143.879 144.144 143.879 144.832C143.879 145.544 144.039 146.188 144.359 146.764C144.679 147.34 145.103 147.8 145.631 148.144C146.167 148.48 146.751 148.648 147.383 148.648ZM154.328 146.332V138.832H156.824V145.72C156.824 146.256 156.956 146.744 157.22 147.184C157.484 147.624 157.836 147.976 158.276 148.24C158.716 148.496 159.2 148.624 159.728 148.624C160.264 148.624 160.748 148.496 161.18 148.24C161.62 147.976 161.968 147.624 162.224 147.184C162.488 146.744 162.62 146.256 162.62 145.72V138.832H165.116L165.128 150.832H162.632L162.62 149.536C162.212 150.032 161.704 150.424 161.096 150.712C160.488 151 159.836 151.144 159.14 151.144C158.252 151.144 157.444 150.928 156.716 150.496C155.988 150.064 155.408 149.484 154.976 148.756C154.544 148.028 154.328 147.22 154.328 146.332ZM167.254 150.832V138.832H169.75V140.104C170.166 139.608 170.678 139.216 171.286 138.928C171.894 138.64 172.55 138.496 173.254 138.496C173.702 138.496 174.146 138.556 174.586 138.676L173.59 141.196C173.278 141.076 172.966 141.016 172.654 141.016C172.126 141.016 171.642 141.148 171.202 141.412C170.762 141.668 170.41 142.016 170.146 142.456C169.882 142.896 169.75 143.384 169.75 143.92V150.832H167.254ZM191.371 134.032H194.299V150.832H191.371V143.296H184.411V150.832H181.483V134.032H184.411V140.368H191.371V134.032ZM201.999 151.144C200.895 151.144 199.887 150.86 198.975 150.292C198.071 149.724 197.347 148.96 196.803 148C196.267 147.04 195.999 145.98 195.999 144.82C195.999 143.948 196.155 143.132 196.467 142.372C196.779 141.604 197.207 140.932 197.751 140.356C198.303 139.772 198.943 139.316 199.671 138.988C200.399 138.66 201.175 138.496 201.999 138.496C202.935 138.496 203.791 138.696 204.567 139.096C205.351 139.488 206.015 140.028 206.559 140.716C207.103 141.404 207.499 142.188 207.747 143.068C207.995 143.948 208.051 144.868 207.915 145.828H199.143C199.255 146.276 199.439 146.68 199.695 147.04C199.951 147.392 200.275 147.676 200.667 147.892C201.059 148.1 201.503 148.208 201.999 148.216C202.511 148.224 202.975 148.104 203.391 147.856C203.815 147.6 204.167 147.256 204.447 146.824L207.435 147.52C206.947 148.584 206.219 149.456 205.251 150.136C204.283 150.808 203.199 151.144 201.999 151.144ZM199.047 143.632H204.951C204.863 143.152 204.675 142.72 204.387 142.336C204.107 141.944 203.759 141.632 203.343 141.4C202.927 141.168 202.479 141.052 201.999 141.052C201.519 141.052 201.075 141.168 200.667 141.4C200.259 141.624 199.911 141.932 199.623 142.324C199.343 142.708 199.151 143.144 199.047 143.632ZM218.682 138.832H221.61V150.832H218.682L218.55 149.344C218.222 149.88 217.786 150.316 217.242 150.652C216.706 150.98 216.07 151.144 215.334 151.144C214.446 151.144 213.614 150.976 212.838 150.64C212.062 150.304 211.378 149.84 210.786 149.248C210.202 148.656 209.742 147.972 209.406 147.196C209.078 146.42 208.914 145.588 208.914 144.7C208.914 143.844 209.07 143.04 209.382 142.288C209.702 141.536 210.146 140.876 210.714 140.308C211.282 139.74 211.938 139.296 212.682 138.976C213.426 138.656 214.226 138.496 215.082 138.496C215.874 138.496 216.582 138.672 217.206 139.024C217.838 139.376 218.374 139.824 218.814 140.368L218.682 138.832ZM215.262 148.324C215.886 148.324 216.438 148.168 216.918 147.856C217.398 147.544 217.774 147.124 218.046 146.596C218.318 146.06 218.454 145.472 218.454 144.832C218.454 144.184 218.318 143.596 218.046 143.068C217.774 142.532 217.394 142.108 216.906 141.796C216.426 141.484 215.878 141.328 215.262 141.328C214.646 141.328 214.082 141.488 213.57 141.808C213.066 142.12 212.662 142.54 212.358 143.068C212.062 143.596 211.914 144.184 211.914 144.832C211.914 145.48 212.066 146.068 212.37 146.596C212.674 147.124 213.078 147.544 213.582 147.856C214.094 148.168 214.654 148.324 215.262 148.324ZM223.792 150.832V132.832H226.72V150.832H223.792ZM235.756 141.76H233.428V150.832H230.5V141.76H228.724V138.832H230.5V135.064H233.428V138.832H235.756V141.76ZM248.638 143.248V150.832H245.71V144.016C245.71 143.544 245.594 143.116 245.362 142.732C245.13 142.34 244.818 142.032 244.426 141.808C244.042 141.576 243.614 141.46 243.142 141.46C242.67 141.46 242.238 141.576 241.846 141.808C241.462 142.032 241.154 142.34 240.922 142.732C240.698 143.116 240.586 143.544 240.586 144.016V150.832H237.658L237.646 132.832H240.574L240.586 139.9C240.994 139.468 241.482 139.128 242.05 138.88C242.618 138.624 243.23 138.496 243.886 138.496C244.758 138.496 245.554 138.712 246.274 139.144C246.994 139.568 247.566 140.14 247.99 140.86C248.422 141.572 248.638 142.368 248.638 143.248ZM9.216 179.144C8.08 179.144 7.012 178.92 6.012 178.472C5.012 178.016 4.132 177.388 3.372 176.588C2.62 175.788 2.028 174.864 1.596 173.816C1.172 172.76 0.96 171.632 0.96 170.432C0.96 169.224 1.172 168.096 1.596 167.048C2.028 165.992 2.62 165.068 3.372 164.276C4.132 163.476 5.012 162.852 6.012 162.404C7.012 161.948 8.08 161.72 9.216 161.72C10.576 161.72 11.828 162.036 12.972 162.668C14.116 163.292 15.064 164.128 15.816 165.176L13.2 166.58C12.728 165.996 12.14 165.528 11.436 165.176C10.74 164.824 10 164.648 9.216 164.648C8.48 164.648 7.788 164.8 7.14 165.104C6.492 165.4 5.924 165.816 5.436 166.352C4.948 166.88 4.568 167.496 4.296 168.2C4.024 168.896 3.888 169.64 3.888 170.432C3.888 171.232 4.024 171.98 4.296 172.676C4.576 173.372 4.96 173.988 5.448 174.524C5.936 175.052 6.5 175.468 7.14 175.772C7.788 176.068 8.48 176.216 9.216 176.216C10.016 176.216 10.76 176.04 11.448 175.688C12.144 175.328 12.728 174.856 13.2 174.272L15.816 175.688C15.064 176.728 14.116 177.564 12.972 178.196C11.828 178.828 10.576 179.144 9.216 179.144ZM22.4478 179.144C21.3438 179.144 20.3358 178.86 19.4238 178.292C18.5198 177.724 17.7958 176.964 17.2518 176.012C16.7158 175.052 16.4478 173.992 16.4478 172.832C16.4478 171.952 16.6038 171.132 16.9158 170.372C17.2278 169.604 17.6558 168.932 18.1998 168.356C18.7518 167.772 19.3918 167.316 20.1198 166.988C20.8478 166.66 21.6238 166.496 22.4478 166.496C23.5518 166.496 24.5558 166.78 25.4598 167.348C26.3718 167.916 27.0958 168.68 27.6318 169.64C28.1758 170.6 28.4478 171.664 28.4478 172.832C28.4478 173.704 28.2918 174.52 27.9798 175.28C27.6678 176.04 27.2358 176.712 26.6838 177.296C26.1398 177.872 25.5038 178.324 24.7758 178.652C24.0558 178.98 23.2798 179.144 22.4478 179.144ZM22.4478 176.216C23.0318 176.216 23.5558 176.06 24.0198 175.748C24.4838 175.436 24.8478 175.024 25.1118 174.512C25.3838 174 25.5198 173.44 25.5198 172.832C25.5198 172.208 25.3798 171.64 25.0998 171.128C24.8278 170.608 24.4558 170.196 23.9838 169.892C23.5198 169.58 23.0078 169.424 22.4478 169.424C21.8718 169.424 21.3518 169.58 20.8878 169.892C20.4238 170.204 20.0558 170.62 19.7838 171.14C19.5118 171.66 19.3758 172.224 19.3758 172.832C19.3758 173.464 19.5158 174.036 19.7958 174.548C20.0758 175.06 20.4478 175.468 20.9118 175.772C21.3838 176.068 21.8958 176.216 22.4478 176.216ZM30.0363 178.832V166.832H32.9643V167.9C33.3723 167.468 33.8603 167.128 34.4283 166.88C34.9963 166.624 35.6083 166.496 36.2643 166.496C37.0963 166.496 37.8603 166.692 38.5563 167.084C39.2603 167.476 39.8203 168 40.2363 168.656C40.6603 168 41.2203 167.476 41.9163 167.084C42.6123 166.692 43.3763 166.496 44.2083 166.496C45.0883 166.496 45.8843 166.712 46.5963 167.144C47.3163 167.568 47.8883 168.14 48.3123 168.86C48.7443 169.572 48.9603 170.368 48.9603 171.248V178.832H46.0323V172.028C46.0323 171.564 45.9163 171.14 45.6843 170.756C45.4603 170.364 45.1563 170.052 44.7723 169.82C44.3963 169.58 43.9723 169.46 43.5003 169.46C43.0283 169.46 42.6003 169.576 42.2163 169.808C41.8403 170.032 41.5363 170.336 41.3043 170.72C41.0723 171.104 40.9563 171.54 40.9563 172.028V178.832H38.0283V172.028C38.0283 171.54 37.9163 171.104 37.6923 170.72C37.4683 170.336 37.1643 170.032 36.7803 169.808C36.3963 169.576 35.9683 169.46 35.4963 169.46C35.0323 169.46 34.6083 169.58 34.2243 169.82C33.8403 170.052 33.5323 170.364 33.3003 170.756C33.0763 171.14 32.9643 171.564 32.9643 172.028V178.832H30.0363ZM54.0124 184.832H51.0844V166.832H54.0124V168.356C54.4044 167.812 54.8844 167.372 55.4524 167.036C56.0284 166.692 56.7004 166.52 57.4684 166.52C58.3484 166.52 59.1684 166.684 59.9284 167.012C60.6884 167.34 61.3564 167.796 61.9324 168.38C62.5164 168.956 62.9684 169.624 63.2884 170.384C63.6164 171.144 63.7804 171.96 63.7804 172.832C63.7804 173.704 63.6164 174.524 63.2884 175.292C62.9684 176.06 62.5164 176.736 61.9324 177.32C61.3564 177.896 60.6884 178.348 59.9284 178.676C59.1684 179.004 58.3484 179.168 57.4684 179.168C56.7004 179.168 56.0284 179 55.4524 178.664C54.8844 178.32 54.4044 177.876 54.0124 177.332V184.832ZM57.4324 169.34C56.8244 169.34 56.2804 169.5 55.8004 169.82C55.3204 170.132 54.9444 170.552 54.6724 171.08C54.4004 171.608 54.2644 172.192 54.2644 172.832C54.2644 173.472 54.4004 174.06 54.6724 174.596C54.9444 175.124 55.3204 175.548 55.8004 175.868C56.2804 176.18 56.8244 176.336 57.4324 176.336C58.0484 176.336 58.6124 176.18 59.1244 175.868C59.6364 175.556 60.0444 175.136 60.3484 174.608C60.6524 174.072 60.8044 173.48 60.8044 172.832C60.8044 172.192 60.6524 171.608 60.3484 171.08C60.0444 170.552 59.6364 170.132 59.1244 169.82C58.6204 169.5 58.0564 169.34 57.4324 169.34ZM74.4774 166.832H77.4054V178.832H74.4774L74.3454 177.344C74.0174 177.88 73.5814 178.316 73.0374 178.652C72.5014 178.98 71.8654 179.144 71.1294 179.144C70.2414 179.144 69.4094 178.976 68.6334 178.64C67.8574 178.304 67.1734 177.84 66.5814 177.248C65.9974 176.656 65.5374 175.972 65.2014 175.196C64.8734 174.42 64.7094 173.588 64.7094 172.7C64.7094 171.844 64.8654 171.04 65.1774 170.288C65.4974 169.536 65.9414 168.876 66.5094 168.308C67.0774 167.74 67.7334 167.296 68.4774 166.976C69.2214 166.656 70.0214 166.496 70.8774 166.496C71.6694 166.496 72.3774 166.672 73.0014 167.024C73.6334 167.376 74.1694 167.824 74.6094 168.368L74.4774 166.832ZM71.0574 176.324C71.6814 176.324 72.2334 176.168 72.7134 175.856C73.1934 175.544 73.5694 175.124 73.8414 174.596C74.1134 174.06 74.2494 173.472 74.2494 172.832C74.2494 172.184 74.1134 171.596 73.8414 171.068C73.5694 170.532 73.1894 170.108 72.7014 169.796C72.2214 169.484 71.6734 169.328 71.0574 169.328C70.4414 169.328 69.8774 169.488 69.3654 169.808C68.8614 170.12 68.4574 170.54 68.1534 171.068C67.8574 171.596 67.7094 172.184 67.7094 172.832C67.7094 173.48 67.8614 174.068 68.1654 174.596C68.4694 175.124 68.8734 175.544 69.3774 175.856C69.8894 176.168 70.4494 176.324 71.0574 176.324ZM90.5086 171.248V178.832H87.5806V172.016C87.5806 171.544 87.4646 171.116 87.2326 170.732C87.0006 170.34 86.6886 170.032 86.2966 169.808C85.9126 169.576 85.4846 169.46 85.0126 169.46C84.5406 169.46 84.1086 169.576 83.7166 169.808C83.3326 170.032 83.0246 170.34 82.7926 170.732C82.5686 171.116 82.4566 171.544 82.4566 172.016V178.832H79.5286L79.5166 166.832H82.4446L82.4566 167.9C82.8646 167.468 83.3526 167.128 83.9206 166.88C84.4886 166.624 85.1006 166.496 85.7566 166.496C86.6286 166.496 87.4246 166.712 88.1446 167.144C88.8646 167.568 89.4366 168.14 89.8606 168.86C90.2926 169.572 90.5086 170.368 90.5086 171.248ZM92.6194 166.832H95.5474V178.832H92.6194V166.832ZM94.1074 165.284C93.6754 165.284 93.3114 165.144 93.0154 164.864C92.7194 164.576 92.5714 164.216 92.5714 163.784C92.5714 163.36 92.7194 163.004 93.0154 162.716C93.3114 162.428 93.6714 162.284 94.0954 162.284C94.5194 162.284 94.8754 162.428 95.1634 162.716C95.4594 163.004 95.6074 163.36 95.6074 163.784C95.6074 164.216 95.4634 164.576 95.1754 164.864C94.8874 165.144 94.5314 165.284 94.1074 165.284ZM103.151 179.144C102.047 179.144 101.039 178.86 100.127 178.292C99.2226 177.724 98.4986 176.964 97.9546 176.012C97.4186 175.052 97.1506 173.992 97.1506 172.832C97.1506 171.952 97.3066 171.132 97.6186 170.372C97.9306 169.604 98.3586 168.932 98.9026 168.356C99.4546 167.772 100.095 167.316 100.823 166.988C101.551 166.66 102.327 166.496 103.151 166.496C104.255 166.496 105.259 166.78 106.163 167.348C107.075 167.916 107.799 168.68 108.335 169.64C108.879 170.6 109.151 171.664 109.151 172.832C109.151 173.704 108.995 174.52 108.683 175.28C108.371 176.04 107.939 176.712 107.387 177.296C106.843 177.872 106.207 178.324 105.479 178.652C104.759 178.98 103.983 179.144 103.151 179.144ZM103.151 176.216C103.735 176.216 104.259 176.06 104.723 175.748C105.187 175.436 105.551 175.024 105.815 174.512C106.087 174 106.223 173.44 106.223 172.832C106.223 172.208 106.083 171.64 105.803 171.128C105.531 170.608 105.159 170.196 104.687 169.892C104.223 169.58 103.711 169.424 103.151 169.424C102.575 169.424 102.055 169.58 101.591 169.892C101.127 170.204 100.759 170.62 100.487 171.14C100.215 171.66 100.079 172.224 100.079 172.832C100.079 173.464 100.219 174.036 100.499 174.548C100.779 175.06 101.151 175.468 101.615 175.772C102.087 176.068 102.599 176.216 103.151 176.216ZM121.731 171.248V178.832H118.803V172.016C118.803 171.544 118.687 171.116 118.455 170.732C118.223 170.34 117.911 170.032 117.519 169.808C117.135 169.576 116.707 169.46 116.235 169.46C115.763 169.46 115.331 169.576 114.939 169.808C114.555 170.032 114.247 170.34 114.015 170.732C113.791 171.116 113.679 171.544 113.679 172.016V178.832H110.751L110.739 166.832H113.667L113.679 167.9C114.087 167.468 114.575 167.128 115.143 166.88C115.711 166.624 116.323 166.496 116.979 166.496C117.851 166.496 118.647 166.712 119.367 167.144C120.087 167.568 120.659 168.14 121.083 168.86C121.515 169.572 121.731 170.368 121.731 171.248Z" fill="white"/>
<path d="M0.84 209.832V200.032H6.853V201.208H2.016V203.994H5.978V205.17H2.016V208.656H6.853V209.832H0.84ZM7.41739 209.832L9.97939 206.318L7.43139 202.818H8.88039L10.7074 205.31L12.5274 202.818H13.9764L11.4284 206.318L13.9904 209.832H12.5414L10.7074 207.312L8.86639 209.832H7.41739ZM16.0726 213.332H14.8966V202.832H16.0726V204.029C16.3106 203.618 16.6279 203.287 17.0246 203.035C17.4212 202.778 17.8926 202.65 18.4386 202.65C18.9472 202.65 19.4232 202.745 19.8666 202.937C20.3146 203.128 20.7066 203.394 21.0426 203.735C21.3786 204.071 21.6422 204.46 21.8336 204.904C22.0249 205.347 22.1206 205.823 22.1206 206.332C22.1206 206.84 22.0249 207.319 21.8336 207.767C21.6422 208.215 21.3786 208.609 21.0426 208.95C20.7066 209.286 20.3146 209.549 19.8666 209.741C19.4232 209.932 18.9472 210.028 18.4386 210.028C17.8926 210.028 17.4212 209.902 17.0246 209.65C16.6279 209.393 16.3106 209.059 16.0726 208.649V213.332ZM18.4246 203.791C17.9719 203.791 17.5752 203.905 17.2346 204.134C16.8939 204.362 16.6302 204.668 16.4436 205.051C16.2616 205.433 16.1706 205.86 16.1706 206.332C16.1706 206.798 16.2616 207.225 16.4436 207.613C16.6302 208 16.8916 208.308 17.2276 208.537C17.5682 208.765 17.9672 208.88 18.4246 208.88C18.8772 208.88 19.2926 208.768 19.6706 208.544C20.0486 208.315 20.3519 208.009 20.5806 207.627C20.8092 207.239 20.9236 206.808 20.9236 206.332C20.9236 205.865 20.8116 205.44 20.5876 205.058C20.3636 204.67 20.0626 204.362 19.6846 204.134C19.3066 203.905 18.8866 203.791 18.4246 203.791ZM22.9161 209.832V199.332H24.0921V209.832H22.9161ZM28.4784 210.014C27.8344 210.014 27.2464 209.848 26.7144 209.517C26.1871 209.185 25.7648 208.742 25.4474 208.187C25.1348 207.627 24.9784 207.008 24.9784 206.332C24.9784 205.818 25.0694 205.34 25.2514 204.897C25.4334 204.449 25.6831 204.057 26.0004 203.721C26.3224 203.38 26.6958 203.114 27.1204 202.923C27.5451 202.731 27.9978 202.636 28.4784 202.636C29.1224 202.636 29.7081 202.801 30.2354 203.133C30.7674 203.464 31.1898 203.91 31.5024 204.47C31.8198 205.03 31.9784 205.65 31.9784 206.332C31.9784 206.84 31.8874 207.316 31.7054 207.76C31.5234 208.203 31.2714 208.595 30.9494 208.936C30.6321 209.272 30.2611 209.535 29.8364 209.727C29.4164 209.918 28.9638 210.014 28.4784 210.014ZM28.4784 208.838C28.9171 208.838 29.3114 208.723 29.6614 208.495C30.0161 208.261 30.2938 207.956 30.4944 207.578C30.6998 207.195 30.8024 206.78 30.8024 206.332C30.8024 205.874 30.6974 205.454 30.4874 205.072C30.2821 204.689 30.0044 204.383 29.6544 204.155C29.3044 203.926 28.9124 203.812 28.4784 203.812C28.0398 203.812 27.6454 203.928 27.2954 204.162C26.9454 204.39 26.6678 204.696 26.4624 205.079C26.2571 205.461 26.1544 205.879 26.1544 206.332C26.1544 206.798 26.2594 207.223 26.4694 207.606C26.6794 207.984 26.9618 208.285 27.3164 208.509C27.6711 208.728 28.0584 208.838 28.4784 208.838ZM32.8301 209.832V202.832H34.0061V203.707C34.2534 203.38 34.5661 203.121 34.9441 202.93C35.3221 202.734 35.7327 202.636 36.1761 202.636C36.4467 202.636 36.7081 202.671 36.9601 202.741L36.4841 203.917C36.2927 203.856 36.1061 203.826 35.9241 203.826C35.5741 203.826 35.2521 203.912 34.9581 204.085C34.6687 204.253 34.4377 204.481 34.2651 204.771C34.0924 205.06 34.0061 205.382 34.0061 205.737V209.832H32.8301ZM40.2381 210.014C39.5941 210.014 39.0061 209.848 38.4741 209.517C37.9468 209.185 37.5245 208.742 37.2071 208.187C36.8945 207.627 36.7381 207.008 36.7381 206.332C36.7381 205.818 36.8291 205.34 37.0111 204.897C37.1931 204.449 37.4428 204.057 37.7601 203.721C38.0821 203.38 38.4555 203.114 38.8801 202.923C39.3048 202.731 39.7575 202.636 40.2381 202.636C40.7655 202.636 41.2485 202.743 41.6871 202.958C42.1305 203.168 42.5085 203.462 42.8211 203.84C43.1385 204.218 43.3741 204.656 43.5281 205.156C43.6868 205.655 43.7451 206.189 43.7031 206.759H37.9911C38.0471 207.155 38.1778 207.51 38.3831 207.823C38.5885 208.131 38.8498 208.376 39.1671 208.558C39.4891 208.74 39.8461 208.833 40.2381 208.838C40.6581 208.838 41.0385 208.73 41.3791 208.516C41.7198 208.296 41.9951 207.998 42.2051 207.62L43.4021 207.9C43.1221 208.52 42.6998 209.029 42.1351 209.426C41.5705 209.818 40.9381 210.014 40.2381 210.014ZM37.9561 205.835H42.5201C42.4828 205.443 42.3568 205.086 42.1421 204.764C41.9275 204.437 41.6545 204.176 41.3231 203.98C40.9918 203.784 40.6301 203.686 40.2381 203.686C39.8461 203.686 39.4868 203.781 39.1601 203.973C38.8335 204.164 38.5628 204.423 38.3481 204.75C38.1381 205.072 38.0075 205.433 37.9561 205.835ZM53.3564 202.832H54.5324V209.832H53.3564L53.3074 208.649C53.088 209.055 52.7847 209.384 52.3974 209.636C52.0147 209.888 51.5574 210.014 51.0254 210.014C50.512 210.014 50.0314 209.918 49.5834 209.727C49.1354 209.531 48.7387 209.262 48.3934 208.922C48.0527 208.576 47.7867 208.18 47.5954 207.732C47.404 207.284 47.3084 206.801 47.3084 206.283C47.3084 205.783 47.4017 205.312 47.5884 204.869C47.775 204.425 48.034 204.038 48.3654 203.707C48.7014 203.371 49.0887 203.109 49.5274 202.923C49.966 202.731 50.4374 202.636 50.9414 202.636C51.492 202.636 51.975 202.766 52.3904 203.028C52.8057 203.284 53.1417 203.618 53.3984 204.029L53.3564 202.832ZM51.0044 208.873C51.4664 208.873 51.8654 208.761 52.2014 208.537C52.542 208.308 52.8034 208 52.9854 207.613C53.172 207.225 53.2654 206.798 53.2654 206.332C53.2654 205.856 53.172 205.426 52.9854 205.044C52.7987 204.656 52.535 204.351 52.1944 204.127C51.8584 203.898 51.4617 203.784 51.0044 203.784C50.5424 203.784 50.1224 203.898 49.7444 204.127C49.3664 204.355 49.0654 204.663 48.8414 205.051C48.622 205.433 48.5124 205.86 48.5124 206.332C48.5124 206.803 48.6267 207.232 48.8554 207.62C49.084 208.002 49.3874 208.308 49.7654 208.537C50.1434 208.761 50.5564 208.873 51.0044 208.873ZM58.6814 209.832V200.032H62.1254C62.6481 200.032 63.1194 200.16 63.5394 200.417C63.9641 200.673 64.3001 201.021 64.5474 201.46C64.7994 201.894 64.9254 202.379 64.9254 202.916C64.9254 203.387 64.8321 203.816 64.6454 204.204C64.4588 204.591 64.2021 204.915 63.8754 205.177C63.5534 205.433 63.1871 205.611 62.7764 205.709L65.1564 209.832H63.7984L61.4604 205.807H59.8574V209.832H58.6814ZM59.8574 204.631H62.0064C62.3238 204.631 62.6154 204.554 62.8814 204.4C63.1474 204.241 63.3574 204.029 63.5114 203.763C63.6701 203.492 63.7494 203.189 63.7494 202.853C63.7494 202.512 63.6701 202.209 63.5114 201.943C63.3574 201.672 63.1474 201.46 62.8814 201.306C62.6154 201.147 62.3238 201.068 62.0064 201.068H59.8574V204.631ZM71.6317 202.832H72.8077V209.832H71.6317L71.5827 208.649C71.3633 209.055 71.06 209.384 70.6727 209.636C70.29 209.888 69.8327 210.014 69.3007 210.014C68.7873 210.014 68.3067 209.918 67.8587 209.727C67.4107 209.531 67.014 209.262 66.6687 208.922C66.328 208.576 66.062 208.18 65.8707 207.732C65.6793 207.284 65.5837 206.801 65.5837 206.283C65.5837 205.783 65.677 205.312 65.8637 204.869C66.0503 204.425 66.3093 204.038 66.6407 203.707C66.9767 203.371 67.364 203.109 67.8027 202.923C68.2413 202.731 68.7127 202.636 69.2167 202.636C69.7673 202.636 70.2503 202.766 70.6657 203.028C71.081 203.284 71.417 203.618 71.6737 204.029L71.6317 202.832ZM69.2797 208.873C69.7417 208.873 70.1407 208.761 70.4767 208.537C70.8173 208.308 71.0787 208 71.2607 207.613C71.4473 207.225 71.5407 206.798 71.5407 206.332C71.5407 205.856 71.4473 205.426 71.2607 205.044C71.074 204.656 70.8103 204.351 70.4697 204.127C70.1337 203.898 69.737 203.784 69.2797 203.784C68.8177 203.784 68.3977 203.898 68.0197 204.127C67.6417 204.355 67.3407 204.663 67.1167 205.051C66.8973 205.433 66.7877 205.86 66.7877 206.332C66.7877 206.803 66.902 207.232 67.1307 207.62C67.3593 208.002 67.6627 208.308 68.0407 208.537C68.4187 208.761 68.8317 208.873 69.2797 208.873ZM80.0881 205.478V209.832H78.9121V205.737C78.9121 205.382 78.8258 205.06 78.6531 204.771C78.4804 204.481 78.2494 204.253 77.9601 204.085C77.6708 203.912 77.3488 203.826 76.9941 203.826C76.6441 203.826 76.3221 203.912 76.0281 204.085C75.7388 204.253 75.5078 204.481 75.3351 204.771C75.1624 205.06 75.0761 205.382 75.0761 205.737V209.832H73.9001V202.832H75.0761V203.707C75.3234 203.38 75.6361 203.121 76.0141 202.93C76.3921 202.734 76.8028 202.636 77.2461 202.636C77.7688 202.636 78.2448 202.764 78.6741 203.021C79.1081 203.273 79.4511 203.613 79.7031 204.043C79.9598 204.472 80.0881 204.95 80.0881 205.478ZM86.5116 202.832H87.6876V210.056C87.6876 210.518 87.5873 210.947 87.3866 211.344C87.1906 211.745 86.9246 212.093 86.5886 212.387C86.2526 212.685 85.8699 212.916 85.4406 213.08C85.0113 213.248 84.5633 213.332 84.0966 213.332C83.6113 213.332 83.1423 213.222 82.6896 213.003C82.2369 212.788 81.8403 212.499 81.4996 212.135C81.1636 211.775 80.9209 211.372 80.7716 210.924L81.8496 210.434C81.9383 210.756 82.0969 211.045 82.3256 211.302C82.5589 211.563 82.8296 211.768 83.1376 211.918C83.4503 212.072 83.7699 212.149 84.0966 212.149C84.4046 212.149 84.7009 212.095 84.9856 211.988C85.2749 211.88 85.5339 211.731 85.7626 211.54C85.9959 211.353 86.1779 211.131 86.3086 210.875C86.4439 210.623 86.5116 210.35 86.5116 210.056V208.663C86.2736 209.064 85.9586 209.391 85.5666 209.643C85.1793 209.89 84.7266 210.014 84.2086 210.014C83.7139 210.014 83.2496 209.918 82.8156 209.727C82.3816 209.535 82.0013 209.272 81.6746 208.936C81.3479 208.595 81.0913 208.203 80.9046 207.76C80.7179 207.316 80.6246 206.84 80.6246 206.332C80.6246 205.823 80.7179 205.347 80.9046 204.904C81.0913 204.456 81.3479 204.064 81.6746 203.728C82.0013 203.387 82.3816 203.121 82.8156 202.93C83.2496 202.738 83.7139 202.643 84.2086 202.643C84.7266 202.643 85.1793 202.766 85.5666 203.014C85.9586 203.261 86.2736 203.588 86.5116 203.994V202.832ZM84.2156 208.873C84.6683 208.873 85.0603 208.756 85.3916 208.523C85.7276 208.289 85.9866 207.979 86.1686 207.592C86.3506 207.204 86.4416 206.784 86.4416 206.332C86.4416 205.865 86.3483 205.44 86.1616 205.058C85.9796 204.67 85.7206 204.362 85.3846 204.134C85.0533 203.9 84.6636 203.784 84.2156 203.784C83.7769 203.784 83.3756 203.898 83.0116 204.127C82.6476 204.355 82.3583 204.663 82.1436 205.051C81.9336 205.433 81.8286 205.86 81.8286 206.332C81.8286 206.803 81.9359 207.232 82.1506 207.62C82.3699 208.002 82.6593 208.308 83.0186 208.537C83.3826 208.761 83.7816 208.873 84.2156 208.873ZM92.0484 210.014C91.4044 210.014 90.8164 209.848 90.2844 209.517C89.7571 209.185 89.3347 208.742 89.0174 208.187C88.7047 207.627 88.5484 207.008 88.5484 206.332C88.5484 205.818 88.6394 205.34 88.8214 204.897C89.0034 204.449 89.2531 204.057 89.5704 203.721C89.8924 203.38 90.2657 203.114 90.6904 202.923C91.1151 202.731 91.5677 202.636 92.0484 202.636C92.5757 202.636 93.0587 202.743 93.4974 202.958C93.9407 203.168 94.3187 203.462 94.6314 203.84C94.9487 204.218 95.1844 204.656 95.3384 205.156C95.4971 205.655 95.5554 206.189 95.5134 206.759H89.8014C89.8574 207.155 89.9881 207.51 90.1934 207.823C90.3987 208.131 90.6601 208.376 90.9774 208.558C91.2994 208.74 91.6564 208.833 92.0484 208.838C92.4684 208.838 92.8487 208.73 93.1894 208.516C93.5301 208.296 93.8054 207.998 94.0154 207.62L95.2124 207.9C94.9324 208.52 94.5101 209.029 93.9454 209.426C93.3807 209.818 92.7484 210.014 92.0484 210.014ZM89.7664 205.835H94.3304C94.2931 205.443 94.1671 205.086 93.9524 204.764C93.7377 204.437 93.4647 204.176 93.1334 203.98C92.8021 203.784 92.4404 203.686 92.0484 203.686C91.6564 203.686 91.2971 203.781 90.9704 203.973C90.6437 204.164 90.3731 204.423 90.1584 204.75C89.9484 205.072 89.8177 205.433 89.7664 205.835ZM102.619 210.014C101.975 210.014 101.387 209.848 100.855 209.517C100.327 209.185 99.905 208.742 99.5876 208.187C99.275 207.627 99.1186 207.008 99.1186 206.332C99.1186 205.818 99.2096 205.34 99.3916 204.897C99.5736 204.449 99.8233 204.057 100.141 203.721C100.463 203.38 100.836 203.114 101.261 202.923C101.685 202.731 102.138 202.636 102.619 202.636C103.263 202.636 103.848 202.801 104.376 203.133C104.908 203.464 105.33 203.91 105.643 204.47C105.96 205.03 106.119 205.65 106.119 206.332C106.119 206.84 106.028 207.316 105.846 207.76C105.664 208.203 105.412 208.595 105.09 208.936C104.772 209.272 104.401 209.535 103.977 209.727C103.557 209.918 103.104 210.014 102.619 210.014ZM102.619 208.838C103.057 208.838 103.452 208.723 103.802 208.495C104.156 208.261 104.434 207.956 104.635 207.578C104.84 207.195 104.943 206.78 104.943 206.332C104.943 205.874 104.838 205.454 104.628 205.072C104.422 204.689 104.145 204.383 103.795 204.155C103.445 203.926 103.053 203.812 102.619 203.812C102.18 203.812 101.786 203.928 101.436 204.162C101.086 204.39 100.808 204.696 100.603 205.079C100.397 205.461 100.295 205.879 100.295 206.332C100.295 206.798 100.4 207.223 100.61 207.606C100.82 207.984 101.102 208.285 101.457 208.509C101.811 208.728 102.199 208.838 102.619 208.838ZM108.655 201.103V202.832H110.706V204.008H108.655V209.832H107.479V204.008H106.576V202.832H107.479V201.103C107.479 200.743 107.565 200.419 107.738 200.13C107.915 199.836 108.151 199.602 108.445 199.43C108.744 199.252 109.07 199.164 109.425 199.164C109.686 199.164 109.941 199.217 110.188 199.325C110.435 199.427 110.655 199.581 110.846 199.787L110.006 200.62C109.941 200.531 109.854 200.463 109.747 200.417C109.644 200.365 109.537 200.34 109.425 200.34C109.215 200.34 109.033 200.414 108.879 200.564C108.73 200.713 108.655 200.893 108.655 201.103ZM114.601 209.832V200.032H120.348V201.208H115.777V203.994H119.676V205.17H115.777V209.832H114.601ZM123.458 210.014C122.814 210.014 122.226 209.848 121.694 209.517C121.167 209.185 120.745 208.742 120.427 208.187C120.115 207.627 119.958 207.008 119.958 206.332C119.958 205.818 120.049 205.34 120.231 204.897C120.413 204.449 120.663 204.057 120.98 203.721C121.302 203.38 121.676 203.114 122.1 202.923C122.525 202.731 122.978 202.636 123.458 202.636C123.986 202.636 124.469 202.743 124.907 202.958C125.351 203.168 125.729 203.462 126.041 203.84C126.359 204.218 126.594 204.656 126.748 205.156C126.907 205.655 126.965 206.189 126.923 206.759H121.211C121.267 207.155 121.398 207.51 121.603 207.823C121.809 208.131 122.07 208.376 122.387 208.558C122.709 208.74 123.066 208.833 123.458 208.838C123.878 208.838 124.259 208.73 124.599 208.516C124.94 208.296 125.215 207.998 125.425 207.62L126.622 207.9C126.342 208.52 125.92 209.029 125.355 209.426C124.791 209.818 124.158 210.014 123.458 210.014ZM121.176 205.835H125.74C125.703 205.443 125.577 205.086 125.362 204.764C125.148 204.437 124.875 204.176 124.543 203.98C124.212 203.784 123.85 203.686 123.458 203.686C123.066 203.686 122.707 203.781 122.38 203.973C122.054 204.164 121.783 204.423 121.568 204.75C121.358 205.072 121.228 205.433 121.176 205.835ZM133.383 202.832H134.559V209.832H133.383L133.334 208.649C133.115 209.055 132.812 209.384 132.424 209.636C132.042 209.888 131.584 210.014 131.052 210.014C130.539 210.014 130.058 209.918 129.61 209.727C129.162 209.531 128.766 209.262 128.42 208.922C128.08 208.576 127.814 208.18 127.622 207.732C127.431 207.284 127.335 206.801 127.335 206.283C127.335 205.783 127.429 205.312 127.615 204.869C127.802 204.425 128.061 204.038 128.392 203.707C128.728 203.371 129.116 203.109 129.554 202.923C129.993 202.731 130.464 202.636 130.968 202.636C131.519 202.636 132.002 202.766 132.417 203.028C132.833 203.284 133.169 203.618 133.425 204.029L133.383 202.832ZM131.031 208.873C131.493 208.873 131.892 208.761 132.228 208.537C132.569 208.308 132.83 208 133.012 207.613C133.199 207.225 133.292 206.798 133.292 206.332C133.292 205.856 133.199 205.426 133.012 205.044C132.826 204.656 132.562 204.351 132.221 204.127C131.885 203.898 131.489 203.784 131.031 203.784C130.569 203.784 130.149 203.898 129.771 204.127C129.393 204.355 129.092 204.663 128.868 205.051C128.649 205.433 128.539 205.86 128.539 206.332C128.539 206.803 128.654 207.232 128.882 207.62C129.111 208.002 129.414 208.308 129.792 208.537C130.17 208.761 130.583 208.873 131.031 208.873ZM139.278 204.008H137.689L137.682 209.832H136.506L136.513 204.008H135.309V202.832H136.513L136.506 200.634H137.682L137.689 202.832H139.278V204.008ZM139.946 207.172V202.832H141.122V206.913C141.122 207.267 141.208 207.589 141.381 207.879C141.554 208.168 141.785 208.399 142.074 208.572C142.368 208.74 142.69 208.824 143.04 208.824C143.395 208.824 143.714 208.74 143.999 208.572C144.288 208.399 144.519 208.168 144.692 207.879C144.865 207.589 144.951 207.267 144.951 206.913V202.832H146.127L146.134 209.832H144.958L144.951 208.943C144.704 209.269 144.391 209.531 144.013 209.727C143.635 209.918 143.227 210.014 142.788 210.014C142.265 210.014 141.787 209.888 141.353 209.636C140.924 209.379 140.581 209.036 140.324 208.607C140.072 208.177 139.946 207.699 139.946 207.172ZM147.234 209.832V202.832H148.41V203.707C148.657 203.38 148.97 203.121 149.348 202.93C149.726 202.734 150.136 202.636 150.58 202.636C150.85 202.636 151.112 202.671 151.364 202.741L150.888 203.917C150.696 203.856 150.51 203.826 150.328 203.826C149.978 203.826 149.656 203.912 149.362 204.085C149.072 204.253 148.841 204.481 148.669 204.771C148.496 205.06 148.41 205.382 148.41 205.737V209.832H147.234ZM154.642 210.014C153.998 210.014 153.41 209.848 152.878 209.517C152.35 209.185 151.928 208.742 151.611 208.187C151.298 207.627 151.142 207.008 151.142 206.332C151.142 205.818 151.233 205.34 151.415 204.897C151.597 204.449 151.846 204.057 152.164 203.721C152.486 203.38 152.859 203.114 153.284 202.923C153.708 202.731 154.161 202.636 154.642 202.636C155.169 202.636 155.652 202.743 156.091 202.958C156.534 203.168 156.912 203.462 157.225 203.84C157.542 204.218 157.778 204.656 157.932 205.156C158.09 205.655 158.149 206.189 158.107 206.759H152.395C152.451 207.155 152.581 207.51 152.787 207.823C152.992 208.131 153.253 208.376 153.571 208.558C153.893 208.74 154.25 208.833 154.642 208.838C155.062 208.838 155.442 208.73 155.783 208.516C156.123 208.296 156.399 207.998 156.609 207.62L157.806 207.9C157.526 208.52 157.103 209.029 156.539 209.426C155.974 209.818 155.342 210.014 154.642 210.014ZM152.36 205.835H156.924C156.886 205.443 156.76 205.086 156.546 204.764C156.331 204.437 156.058 204.176 155.727 203.98C155.395 203.784 155.034 203.686 154.642 203.686C154.25 203.686 153.89 203.781 153.564 203.973C153.237 204.164 152.966 204.423 152.752 204.75C152.542 205.072 152.411 205.433 152.36 205.835ZM161.142 209.965C160.764 209.951 160.395 209.881 160.036 209.755C159.681 209.624 159.369 209.449 159.098 209.23C158.832 209.006 158.638 208.749 158.517 208.46L159.525 208.026C159.595 208.184 159.721 208.334 159.903 208.474C160.085 208.614 160.295 208.726 160.533 208.81C160.771 208.894 161.011 208.936 161.254 208.936C161.511 208.936 161.751 208.896 161.975 208.817C162.199 208.737 162.381 208.621 162.521 208.467C162.666 208.308 162.738 208.119 162.738 207.9C162.738 207.666 162.659 207.484 162.5 207.354C162.346 207.218 162.15 207.113 161.912 207.039C161.679 206.959 161.441 206.885 161.198 206.815C160.717 206.693 160.288 206.549 159.91 206.381C159.532 206.208 159.233 205.991 159.014 205.73C158.799 205.464 158.692 205.125 158.692 204.715C158.692 204.281 158.811 203.905 159.049 203.588C159.292 203.27 159.609 203.025 160.001 202.853C160.393 202.68 160.813 202.594 161.261 202.594C161.826 202.594 162.341 202.715 162.808 202.958C163.275 203.2 163.622 203.529 163.851 203.945L162.906 204.498C162.827 204.33 162.705 204.183 162.542 204.057C162.379 203.926 162.192 203.823 161.982 203.749C161.772 203.674 161.557 203.634 161.338 203.63C161.067 203.62 160.813 203.655 160.575 203.735C160.342 203.814 160.153 203.935 160.008 204.099C159.868 204.257 159.798 204.456 159.798 204.694C159.798 204.927 159.873 205.104 160.022 205.226C160.176 205.347 160.374 205.445 160.617 205.52C160.864 205.59 161.133 205.671 161.422 205.765C161.847 205.9 162.243 206.056 162.612 206.234C162.981 206.411 163.277 206.633 163.501 206.899C163.73 207.165 163.842 207.494 163.837 207.886C163.837 208.315 163.709 208.691 163.452 209.013C163.195 209.33 162.862 209.573 162.451 209.741C162.045 209.909 161.609 209.983 161.142 209.965ZM167.786 209.832V200.032H171.027C171.704 200.032 172.339 200.16 172.931 200.417C173.524 200.669 174.044 201.021 174.492 201.474C174.94 201.922 175.29 202.442 175.542 203.035C175.799 203.623 175.927 204.255 175.927 204.932C175.927 205.608 175.799 206.243 175.542 206.836C175.29 207.424 174.94 207.944 174.492 208.397C174.044 208.845 173.524 209.197 172.931 209.454C172.339 209.706 171.704 209.832 171.027 209.832H167.786ZM168.962 208.656H171.027C171.541 208.656 172.021 208.56 172.469 208.369C172.922 208.173 173.319 207.904 173.659 207.564C174 207.223 174.266 206.829 174.457 206.381C174.653 205.928 174.751 205.445 174.751 204.932C174.751 204.418 174.653 203.938 174.457 203.49C174.266 203.037 173.998 202.64 173.652 202.3C173.312 201.959 172.917 201.693 172.469 201.502C172.021 201.306 171.541 201.208 171.027 201.208H168.962V208.656ZM179.843 210.014C179.199 210.014 178.611 209.848 178.079 209.517C177.551 209.185 177.129 208.742 176.812 208.187C176.499 207.627 176.343 207.008 176.343 206.332C176.343 205.818 176.434 205.34 176.616 204.897C176.798 204.449 177.047 204.057 177.365 203.721C177.687 203.38 178.06 203.114 178.485 202.923C178.909 202.731 179.362 202.636 179.843 202.636C180.37 202.636 180.853 202.743 181.292 202.958C181.735 203.168 182.113 203.462 182.426 203.84C182.743 204.218 182.979 204.656 183.133 205.156C183.291 205.655 183.35 206.189 183.308 206.759H177.596C177.652 207.155 177.782 207.51 177.988 207.823C178.193 208.131 178.454 208.376 178.772 208.558C179.094 208.74 179.451 208.833 179.843 208.838C180.263 208.838 180.643 208.73 180.984 208.516C181.324 208.296 181.6 207.998 181.81 207.62L183.007 207.9C182.727 208.52 182.304 209.029 181.74 209.426C181.175 209.818 180.543 210.014 179.843 210.014ZM177.561 205.835H182.125C182.087 205.443 181.961 205.086 181.747 204.764C181.532 204.437 181.259 204.176 180.928 203.98C180.596 203.784 180.235 203.686 179.843 203.686C179.451 203.686 179.091 203.781 178.765 203.973C178.438 204.164 178.167 204.423 177.953 204.75C177.743 205.072 177.612 205.433 177.561 205.835ZM186.343 209.965C185.965 209.951 185.596 209.881 185.237 209.755C184.882 209.624 184.57 209.449 184.299 209.23C184.033 209.006 183.839 208.749 183.718 208.46L184.726 208.026C184.796 208.184 184.922 208.334 185.104 208.474C185.286 208.614 185.496 208.726 185.734 208.81C185.972 208.894 186.212 208.936 186.455 208.936C186.712 208.936 186.952 208.896 187.176 208.817C187.4 208.737 187.582 208.621 187.722 208.467C187.867 208.308 187.939 208.119 187.939 207.9C187.939 207.666 187.86 207.484 187.701 207.354C187.547 207.218 187.351 207.113 187.113 207.039C186.88 206.959 186.642 206.885 186.399 206.815C185.918 206.693 185.489 206.549 185.111 206.381C184.733 206.208 184.434 205.991 184.215 205.73C184 205.464 183.893 205.125 183.893 204.715C183.893 204.281 184.012 203.905 184.25 203.588C184.493 203.27 184.81 203.025 185.202 202.853C185.594 202.68 186.014 202.594 186.462 202.594C187.027 202.594 187.542 202.715 188.009 202.958C188.476 203.2 188.823 203.529 189.052 203.945L188.107 204.498C188.028 204.33 187.906 204.183 187.743 204.057C187.58 203.926 187.393 203.823 187.183 203.749C186.973 203.674 186.758 203.634 186.539 203.63C186.268 203.62 186.014 203.655 185.776 203.735C185.543 203.814 185.354 203.935 185.209 204.099C185.069 204.257 184.999 204.456 184.999 204.694C184.999 204.927 185.074 205.104 185.223 205.226C185.377 205.347 185.575 205.445 185.818 205.52C186.065 205.59 186.334 205.671 186.623 205.765C187.048 205.9 187.444 206.056 187.813 206.234C188.182 206.411 188.478 206.633 188.702 206.899C188.931 207.165 189.043 207.494 189.038 207.886C189.038 208.315 188.91 208.691 188.653 209.013C188.396 209.33 188.063 209.573 187.652 209.741C187.246 209.909 186.81 209.983 186.343 209.965ZM189.835 202.832H191.011V209.832H189.835V202.832ZM190.437 201.691C190.25 201.691 190.094 201.63 189.968 201.509C189.842 201.387 189.779 201.236 189.779 201.054C189.779 200.872 189.842 200.72 189.968 200.599C190.094 200.477 190.248 200.417 190.43 200.417C190.612 200.417 190.766 200.477 190.892 200.599C191.018 200.72 191.081 200.872 191.081 201.054C191.081 201.236 191.018 201.387 190.892 201.509C190.771 201.63 190.619 201.691 190.437 201.691ZM197.757 202.832H198.933V210.056C198.933 210.518 198.833 210.947 198.632 211.344C198.436 211.745 198.17 212.093 197.834 212.387C197.498 212.685 197.115 212.916 196.686 213.08C196.257 213.248 195.809 213.332 195.342 213.332C194.857 213.332 194.388 213.222 193.935 213.003C193.482 212.788 193.086 212.499 192.745 212.135C192.409 211.775 192.166 211.372 192.017 210.924L193.095 210.434C193.184 210.756 193.342 211.045 193.571 211.302C193.804 211.563 194.075 211.768 194.383 211.918C194.696 212.072 195.015 212.149 195.342 212.149C195.65 212.149 195.946 212.095 196.231 211.988C196.52 211.88 196.779 211.731 197.008 211.54C197.241 211.353 197.423 211.131 197.554 210.875C197.689 210.623 197.757 210.35 197.757 210.056V208.663C197.519 209.064 197.204 209.391 196.812 209.643C196.425 209.89 195.972 210.014 195.454 210.014C194.959 210.014 194.495 209.918 194.061 209.727C193.627 209.535 193.247 209.272 192.92 208.936C192.593 208.595 192.337 208.203 192.15 207.76C191.963 207.316 191.87 206.84 191.87 206.332C191.87 205.823 191.963 205.347 192.15 204.904C192.337 204.456 192.593 204.064 192.92 203.728C193.247 203.387 193.627 203.121 194.061 202.93C194.495 202.738 194.959 202.643 195.454 202.643C195.972 202.643 196.425 202.766 196.812 203.014C197.204 203.261 197.519 203.588 197.757 203.994V202.832ZM195.461 208.873C195.914 208.873 196.306 208.756 196.637 208.523C196.973 208.289 197.232 207.979 197.414 207.592C197.596 207.204 197.687 206.784 197.687 206.332C197.687 205.865 197.594 205.44 197.407 205.058C197.225 204.67 196.966 204.362 196.63 204.134C196.299 203.9 195.909 203.784 195.461 203.784C195.022 203.784 194.621 203.898 194.257 204.127C193.893 204.355 193.604 204.663 193.389 205.051C193.179 205.433 193.074 205.86 193.074 206.332C193.074 206.803 193.181 207.232 193.396 207.62C193.615 208.002 193.905 208.308 194.264 208.537C194.628 208.761 195.027 208.873 195.461 208.873ZM206.497 205.478V209.832H205.321V205.737C205.321 205.382 205.235 205.06 205.062 204.771C204.89 204.481 204.659 204.253 204.369 204.085C204.08 203.912 203.758 203.826 203.403 203.826C203.053 203.826 202.731 203.912 202.437 204.085C202.148 204.253 201.917 204.481 201.744 204.771C201.572 205.06 201.485 205.382 201.485 205.737V209.832H200.309V202.832H201.485V203.707C201.733 203.38 202.045 203.121 202.423 202.93C202.801 202.734 203.212 202.636 203.655 202.636C204.178 202.636 204.654 202.764 205.083 203.021C205.517 203.273 205.86 203.613 206.112 204.043C206.369 204.472 206.497 204.95 206.497 205.478ZM210.534 210.014C209.89 210.014 209.302 209.848 208.77 209.517C208.243 209.185 207.82 208.742 207.503 208.187C207.19 207.627 207.034 207.008 207.034 206.332C207.034 205.818 207.125 205.34 207.307 204.897C207.489 204.449 207.739 204.057 208.056 203.721C208.378 203.38 208.751 203.114 209.176 202.923C209.601 202.731 210.053 202.636 210.534 202.636C211.061 202.636 211.544 202.743 211.983 202.958C212.426 203.168 212.804 203.462 213.117 203.84C213.434 204.218 213.67 204.656 213.824 205.156C213.983 205.655 214.041 206.189 213.999 206.759H208.287C208.343 207.155 208.474 207.51 208.679 207.823C208.884 208.131 209.146 208.376 209.463 208.558C209.785 208.74 210.142 208.833 210.534 208.838C210.954 208.838 211.334 208.73 211.675 208.516C212.016 208.296 212.291 207.998 212.501 207.62L213.698 207.9C213.418 208.52 212.996 209.029 212.431 209.426C211.866 209.818 211.234 210.014 210.534 210.014ZM208.252 205.835H212.816C212.779 205.443 212.653 205.086 212.438 204.764C212.223 204.437 211.95 204.176 211.619 203.98C211.288 203.784 210.926 203.686 210.534 203.686C210.142 203.686 209.783 203.781 209.456 203.973C209.129 204.164 208.859 204.423 208.644 204.75C208.434 205.072 208.303 205.433 208.252 205.835ZM220.466 199.332H221.642V209.832H220.466V208.642C220.228 209.052 219.908 209.384 219.507 209.636C219.106 209.888 218.634 210.014 218.093 210.014C217.584 210.014 217.108 209.918 216.665 209.727C216.222 209.535 215.83 209.272 215.489 208.936C215.153 208.595 214.889 208.203 214.698 207.76C214.507 207.316 214.411 206.84 214.411 206.332C214.411 205.823 214.507 205.347 214.698 204.904C214.889 204.456 215.153 204.064 215.489 203.728C215.83 203.387 216.222 203.121 216.665 202.93C217.108 202.738 217.584 202.643 218.093 202.643C218.634 202.643 219.106 202.769 219.507 203.021C219.908 203.273 220.228 203.604 220.466 204.015V199.332ZM218.107 208.873C218.569 208.873 218.968 208.761 219.304 208.537C219.645 208.308 219.906 208 220.088 207.613C220.275 207.225 220.368 206.798 220.368 206.332C220.368 205.856 220.275 205.426 220.088 205.044C219.901 204.656 219.638 204.351 219.297 204.127C218.961 203.898 218.564 203.784 218.107 203.784C217.645 203.784 217.225 203.898 216.847 204.127C216.474 204.355 216.175 204.663 215.951 205.051C215.727 205.433 215.615 205.86 215.615 206.332C215.615 206.803 215.729 207.232 215.958 207.62C216.187 208.002 216.49 208.308 216.868 208.537C217.246 208.761 217.659 208.873 218.107 208.873ZM229.697 204.008H228.108L228.101 209.832H226.925L226.932 204.008H225.728V202.832H226.932L226.925 200.634H228.101L228.108 202.832H229.697V204.008ZM233.548 210.014C232.904 210.014 232.316 209.848 231.784 209.517C231.256 209.185 230.834 208.742 230.517 208.187C230.204 207.627 230.048 207.008 230.048 206.332C230.048 205.818 230.139 205.34 230.321 204.897C230.503 204.449 230.752 204.057 231.07 203.721C231.392 203.38 231.765 203.114 232.19 202.923C232.614 202.731 233.067 202.636 233.548 202.636C234.192 202.636 234.777 202.801 235.305 203.133C235.837 203.464 236.259 203.91 236.572 204.47C236.889 205.03 237.048 205.65 237.048 206.332C237.048 206.84 236.957 207.316 236.775 207.76C236.593 208.203 236.341 208.595 236.019 208.936C235.701 209.272 235.33 209.535 234.906 209.727C234.486 209.918 234.033 210.014 233.548 210.014ZM233.548 208.838C233.986 208.838 234.381 208.723 234.731 208.495C235.085 208.261 235.363 207.956 235.564 207.578C235.769 207.195 235.872 206.78 235.872 206.332C235.872 205.874 235.767 205.454 235.557 205.072C235.351 204.689 235.074 204.383 234.724 204.155C234.374 203.926 233.982 203.812 233.548 203.812C233.109 203.812 232.715 203.928 232.365 204.162C232.015 204.39 231.737 204.696 231.532 205.079C231.326 205.461 231.224 205.879 231.224 206.332C231.224 206.798 231.329 207.223 231.539 207.606C231.749 207.984 232.031 208.285 232.386 208.509C232.74 208.728 233.128 208.838 233.548 208.838ZM241.051 209.832V200.032H247.064V201.208H242.227V203.994H246.189V205.17H242.227V208.656H247.064V209.832H241.051ZM248.292 209.832V202.832H249.468V203.707C249.715 203.38 250.025 203.121 250.399 202.93C250.777 202.734 251.187 202.636 251.631 202.636C252.149 202.636 252.622 202.762 253.052 203.014C253.481 203.266 253.819 203.599 254.067 204.015C254.314 203.599 254.65 203.266 255.075 203.014C255.504 202.762 255.975 202.636 256.489 202.636C257.016 202.636 257.494 202.764 257.924 203.021C258.353 203.273 258.694 203.613 258.946 204.043C259.202 204.472 259.331 204.95 259.331 205.478V209.832H258.155V205.758C258.155 205.412 258.071 205.093 257.903 204.799C257.735 204.505 257.508 204.269 257.224 204.092C256.939 203.914 256.624 203.826 256.279 203.826C255.933 203.826 255.618 203.91 255.334 204.078C255.049 204.241 254.823 204.47 254.655 204.764C254.487 205.053 254.403 205.384 254.403 205.758V209.832H253.227V205.758C253.227 205.384 253.143 205.053 252.975 204.764C252.807 204.47 252.578 204.241 252.289 204.078C252.004 203.91 251.689 203.826 251.344 203.826C251.003 203.826 250.688 203.914 250.399 204.092C250.114 204.269 249.888 204.505 249.72 204.799C249.552 205.093 249.468 205.412 249.468 205.758V209.832H248.292ZM261.602 213.332H260.426V202.832H261.602V204.029C261.84 203.618 262.158 203.287 262.554 203.035C262.951 202.778 263.422 202.65 263.968 202.65C264.477 202.65 264.953 202.745 265.396 202.937C265.844 203.128 266.236 203.394 266.572 203.735C266.908 204.071 267.172 204.46 267.363 204.904C267.555 205.347 267.65 205.823 267.65 206.332C267.65 206.84 267.555 207.319 267.363 207.767C267.172 208.215 266.908 208.609 266.572 208.95C266.236 209.286 265.844 209.549 265.396 209.741C264.953 209.932 264.477 210.028 263.968 210.028C263.422 210.028 262.951 209.902 262.554 209.65C262.158 209.393 261.84 209.059 261.602 208.649V213.332ZM263.954 203.791C263.502 203.791 263.105 203.905 262.764 204.134C262.424 204.362 262.16 204.668 261.973 205.051C261.791 205.433 261.7 205.86 261.7 206.332C261.7 206.798 261.791 207.225 261.973 207.613C262.16 208 262.421 208.308 262.757 208.537C263.098 208.765 263.497 208.88 263.954 208.88C264.407 208.88 264.822 208.768 265.2 208.544C265.578 208.315 265.882 208.009 266.11 207.627C266.339 207.239 266.453 206.808 266.453 206.332C266.453 205.865 266.341 205.44 266.117 205.058C265.893 204.67 265.592 204.362 265.214 204.134C264.836 203.905 264.416 203.791 263.954 203.791ZM271.553 210.014C270.909 210.014 270.321 209.848 269.789 209.517C269.262 209.185 268.84 208.742 268.522 208.187C268.21 207.627 268.053 207.008 268.053 206.332C268.053 205.818 268.144 205.34 268.326 204.897C268.508 204.449 268.758 204.057 269.075 203.721C269.397 203.38 269.771 203.114 270.195 202.923C270.62 202.731 271.073 202.636 271.553 202.636C272.197 202.636 272.783 202.801 273.31 203.133C273.842 203.464 274.265 203.91 274.577 204.47C274.895 205.03 275.053 205.65 275.053 206.332C275.053 206.84 274.962 207.316 274.78 207.76C274.598 208.203 274.346 208.595 274.024 208.936C273.707 209.272 273.336 209.535 272.911 209.727C272.491 209.918 272.039 210.014 271.553 210.014ZM271.553 208.838C271.992 208.838 272.386 208.723 272.736 208.495C273.091 208.261 273.369 207.956 273.569 207.578C273.775 207.195 273.877 206.78 273.877 206.332C273.877 205.874 273.772 205.454 273.562 205.072C273.357 204.689 273.079 204.383 272.729 204.155C272.379 203.926 271.987 203.812 271.553 203.812C271.115 203.812 270.72 203.928 270.37 204.162C270.02 204.39 269.743 204.696 269.537 205.079C269.332 205.461 269.229 205.879 269.229 206.332C269.229 206.798 269.334 207.223 269.544 207.606C269.754 207.984 270.037 208.285 270.391 208.509C270.746 208.728 271.133 208.838 271.553 208.838ZM278.719 209.832H277.529L275.184 202.832H276.332L278.138 208.173L279.923 202.832H281.134L282.926 208.173L284.711 202.832H285.873L283.528 209.832H282.331L280.518 204.442L278.719 209.832ZM289.506 210.014C288.862 210.014 288.274 209.848 287.742 209.517C287.215 209.185 286.793 208.742 286.475 208.187C286.163 207.627 286.006 207.008 286.006 206.332C286.006 205.818 286.097 205.34 286.279 204.897C286.461 204.449 286.711 204.057 287.028 203.721C287.35 203.38 287.724 203.114 288.148 202.923C288.573 202.731 289.026 202.636 289.506 202.636C290.034 202.636 290.517 202.743 290.955 202.958C291.399 203.168 291.777 203.462 292.089 203.84C292.407 204.218 292.642 204.656 292.796 205.156C292.955 205.655 293.013 206.189 292.971 206.759H287.259C287.315 207.155 287.446 207.51 287.651 207.823C287.857 208.131 288.118 208.376 288.435 208.558C288.757 208.74 289.114 208.833 289.506 208.838C289.926 208.838 290.307 208.73 290.647 208.516C290.988 208.296 291.263 207.998 291.473 207.62L292.67 207.9C292.39 208.52 291.968 209.029 291.403 209.426C290.839 209.818 290.206 210.014 289.506 210.014ZM287.224 205.835H291.788C291.751 205.443 291.625 205.086 291.41 204.764C291.196 204.437 290.923 204.176 290.591 203.98C290.26 203.784 289.898 203.686 289.506 203.686C289.114 203.686 288.755 203.781 288.428 203.973C288.102 204.164 287.831 204.423 287.616 204.75C287.406 205.072 287.276 205.433 287.224 205.835ZM293.844 209.832V202.832H295.02V203.707C295.268 203.38 295.58 203.121 295.958 202.93C296.336 202.734 296.747 202.636 297.19 202.636C297.461 202.636 297.722 202.671 297.974 202.741L297.498 203.917C297.307 203.856 297.12 203.826 296.938 203.826C296.588 203.826 296.266 203.912 295.972 204.085C295.683 204.253 295.452 204.481 295.279 204.771C295.107 205.06 295.02 205.382 295.02 205.737V209.832H293.844ZM307.713 200.032H309.099L305.781 205.401V209.832H304.605V205.401L301.287 200.032H302.673L305.193 204.113L307.713 200.032ZM311.918 210.014C311.274 210.014 310.686 209.848 310.154 209.517C309.627 209.185 309.205 208.742 308.887 208.187C308.575 207.627 308.418 207.008 308.418 206.332C308.418 205.818 308.509 205.34 308.691 204.897C308.873 204.449 309.123 204.057 309.44 203.721C309.762 203.38 310.136 203.114 310.56 202.923C310.985 202.731 311.438 202.636 311.918 202.636C312.562 202.636 313.148 202.801 313.675 203.133C314.207 203.464 314.63 203.91 314.942 204.47C315.26 205.03 315.418 205.65 315.418 206.332C315.418 206.84 315.327 207.316 315.145 207.76C314.963 208.203 314.711 208.595 314.389 208.936C314.072 209.272 313.701 209.535 313.276 209.727C312.856 209.918 312.404 210.014 311.918 210.014ZM311.918 208.838C312.357 208.838 312.751 208.723 313.101 208.495C313.456 208.261 313.734 207.956 313.934 207.578C314.14 207.195 314.242 206.78 314.242 206.332C314.242 205.874 314.137 205.454 313.927 205.072C313.722 204.689 313.444 204.383 313.094 204.155C312.744 203.926 312.352 203.812 311.918 203.812C311.48 203.812 311.085 203.928 310.735 204.162C310.385 204.39 310.108 204.696 309.902 205.079C309.697 205.461 309.594 205.879 309.594 206.332C309.594 206.798 309.699 207.223 309.909 207.606C310.119 207.984 310.402 208.285 310.756 208.509C311.111 208.728 311.498 208.838 311.918 208.838ZM315.894 207.172V202.832H317.07V206.913C317.07 207.267 317.156 207.589 317.329 207.879C317.502 208.168 317.733 208.399 318.022 208.572C318.316 208.74 318.638 208.824 318.988 208.824C319.343 208.824 319.662 208.74 319.947 208.572C320.236 208.399 320.467 208.168 320.64 207.879C320.813 207.589 320.899 207.267 320.899 206.913V202.832H322.075L322.082 209.832H320.906L320.899 208.943C320.652 209.269 320.339 209.531 319.961 209.727C319.583 209.918 319.175 210.014 318.736 210.014C318.213 210.014 317.735 209.888 317.301 209.636C316.872 209.379 316.529 209.036 316.272 208.607C316.02 208.177 315.894 207.699 315.894 207.172ZM3.92 234.014C3.276 234.014 2.688 233.848 2.156 233.517C1.62867 233.185 1.20633 232.742 0.889 232.187C0.576333 231.627 0.42 231.008 0.42 230.332C0.42 229.818 0.511 229.34 0.693 228.897C0.875 228.449 1.12467 228.057 1.442 227.721C1.764 227.38 2.13733 227.114 2.562 226.923C2.98667 226.731 3.43933 226.636 3.92 226.636C4.564 226.636 5.14967 226.801 5.677 227.133C6.209 227.464 6.63133 227.91 6.944 228.47C7.26133 229.03 7.42 229.65 7.42 230.332C7.42 230.84 7.329 231.316 7.147 231.76C6.965 232.203 6.713 232.595 6.391 232.936C6.07367 233.272 5.70267 233.535 5.278 233.727C4.858 233.918 4.40533 234.014 3.92 234.014ZM3.92 232.838C4.35867 232.838 4.753 232.723 5.103 232.495C5.45767 232.261 5.73533 231.956 5.936 231.578C6.14133 231.195 6.244 230.78 6.244 230.332C6.244 229.874 6.139 229.454 5.929 229.072C5.72367 228.689 5.446 228.383 5.096 228.155C4.746 227.926 4.354 227.812 3.92 227.812C3.48133 227.812 3.087 227.928 2.737 228.162C2.387 228.39 2.10933 228.696 1.904 229.079C1.69867 229.461 1.596 229.879 1.596 230.332C1.596 230.798 1.701 231.223 1.911 231.606C2.121 231.984 2.40333 232.285 2.758 232.509C3.11267 232.728 3.5 232.838 3.92 232.838ZM14.4596 229.478V233.832H13.2836V229.737C13.2836 229.382 13.1973 229.06 13.0246 228.771C12.8519 228.481 12.6209 228.253 12.3316 228.085C12.0423 227.912 11.7203 227.826 11.3656 227.826C11.0156 227.826 10.6936 227.912 10.3996 228.085C10.1103 228.253 9.87927 228.481 9.7066 228.771C9.53394 229.06 9.4476 229.382 9.4476 229.737V233.832H8.2716V226.832H9.4476V227.707C9.69494 227.38 10.0076 227.121 10.3856 226.93C10.7636 226.734 11.1743 226.636 11.6176 226.636C12.1403 226.636 12.6163 226.764 13.0456 227.021C13.4796 227.273 13.8226 227.613 14.0746 228.043C14.3313 228.472 14.4596 228.95 14.4596 229.478ZM24.6154 224.032H26.0014L22.6834 229.401V233.832H21.5074V229.401L18.1894 224.032H19.5754L22.0954 228.113L24.6154 224.032ZM28.8202 234.014C28.1762 234.014 27.5882 233.848 27.0562 233.517C26.5289 233.185 26.1066 232.742 25.7892 232.187C25.4766 231.627 25.3202 231.008 25.3202 230.332C25.3202 229.818 25.4112 229.34 25.5932 228.897C25.7752 228.449 26.0249 228.057 26.3422 227.721C26.6642 227.38 27.0376 227.114 27.4622 226.923C27.8869 226.731 28.3396 226.636 28.8202 226.636C29.4642 226.636 30.0499 226.801 30.5772 227.133C31.1092 227.464 31.5316 227.91 31.8442 228.47C32.1616 229.03 32.3202 229.65 32.3202 230.332C32.3202 230.84 32.2292 231.316 32.0472 231.76C31.8652 232.203 31.6132 232.595 31.2912 232.936C30.9739 233.272 30.6029 233.535 30.1782 233.727C29.7582 233.918 29.3056 234.014 28.8202 234.014ZM28.8202 232.838C29.2589 232.838 29.6532 232.723 30.0032 232.495C30.3579 232.261 30.6356 231.956 30.8362 231.578C31.0416 231.195 31.1442 230.78 31.1442 230.332C31.1442 229.874 31.0392 229.454 30.8292 229.072C30.6239 228.689 30.3462 228.383 29.9962 228.155C29.6462 227.926 29.2542 227.812 28.8202 227.812C28.3816 227.812 27.9872 227.928 27.6372 228.162C27.2872 228.39 27.0096 228.696 26.8042 229.079C26.5989 229.461 26.4962 229.879 26.4962 230.332C26.4962 230.798 26.6012 231.223 26.8112 231.606C27.0212 231.984 27.3036 232.285 27.6582 232.509C28.0129 232.728 28.4002 232.838 28.8202 232.838ZM32.7961 231.172V226.832H33.9721V230.913C33.9721 231.267 34.0585 231.589 34.2311 231.879C34.4038 232.168 34.6348 232.399 34.9241 232.572C35.2181 232.74 35.5401 232.824 35.8901 232.824C36.2448 232.824 36.5645 232.74 36.8491 232.572C37.1385 232.399 37.3695 232.168 37.5421 231.879C37.7148 231.589 37.8011 231.267 37.8011 230.913V226.832H38.9771L38.9841 233.832H37.8081L37.8011 232.943C37.5538 233.269 37.2411 233.531 36.8631 233.727C36.4851 233.918 36.0768 234.014 35.6381 234.014C35.1155 234.014 34.6371 233.888 34.2031 233.636C33.7738 233.379 33.4308 233.036 33.1741 232.607C32.9221 232.177 32.7961 231.699 32.7961 231.172ZM40.0839 233.832V226.832H41.2599V227.707C41.5073 227.38 41.8199 227.121 42.1979 226.93C42.5759 226.734 42.9866 226.636 43.4299 226.636C43.7006 226.636 43.9619 226.671 44.2139 226.741L43.7379 227.917C43.5466 227.856 43.3599 227.826 43.1779 227.826C42.8279 227.826 42.5059 227.912 42.2119 228.085C41.9226 228.253 41.6916 228.481 41.5189 228.771C41.3463 229.06 41.2599 229.382 41.2599 229.737V233.832H40.0839ZM53.9741 224.032H55.1501V233.832H53.9741V229.17H49.1231V233.832H47.9471V224.032H49.1231V227.994H53.9741V224.032ZM59.5388 234.014C58.8948 234.014 58.3068 233.848 57.7748 233.517C57.2475 233.185 56.8251 232.742 56.5078 232.187C56.1951 231.627 56.0388 231.008 56.0388 230.332C56.0388 229.818 56.1298 229.34 56.3118 228.897C56.4938 228.449 56.7435 228.057 57.0608 227.721C57.3828 227.38 57.7561 227.114 58.1808 226.923C58.6055 226.731 59.0581 226.636 59.5388 226.636C60.0661 226.636 60.5491 226.743 60.9878 226.958C61.4311 227.168 61.8091 227.462 62.1218 227.84C62.4391 228.218 62.6748 228.656 62.8288 229.156C62.9875 229.655 63.0458 230.189 63.0038 230.759H57.2918C57.3478 231.155 57.4785 231.51 57.6838 231.823C57.8891 232.131 58.1505 232.376 58.4678 232.558C58.7898 232.74 59.1468 232.833 59.5388 232.838C59.9588 232.838 60.3391 232.73 60.6798 232.516C61.0205 232.296 61.2958 231.998 61.5058 231.62L62.7028 231.9C62.4228 232.52 62.0005 233.029 61.4358 233.426C60.8711 233.818 60.2388 234.014 59.5388 234.014ZM57.2568 229.835H61.8208C61.7835 229.443 61.6575 229.086 61.4428 228.764C61.2281 228.437 60.9551 228.176 60.6238 227.98C60.2925 227.784 59.9308 227.686 59.5388 227.686C59.1468 227.686 58.7875 227.781 58.4608 227.973C58.1341 228.164 57.8635 228.423 57.6488 228.75C57.4388 229.072 57.3081 229.433 57.2568 229.835ZM69.4637 226.832H70.6397V233.832H69.4637L69.4147 232.649C69.1954 233.055 68.8921 233.384 68.5047 233.636C68.1221 233.888 67.6647 234.014 67.1327 234.014C66.6194 234.014 66.1387 233.918 65.6907 233.727C65.2427 233.531 64.8461 233.262 64.5007 232.922C64.1601 232.576 63.8941 232.18 63.7027 231.732C63.5114 231.284 63.4157 230.801 63.4157 230.283C63.4157 229.783 63.5091 229.312 63.6957 228.869C63.8824 228.425 64.1414 228.038 64.4727 227.707C64.8087 227.371 65.1961 227.109 65.6347 226.923C66.0734 226.731 66.5447 226.636 67.0487 226.636C67.5994 226.636 68.0824 226.766 68.4977 227.028C68.9131 227.284 69.2491 227.618 69.5057 228.029L69.4637 226.832ZM67.1117 232.873C67.5737 232.873 67.9727 232.761 68.3087 232.537C68.6494 232.308 68.9107 232 69.0927 231.613C69.2794 231.225 69.3727 230.798 69.3727 230.332C69.3727 229.856 69.2794 229.426 69.0927 229.044C68.9061 228.656 68.6424 228.351 68.3017 228.127C67.9657 227.898 67.5691 227.784 67.1117 227.784C66.6497 227.784 66.2297 227.898 65.8517 228.127C65.4737 228.355 65.1727 228.663 64.9487 229.051C64.7294 229.433 64.6197 229.86 64.6197 230.332C64.6197 230.803 64.7341 231.232 64.9627 231.62C65.1914 232.002 65.4947 232.308 65.8727 232.537C66.2507 232.761 66.6637 232.873 67.1117 232.873ZM71.8142 233.832V223.332H72.9902V233.832H71.8142ZM77.991 228.008H76.402L76.395 233.832H75.219L75.226 228.008H74.022V226.832H75.226L75.219 224.634H76.395L76.402 226.832H77.991V228.008ZM85.1271 229.478V233.832H83.9511V229.737C83.9511 229.382 83.8648 229.06 83.6921 228.771C83.5195 228.481 83.2885 228.253 82.9991 228.085C82.7098 227.912 82.3878 227.826 82.0331 227.826C81.6831 227.826 81.3611 227.912 81.0671 228.085C80.7778 228.253 80.5468 228.481 80.3741 228.771C80.2015 229.06 80.1151 229.382 80.1151 229.737V233.832H78.9391V223.332H80.1151V227.707C80.3625 227.38 80.6751 227.121 81.0531 226.93C81.4311 226.734 81.8418 226.636 82.2851 226.636C82.8078 226.636 83.2838 226.764 83.7131 227.021C84.1471 227.273 84.4901 227.613 84.7421 228.043C84.9988 228.472 85.1271 228.95 85.1271 229.478ZM90.53 234.014C90.2033 234.014 89.8836 233.958 89.571 233.846C89.2583 233.738 88.9736 233.575 88.717 233.356L89.466 232.446C89.6013 232.562 89.7576 232.658 89.935 232.733C90.117 232.803 90.3153 232.838 90.53 232.838C90.838 232.838 91.118 232.756 91.37 232.593C91.622 232.429 91.8226 232.215 91.972 231.949C92.126 231.683 92.203 231.398 92.203 231.095V224.032H93.379V231.095C93.379 231.617 93.2506 232.1 92.994 232.544C92.7373 232.982 92.3943 233.337 91.965 233.608C91.5356 233.878 91.0573 234.014 90.53 234.014ZM97.8335 234.014C97.1895 234.014 96.6015 233.848 96.0695 233.517C95.5421 233.185 95.1198 232.742 94.8025 232.187C94.4898 231.627 94.3335 231.008 94.3335 230.332C94.3335 229.818 94.4245 229.34 94.6065 228.897C94.7885 228.449 95.0381 228.057 95.3555 227.721C95.6775 227.38 96.0508 227.114 96.4755 226.923C96.9001 226.731 97.3528 226.636 97.8335 226.636C98.4775 226.636 99.0631 226.801 99.5905 227.133C100.122 227.464 100.545 227.91 100.857 228.47C101.175 229.03 101.333 229.65 101.333 230.332C101.333 230.84 101.242 231.316 101.06 231.76C100.878 232.203 100.626 232.595 100.304 232.936C99.9871 233.272 99.6161 233.535 99.1915 233.727C98.7715 233.918 98.3188 234.014 97.8335 234.014ZM97.8335 232.838C98.2721 232.838 98.6665 232.723 99.0165 232.495C99.3711 232.261 99.6488 231.956 99.8495 231.578C100.055 231.195 100.157 230.78 100.157 230.332C100.157 229.874 100.052 229.454 99.8425 229.072C99.6371 228.689 99.3595 228.383 99.0095 228.155C98.6595 227.926 98.2675 227.812 97.8335 227.812C97.3948 227.812 97.0005 227.928 96.6505 228.162C96.3005 228.39 96.0228 228.696 95.8175 229.079C95.6121 229.461 95.5095 229.879 95.5095 230.332C95.5095 230.798 95.6145 231.223 95.8245 231.606C96.0345 231.984 96.3168 232.285 96.6715 232.509C97.0261 232.728 97.4135 232.838 97.8335 232.838ZM101.809 231.172V226.832H102.985V230.913C102.985 231.267 103.072 231.589 103.244 231.879C103.417 232.168 103.648 232.399 103.937 232.572C104.231 232.74 104.553 232.824 104.903 232.824C105.258 232.824 105.578 232.74 105.862 232.572C106.152 232.399 106.383 232.168 106.555 231.879C106.728 231.589 106.814 231.267 106.814 230.913V226.832H107.99L107.997 233.832H106.821L106.814 232.943C106.567 233.269 106.254 233.531 105.876 233.727C105.498 233.918 105.09 234.014 104.651 234.014C104.129 234.014 103.65 233.888 103.216 233.636C102.787 233.379 102.444 233.036 102.187 232.607C101.935 232.177 101.809 231.699 101.809 231.172ZM109.097 233.832V226.832H110.273V227.707C110.52 227.38 110.833 227.121 111.211 226.93C111.589 226.734 112 226.636 112.443 226.636C112.714 226.636 112.975 226.671 113.227 226.741L112.751 227.917C112.56 227.856 112.373 227.826 112.191 227.826C111.841 227.826 111.519 227.912 111.225 228.085C110.936 228.253 110.705 228.481 110.532 228.771C110.359 229.06 110.273 229.382 110.273 229.737V233.832H109.097ZM119.996 229.478V233.832H118.82V229.737C118.82 229.382 118.734 229.06 118.561 228.771C118.388 228.481 118.157 228.253 117.868 228.085C117.579 227.912 117.257 227.826 116.902 227.826C116.552 227.826 116.23 227.912 115.936 228.085C115.647 228.253 115.416 228.481 115.243 228.771C115.07 229.06 114.984 229.382 114.984 229.737V233.832H113.808V226.832H114.984V227.707C115.231 227.38 115.544 227.121 115.922 226.93C116.3 226.734 116.711 226.636 117.154 226.636C117.677 226.636 118.153 226.764 118.582 227.021C119.016 227.273 119.359 227.613 119.611 228.043C119.868 228.472 119.996 228.95 119.996 229.478ZM124.033 234.014C123.389 234.014 122.801 233.848 122.269 233.517C121.741 233.185 121.319 232.742 121.002 232.187C120.689 231.627 120.533 231.008 120.533 230.332C120.533 229.818 120.624 229.34 120.806 228.897C120.988 228.449 121.237 228.057 121.555 227.721C121.877 227.38 122.25 227.114 122.675 226.923C123.099 226.731 123.552 226.636 124.033 226.636C124.56 226.636 125.043 226.743 125.482 226.958C125.925 227.168 126.303 227.462 126.616 227.84C126.933 228.218 127.169 228.656 127.323 229.156C127.481 229.655 127.54 230.189 127.498 230.759H121.786C121.842 231.155 121.972 231.51 122.178 231.823C122.383 232.131 122.644 232.376 122.962 232.558C123.284 232.74 123.641 232.833 124.033 232.838C124.453 232.838 124.833 232.73 125.174 232.516C125.514 232.296 125.79 231.998 126 231.62L127.197 231.9C126.917 232.52 126.494 233.029 125.93 233.426C125.365 233.818 124.733 234.014 124.033 234.014ZM121.751 229.835H126.315C126.277 229.443 126.151 229.086 125.937 228.764C125.722 228.437 125.449 228.176 125.118 227.98C124.786 227.784 124.425 227.686 124.033 227.686C123.641 227.686 123.281 227.781 122.955 227.973C122.628 228.164 122.357 228.423 122.143 228.75C121.933 229.072 121.802 229.433 121.751 229.835ZM132.783 226.832H134.029L130.2 237.332H128.954L130.221 233.832L127.708 226.832H128.996L130.809 232.215L132.783 226.832Z" fill="white"/>
<defs>
<clipPath id="clip0_125_6294">
<rect width="70.6931" height="70.6931" fill="white" transform="translate(128.653)"/>
</clipPath>
</defs>
</svg>
