<svg width="158" height="45" viewBox="0 0 158 45" fill="none" xmlns="http://www.w3.org/2000/svg">
<rect y="0.855652" width="158" height="44" rx="8" fill="white"/>
<g clip-path="url(#clip0_1_531)">
<path d="M49.9672 13.5135C47.9689 14.2067 46.2456 15.5225 45.0503 17.2675C43.8551 19.0126 43.2509 21.0949 43.3267 23.2087C43.4024 25.3225 44.1539 27.3563 45.4709 29.0114C46.7879 30.6665 48.601 31.8556 50.6438 32.4041C52.2999 32.8314 54.035 32.8502 55.7 32.4588C57.2083 32.12 58.6028 31.3953 59.7469 30.3556C60.9376 29.2406 61.802 27.822 62.2469 26.2525C62.7304 24.5457 62.8164 22.7509 62.4985 21.0056H53.1985V24.8635H58.5844C58.4768 25.4788 58.2461 26.066 57.9062 26.5901C57.5663 27.1141 57.1242 27.5642 56.6063 27.9135C55.9487 28.3487 55.2073 28.6414 54.4297 28.7728C53.6499 28.9179 52.8501 28.9179 52.0703 28.7728C51.2799 28.6096 50.5323 28.2834 49.875 27.815C48.819 27.0675 48.0261 26.0055 47.6094 24.7806C47.1858 23.5328 47.1858 22.1801 47.6094 20.9322C47.906 20.0575 48.3963 19.2612 49.0438 18.6025C49.7847 17.8349 50.7227 17.2863 51.755 17.0167C52.7872 16.7471 53.8737 16.7671 54.8953 17.0744C55.6935 17.3193 56.4233 17.7473 57.0266 18.3244C57.6339 17.7202 58.2401 17.1145 58.8453 16.5072C59.1578 16.1806 59.4985 15.8697 59.8063 15.5353C58.8852 14.6783 57.8042 14.0114 56.625 13.5728C54.4777 12.7931 52.1281 12.7722 49.9672 13.5135Z" fill="white"/>
<path d="M49.9672 13.5135C52.1279 12.7717 54.4775 12.7921 56.625 13.5713C57.8044 14.0129 58.8849 14.683 59.8047 15.5431C59.4922 15.8775 59.1625 16.19 58.8438 16.515C58.2375 17.1202 57.6318 17.7234 57.0266 18.3244C56.4233 17.7473 55.6935 17.3193 54.8953 17.0744C53.874 16.766 52.7876 16.7449 51.7551 17.0134C50.7226 17.2818 49.7839 17.8295 49.0422 18.5963C48.3948 19.2549 47.9044 20.0513 47.6078 20.926L44.3688 18.4181C45.5282 16.119 47.5356 14.3604 49.9672 13.5135Z" fill="#E33629"/>
<path d="M43.6104 21.1734C43.7844 20.3105 44.0734 19.4749 44.4698 18.689L47.7089 21.203C47.2853 22.4509 47.2853 23.8036 47.7089 25.0515C46.6297 25.8848 45.55 26.7223 44.4698 27.564C43.4779 25.5895 43.1753 23.3398 43.6104 21.1734Z" fill="#F8BD00"/>
<path d="M53.1984 21.0041H62.4984C62.8164 22.7493 62.7303 24.5442 62.2469 26.251C61.8019 27.8205 60.9376 29.239 59.7469 30.3541C58.7016 29.5385 57.6516 28.7291 56.6063 27.9135C57.1245 27.5639 57.5668 27.1133 57.9067 26.5887C58.2467 26.064 58.4771 25.4762 58.5844 24.8603H53.1984C53.1969 23.576 53.1984 22.29 53.1984 21.0041Z" fill="#587DBD"/>
<path d="M44.3672 27.2932C45.4474 26.4598 46.5271 25.6223 47.6062 24.7807C48.0238 26.006 48.8178 27.068 49.875 27.815C50.5343 28.2812 51.2836 28.6048 52.075 28.765C52.8548 28.9101 53.6546 28.9101 54.4344 28.765C55.2119 28.6336 55.9533 28.3409 56.6109 27.9057C57.6562 28.7213 58.7063 29.5307 59.7516 30.3463C58.6076 31.3865 57.2132 32.1117 55.7047 32.451C54.0397 32.8424 52.3046 32.8236 50.6484 32.3963C49.3386 32.0465 48.1151 31.43 47.0547 30.5853C45.9324 29.6941 45.0157 28.5712 44.3672 27.2932Z" fill="#319F43"/>
</g>
<path d="M76.383 28.0377C75.7063 28.0377 75.074 27.907 74.486 27.6457C73.9027 27.3797 73.3917 27.0133 72.953 26.5467C72.519 26.0753 72.1783 25.534 71.931 24.9227C71.6837 24.3067 71.56 23.6487 71.56 22.9487C71.56 22.2253 71.6883 21.5557 71.945 20.9397C72.2063 20.3237 72.561 19.787 73.009 19.3297C73.4617 18.8723 73.9773 18.5177 74.556 18.2657C75.1393 18.009 75.7553 17.8807 76.404 17.8807C77.1413 17.8807 77.8437 18.0533 78.511 18.3987C79.1783 18.744 79.7523 19.2433 80.233 19.8967L79.183 20.4637C78.8237 20.0063 78.3967 19.6563 77.902 19.4137C77.412 19.171 76.908 19.0497 76.39 19.0497C75.8953 19.0497 75.4263 19.15 74.983 19.3507C74.5443 19.5513 74.1547 19.8313 73.814 20.1907C73.478 20.55 73.2143 20.9653 73.023 21.4367C72.8317 21.908 72.736 22.419 72.736 22.9697C72.736 23.5063 72.8317 24.0103 73.023 24.4817C73.2143 24.953 73.4757 25.3683 73.807 25.7277C74.143 26.0823 74.5327 26.36 74.976 26.5607C75.4193 26.7613 75.893 26.8617 76.397 26.8617C76.7983 26.8617 77.1787 26.794 77.538 26.6587C77.902 26.5233 78.2357 26.332 78.539 26.0847C78.847 25.8373 79.1083 25.5457 79.323 25.2097C79.5423 24.8737 79.708 24.505 79.82 24.1037H77.405V23.0537H81.192C81.1873 23.7397 81.0567 24.3837 80.8 24.9857C80.548 25.5877 80.2003 26.1173 79.757 26.5747C79.3183 27.032 78.8097 27.3913 78.231 27.6527C77.657 27.9093 77.041 28.0377 76.383 28.0377ZM85.2364 28.0377C84.5924 28.0377 84.0044 27.872 83.4724 27.5407C82.945 27.2093 82.5227 26.766 82.2054 26.2107C81.8927 25.6507 81.7364 25.0323 81.7364 24.3557C81.7364 23.8423 81.8274 23.364 82.0094 22.9207C82.1914 22.4727 82.441 22.0807 82.7584 21.7447C83.0804 21.404 83.4537 21.138 83.8784 20.9467C84.303 20.7553 84.7557 20.6597 85.2364 20.6597C85.8804 20.6597 86.466 20.8253 86.9934 21.1567C87.5254 21.488 87.9477 21.9337 88.2604 22.4937C88.5777 23.0537 88.7364 23.6743 88.7364 24.3557C88.7364 24.8643 88.6454 25.3403 88.4634 25.7837C88.2814 26.227 88.0294 26.619 87.7074 26.9597C87.39 27.2957 87.019 27.5593 86.5944 27.7507C86.1744 27.942 85.7217 28.0377 85.2364 28.0377ZM85.2364 26.8617C85.675 26.8617 86.0694 26.7473 86.4194 26.5187C86.774 26.2853 87.0517 25.9797 87.2524 25.6017C87.4577 25.219 87.5604 24.8037 87.5604 24.3557C87.5604 23.8983 87.4554 23.4783 87.2454 23.0957C87.04 22.713 86.7624 22.4073 86.4124 22.1787C86.0624 21.95 85.6704 21.8357 85.2364 21.8357C84.7977 21.8357 84.4034 21.9523 84.0534 22.1857C83.7034 22.4143 83.4257 22.72 83.2204 23.1027C83.015 23.4853 82.9124 23.903 82.9124 24.3557C82.9124 24.8223 83.0174 25.247 83.2274 25.6297C83.4374 26.0077 83.7197 26.3087 84.0744 26.5327C84.429 26.752 84.8164 26.8617 85.2364 26.8617ZM92.627 28.0377C91.983 28.0377 91.395 27.872 90.863 27.5407C90.3356 27.2093 89.9133 26.766 89.596 26.2107C89.2833 25.6507 89.127 25.0323 89.127 24.3557C89.127 23.8423 89.218 23.364 89.4 22.9207C89.582 22.4727 89.8316 22.0807 90.149 21.7447C90.471 21.404 90.8443 21.138 91.269 20.9467C91.6936 20.7553 92.1463 20.6597 92.627 20.6597C93.271 20.6597 93.8566 20.8253 94.384 21.1567C94.916 21.488 95.3383 21.9337 95.651 22.4937C95.9683 23.0537 96.127 23.6743 96.127 24.3557C96.127 24.8643 96.036 25.3403 95.854 25.7837C95.672 26.227 95.42 26.619 95.098 26.9597C94.7806 27.2957 94.4096 27.5593 93.985 27.7507C93.565 27.942 93.1123 28.0377 92.627 28.0377ZM92.627 26.8617C93.0656 26.8617 93.46 26.7473 93.81 26.5187C94.1646 26.2853 94.4423 25.9797 94.643 25.6017C94.8483 25.219 94.951 24.8037 94.951 24.3557C94.951 23.8983 94.846 23.4783 94.636 23.0957C94.4306 22.713 94.153 22.4073 93.803 22.1787C93.453 21.95 93.061 21.8357 92.627 21.8357C92.1883 21.8357 91.794 21.9523 91.444 22.1857C91.094 22.4143 90.8163 22.72 90.611 23.1027C90.4056 23.4853 90.303 23.903 90.303 24.3557C90.303 24.8223 90.408 25.247 90.618 25.6297C90.828 26.0077 91.1103 26.3087 91.465 26.5327C91.8196 26.752 92.207 26.8617 92.627 26.8617ZM102.405 20.8557H103.581V28.0797C103.581 28.5417 103.48 28.971 103.28 29.3677C103.084 29.769 102.818 30.1167 102.482 30.4107C102.146 30.7093 101.763 30.9403 101.334 31.1037C100.904 31.2717 100.456 31.3557 99.9895 31.3557C99.5042 31.3557 99.0352 31.246 98.5825 31.0267C98.1299 30.812 97.7332 30.5227 97.3925 30.1587C97.0565 29.7993 96.8139 29.3957 96.6645 28.9477L97.7425 28.4577C97.8312 28.7797 97.9899 29.069 98.2185 29.3257C98.4519 29.587 98.7225 29.7923 99.0305 29.9417C99.3432 30.0957 99.6629 30.1727 99.9895 30.1727C100.298 30.1727 100.594 30.119 100.879 30.0117C101.168 29.9043 101.427 29.755 101.656 29.5637C101.889 29.377 102.071 29.1553 102.202 28.8987C102.337 28.6467 102.405 28.3737 102.405 28.0797V26.6867C102.167 27.088 101.852 27.4147 101.46 27.6667C101.072 27.914 100.62 28.0377 100.102 28.0377C99.6069 28.0377 99.1425 27.942 98.7085 27.7507C98.2745 27.5593 97.8942 27.2957 97.5675 26.9597C97.2409 26.619 96.9842 26.227 96.7975 25.7837C96.6109 25.3403 96.5175 24.8643 96.5175 24.3557C96.5175 23.847 96.6109 23.371 96.7975 22.9277C96.9842 22.4797 97.2409 22.0877 97.5675 21.7517C97.8942 21.411 98.2745 21.145 98.7085 20.9537C99.1425 20.7623 99.6069 20.6667 100.102 20.6667C100.62 20.6667 101.072 20.7903 101.46 21.0377C101.852 21.285 102.167 21.6117 102.405 22.0177V20.8557ZM100.109 26.8967C100.561 26.8967 100.953 26.78 101.285 26.5467C101.621 26.3133 101.88 26.003 102.062 25.6157C102.244 25.2283 102.335 24.8083 102.335 24.3557C102.335 23.889 102.241 23.4643 102.055 23.0817C101.873 22.6943 101.614 22.3863 101.278 22.1577C100.946 21.9243 100.557 21.8077 100.109 21.8077C99.6699 21.8077 99.2685 21.922 98.9045 22.1507C98.5405 22.3793 98.2512 22.6873 98.0365 23.0747C97.8265 23.4573 97.7215 23.8843 97.7215 24.3557C97.7215 24.827 97.8289 25.2563 98.0435 25.6437C98.2629 26.0263 98.5522 26.332 98.9115 26.5607C99.2755 26.7847 99.6745 26.8967 100.109 26.8967ZM104.957 27.8557V17.3557H106.133V27.8557H104.957ZM110.519 28.0377C109.875 28.0377 109.287 27.872 108.755 27.5407C108.228 27.2093 107.806 26.766 107.488 26.2107C107.176 25.6507 107.019 25.0323 107.019 24.3557C107.019 23.8423 107.11 23.364 107.292 22.9207C107.474 22.4727 107.724 22.0807 108.041 21.7447C108.363 21.404 108.737 21.138 109.161 20.9467C109.586 20.7553 110.039 20.6597 110.519 20.6597C111.047 20.6597 111.53 20.767 111.968 20.9817C112.412 21.1917 112.79 21.4857 113.102 21.8637C113.42 22.2417 113.655 22.6803 113.809 23.1797C113.968 23.679 114.026 24.2133 113.984 24.7827H108.272C108.328 25.1793 108.459 25.534 108.664 25.8467C108.87 26.1547 109.131 26.3997 109.448 26.5817C109.77 26.7637 110.127 26.857 110.519 26.8617C110.939 26.8617 111.32 26.7543 111.66 26.5397C112.001 26.3203 112.276 26.0217 112.486 25.6437L113.683 25.9237C113.403 26.5443 112.981 27.053 112.416 27.4497C111.852 27.8417 111.219 28.0377 110.519 28.0377ZM108.237 23.8587H112.801C112.764 23.4667 112.638 23.1097 112.423 22.7877C112.209 22.461 111.936 22.1997 111.604 22.0037C111.273 21.8077 110.911 21.7097 110.519 21.7097C110.127 21.7097 109.768 21.8053 109.441 21.9967C109.115 22.188 108.844 22.447 108.629 22.7737C108.419 23.0957 108.289 23.4573 108.237 23.8587Z" fill="#2C2C2C"/>
<defs>
<clipPath id="clip0_1_531">
<rect width="20" height="20" fill="white" transform="translate(43 12.8557)"/>
</clipPath>
</defs>
</svg>
