<svg width="33" height="33" viewBox="0 0 33 33" fill="none" xmlns="http://www.w3.org/2000/svg">
<path d="M19.6092 6.35047C20.0744 6.35039 20.5271 6.5019 20.8986 6.78208C21.27 7.06226 21.5401 7.45584 21.6679 7.90323C22.4873 10.2826 23.9725 13.6687 25.0756 15.199C25.2768 14.6533 25.4106 14.085 25.474 13.5069C25.4945 13.3143 25.6297 12.0627 25.8182 11.5035C26.0445 10.8295 26.5126 10.2498 27.2152 10.0224C28.3593 9.65367 29.6017 10.3297 29.991 11.5352C30.0268 11.6458 30.0545 11.7575 30.0729 11.8691C30.206 12.4427 30.1139 12.9681 30.0586 13.3154C29.9165 14.2088 29.7939 15.1052 29.6909 16.004C29.5336 17.6354 29.5766 19.28 29.8189 20.901C30.1262 22.3482 30.0432 23.8836 29.9623 24.4705C29.0814 30.9335 21.925 31.4149 19.9123 30.4623C18.5409 30.0168 17.0875 28.9567 15.0881 26.9102C12.7498 24.5186 10.6142 21.8863 9.42504 20.1061C9.15402 19.7476 9.00414 19.3121 8.99709 18.8627C8.99003 18.4133 9.12618 17.9733 9.38582 17.6065C9.64546 17.2396 10.0151 16.9649 10.4413 16.8221C10.8674 16.6793 11.328 16.6758 11.7562 16.8122C11.3701 16.0593 11.0597 15.4018 10.817 14.6745C10.6557 14.2073 10.663 13.6984 10.8376 13.236C11.0121 12.7736 11.343 12.3869 11.7727 12.1428C12.2025 11.8987 12.7042 11.8127 13.1907 11.8996C13.6773 11.9866 14.1181 12.241 14.4367 12.6189C14.3138 12.3454 13.5815 10.5376 13.4534 9.69567C13.0098 8.87936 12.9087 7.92028 13.1722 7.02939C13.4357 6.13851 14.0424 5.3888 14.8587 4.9452C15.675 4.5016 16.6341 4.40044 17.525 4.66398C18.4159 4.92752 19.1656 5.53417 19.6092 6.35047Z" fill="#F5BFAE"/>
<path d="M19.6092 6.35047C20.0744 6.35039 20.5271 6.5019 20.8986 6.78208C21.27 7.06226 21.5401 7.45584 21.6679 7.90323C22.4873 10.2826 23.9725 13.6687 25.0756 15.199C25.2768 14.6533 25.4106 14.085 25.474 13.5069C25.4945 13.3143 25.6297 12.0627 25.8182 11.5035C26.0445 10.8295 26.5126 10.2498 27.2152 10.0224C28.3593 9.65367 29.6017 10.3297 29.991 11.5352C30.0268 11.6458 30.0545 11.7575 30.0729 11.8691C30.206 12.4427 30.1139 12.9681 30.0586 13.3154C29.9165 14.2088 29.7939 15.1052 29.6909 16.004C29.5336 17.6354 29.5766 19.28 29.8189 20.901C30.1262 22.3482 30.0432 23.8836 29.9623 24.4705C29.0814 30.9335 21.925 31.4149 19.9123 30.4623C18.5409 30.0168 17.0875 28.9567 15.0881 26.9102C12.7498 24.5186 10.6142 21.8863 9.42504 20.1061C9.15402 19.7476 9.00414 19.3121 8.99709 18.8627C8.99003 18.4133 9.12618 17.9733 9.38582 17.6065C9.64546 17.2396 10.0151 16.9649 10.4413 16.8221C10.8674 16.6793 11.328 16.6758 11.7562 16.8122C11.3701 16.0593 11.0597 15.4018 10.817 14.6745C10.6557 14.2073 10.663 13.6984 10.8376 13.236C11.0121 12.7736 11.343 12.3869 11.7727 12.1428C12.2025 11.8987 12.7042 11.8127 13.1907 11.8996C13.6773 11.9866 14.1181 12.241 14.4367 12.6189C14.3138 12.3454 13.5815 10.5376 13.4534 9.69567C13.0098 8.87936 12.9087 7.92028 13.1722 7.02939C13.4357 6.13851 14.0424 5.3888 14.8587 4.9452C15.675 4.5016 16.6341 4.40044 17.525 4.66398C18.4159 4.92752 19.1656 5.53417 19.6092 6.35047Z" fill="url(#paint0_radial_42_7786)"/>
<path d="M19.6092 6.35047C20.0744 6.35039 20.5271 6.5019 20.8986 6.78208C21.27 7.06226 21.5401 7.45584 21.6679 7.90323C22.4873 10.2826 23.9725 13.6687 25.0756 15.199C25.2768 14.6533 25.4106 14.085 25.474 13.5069C25.4945 13.3143 25.6297 12.0627 25.8182 11.5035C26.0445 10.8295 26.5126 10.2498 27.2152 10.0224C28.3593 9.65367 29.6017 10.3297 29.991 11.5352C30.0268 11.6458 30.0545 11.7575 30.0729 11.8691C30.206 12.4427 30.1139 12.9681 30.0586 13.3154C29.9165 14.2088 29.7939 15.1052 29.6909 16.004C29.5336 17.6354 29.5766 19.28 29.8189 20.901C30.1262 22.3482 30.0432 23.8836 29.9623 24.4705C29.0814 30.9335 21.925 31.4149 19.9123 30.4623C18.5409 30.0168 17.0875 28.9567 15.0881 26.9102C12.7498 24.5186 10.6142 21.8863 9.42504 20.1061C9.15402 19.7476 9.00414 19.3121 8.99709 18.8627C8.99003 18.4133 9.12618 17.9733 9.38582 17.6065C9.64546 17.2396 10.0151 16.9649 10.4413 16.8221C10.8674 16.6793 11.328 16.6758 11.7562 16.8122C11.3701 16.0593 11.0597 15.4018 10.817 14.6745C10.6557 14.2073 10.663 13.6984 10.8376 13.236C11.0121 12.7736 11.343 12.3869 11.7727 12.1428C12.2025 11.8987 12.7042 11.8127 13.1907 11.8996C13.6773 11.9866 14.1181 12.241 14.4367 12.6189C14.3138 12.3454 13.5815 10.5376 13.4534 9.69567C13.0098 8.87936 12.9087 7.92028 13.1722 7.02939C13.4357 6.13851 14.0424 5.3888 14.8587 4.9452C15.675 4.5016 16.6341 4.40044 17.525 4.66398C18.4159 4.92752 19.1656 5.53417 19.6092 6.35047Z" fill="url(#paint1_linear_42_7786)"/>
<path d="M17.4695 8.46339C17.4992 8.71741 17.574 9.04312 17.7276 9.44257C17.7942 9.6167 17.8751 9.83896 17.9703 10.1012C18.3995 11.3579 19.2056 13.4894 20.2749 15.4375C20.6774 16.1709 21.4118 16.6871 22.2486 16.6471C23.3507 16.5959 24.6167 16.2323 25.1022 15.1476L25.0991 15.1374C25.0914 15.1579 25.0836 15.1784 25.0756 15.1989C23.9724 13.6686 22.4873 10.2825 21.6679 7.90313C21.5264 7.40932 21.2121 6.98284 20.7824 6.70152C20.3526 6.4202 19.836 6.3028 19.3268 6.37074C18.8177 6.43869 18.3499 6.68745 18.0089 7.07162C17.668 7.4558 17.4765 7.94977 17.4695 8.46339Z" fill="url(#paint2_radial_42_7786)"/>
<path d="M17.4695 8.46339C17.4992 8.71741 17.574 9.04312 17.7276 9.44257C17.7942 9.6167 17.8751 9.83896 17.9703 10.1012C18.3995 11.3579 19.2056 13.4894 20.2749 15.4375C20.6774 16.1709 21.4118 16.6871 22.2486 16.6471C23.3507 16.5959 24.6167 16.2323 25.1022 15.1476L25.0991 15.1374C25.0914 15.1579 25.0836 15.1784 25.0756 15.1989C23.9724 13.6686 22.4873 10.2825 21.6679 7.90313C21.5264 7.40932 21.2121 6.98284 20.7824 6.70152C20.3526 6.4202 19.836 6.3028 19.3268 6.37074C18.8177 6.43869 18.3499 6.68745 18.0089 7.07162C17.668 7.4558 17.4765 7.94977 17.4695 8.46339Z" fill="url(#paint3_radial_42_7786)"/>
<path d="M17.4695 8.46339C17.4992 8.71741 17.574 9.04312 17.7276 9.44257C17.7942 9.6167 17.8751 9.83896 17.9703 10.1012C18.3995 11.3579 19.2056 13.4894 20.2749 15.4375C20.6774 16.1709 21.4118 16.6871 22.2486 16.6471C23.3507 16.5959 24.6167 16.2323 25.1022 15.1476L25.0991 15.1374C25.0914 15.1579 25.0836 15.1784 25.0756 15.1989C23.9724 13.6686 22.4873 10.2825 21.6679 7.90313C21.5264 7.40932 21.2121 6.98284 20.7824 6.70152C20.3526 6.4202 19.836 6.3028 19.3268 6.37074C18.8177 6.43869 18.3499 6.68745 18.0089 7.07162C17.668 7.4558 17.4765 7.94977 17.4695 8.46339Z" fill="url(#paint4_linear_42_7786)"/>
<path d="M17.4695 8.46339C17.4992 8.71741 17.574 9.04312 17.7276 9.44257C17.7942 9.6167 17.8751 9.83896 17.9703 10.1012C18.3995 11.3579 19.2056 13.4894 20.2749 15.4375C20.6774 16.1709 21.4118 16.6871 22.2486 16.6471C23.3507 16.5959 24.6167 16.2323 25.1022 15.1476L25.0991 15.1374C25.0914 15.1579 25.0836 15.1784 25.0756 15.1989C23.9724 13.6686 22.4873 10.2825 21.6679 7.90313C21.5264 7.40932 21.2121 6.98284 20.7824 6.70152C20.3526 6.4202 19.836 6.3028 19.3268 6.37074C18.8177 6.43869 18.3499 6.68745 18.0089 7.07162C17.668 7.4558 17.4765 7.94977 17.4695 8.46339Z" fill="url(#paint5_radial_42_7786)"/>
<path d="M17.4695 8.46339C17.4992 8.71741 17.574 9.04312 17.7276 9.44257C17.7942 9.6167 17.8751 9.83896 17.9703 10.1012C18.3995 11.3579 19.2056 13.4894 20.2749 15.4375C20.6774 16.1709 21.4118 16.6871 22.2486 16.6471C23.3507 16.5959 24.6167 16.2323 25.1022 15.1476L25.0991 15.1374C25.0914 15.1579 25.0836 15.1784 25.0756 15.1989C23.9724 13.6686 22.4873 10.2825 21.6679 7.90313C21.5264 7.40932 21.2121 6.98284 20.7824 6.70152C20.3526 6.4202 19.836 6.3028 19.3268 6.37074C18.8177 6.43869 18.3499 6.68745 18.0089 7.07162C17.668 7.4558 17.4765 7.94977 17.4695 8.46339Z" fill="url(#paint6_radial_42_7786)"/>
<path d="M10.8212 14.6745C10.661 14.2099 10.6674 13.704 10.8394 13.2436C11.0113 12.7832 11.3381 12.3969 11.7637 12.1511C12.1892 11.9053 12.6871 11.8151 13.1718 11.8962C13.6566 11.9772 14.098 12.2244 14.4204 12.5953C15.4795 14.7319 16.7854 17.2239 17.7759 18.6763C16.5161 20.3888 16.2129 21.2533 15.9527 21.9897C15.1518 20.8743 13.4781 18.6046 12.88 17.8446C12.5584 17.4369 12.1671 16.9166 11.7635 16.8121C11.3878 16.1284 11.0725 15.4131 10.8212 14.6745Z" fill="url(#paint7_radial_42_7786)"/>
<path d="M10.8212 14.6745C10.661 14.2099 10.6674 13.704 10.8394 13.2436C11.0113 12.7832 11.3381 12.3969 11.7637 12.1511C12.1892 11.9053 12.6871 11.8151 13.1718 11.8962C13.6566 11.9772 14.098 12.2244 14.4204 12.5953C15.4795 14.7319 16.7854 17.2239 17.7759 18.6763C16.5161 20.3888 16.2129 21.2533 15.9527 21.9897C15.1518 20.8743 13.4781 18.6046 12.88 17.8446C12.5584 17.4369 12.1671 16.9166 11.7635 16.8121C11.3878 16.1284 11.0725 15.4131 10.8212 14.6745Z" fill="url(#paint8_radial_42_7786)"/>
<path d="M10.8212 14.6745C10.661 14.2099 10.6674 13.704 10.8394 13.2436C11.0113 12.7832 11.3381 12.3969 11.7637 12.1511C12.1892 11.9053 12.6871 11.8151 13.1718 11.8962C13.6566 11.9772 14.098 12.2244 14.4204 12.5953C15.4795 14.7319 16.7854 17.2239 17.7759 18.6763C16.5161 20.3888 16.2129 21.2533 15.9527 21.9897C15.1518 20.8743 13.4781 18.6046 12.88 17.8446C12.5584 17.4369 12.1671 16.9166 11.7635 16.8121C11.3878 16.1284 11.0725 15.4131 10.8212 14.6745Z" fill="url(#paint9_radial_42_7786)"/>
<path d="M10.8212 14.6745C10.661 14.2099 10.6674 13.704 10.8394 13.2436C11.0113 12.7832 11.3381 12.3969 11.7637 12.1511C12.1892 11.9053 12.6871 11.8151 13.1718 11.8962C13.6566 11.9772 14.098 12.2244 14.4204 12.5953C15.4795 14.7319 16.7854 17.2239 17.7759 18.6763C16.5161 20.3888 16.2129 21.2533 15.9527 21.9897C15.1518 20.8743 13.4781 18.6046 12.88 17.8446C12.5584 17.4369 12.1671 16.9166 11.7635 16.8121C11.3878 16.1284 11.0725 15.4131 10.8212 14.6745Z" fill="url(#paint10_linear_42_7786)"/>
<path d="M10.8212 14.6745C10.661 14.2099 10.6674 13.704 10.8394 13.2436C11.0113 12.7832 11.3381 12.3969 11.7637 12.1511C12.1892 11.9053 12.6871 11.8151 13.1718 11.8962C13.6566 11.9772 14.098 12.2244 14.4204 12.5953C15.4795 14.7319 16.7854 17.2239 17.7759 18.6763C16.5161 20.3888 16.2129 21.2533 15.9527 21.9897C15.1518 20.8743 13.4781 18.6046 12.88 17.8446C12.5584 17.4369 12.1671 16.9166 11.7635 16.8121C11.3878 16.1284 11.0725 15.4131 10.8212 14.6745Z" fill="url(#paint11_radial_42_7786)"/>
<g filter="url(#filter0_f_42_7786)">
<path d="M16.5694 19.9729C14.8272 17.0907 13.7056 15.0053 13.0768 13.9339C13.0006 13.8055 12.9759 13.6529 13.0076 13.507C13.0394 13.3611 13.1252 13.2325 13.2478 13.1473C13.3125 13.1035 13.3854 13.0735 13.4622 13.0591C13.539 13.0448 13.6179 13.0464 13.694 13.0639C13.7701 13.0814 13.8418 13.1144 13.9046 13.1608C13.9674 13.2072 14.02 13.2661 14.059 13.3337L15.4612 15.7684L17.1881 18.9005C16.9966 19.4126 16.7722 19.8121 16.5694 19.9729Z" fill="#FFD6C0"/>
</g>
<path d="M25.0717 15.1939L25.0758 15.199C25.2704 14.6951 25.4127 14.0621 25.4742 13.507L25.4762 13.4885C25.5029 13.2447 25.636 12.0474 25.8183 11.5035C26.0447 10.8296 26.5128 10.2498 27.2154 10.0225C28.3595 9.65372 29.6019 10.3297 29.9911 11.5353C30.027 11.6459 30.0546 11.7586 30.0731 11.8692C30.2021 12.4202 30.1212 12.9282 30.0659 13.2755L30.0598 13.3154C29.9174 14.2089 29.7945 15.1053 29.691 16.0041C29.5948 16.9259 29.5343 18.3875 29.7115 20.0673C27.3865 20.5149 25.9587 19.0451 25.4762 18.197C24.9549 17.2793 24.8474 15.536 25.0717 15.1939Z" fill="url(#paint12_radial_42_7786)"/>
<path d="M25.0717 15.1939L25.0758 15.199C25.2704 14.6951 25.4127 14.0621 25.4742 13.507L25.4762 13.4885C25.5029 13.2447 25.636 12.0474 25.8183 11.5035C26.0447 10.8296 26.5128 10.2498 27.2154 10.0225C28.3595 9.65372 29.6019 10.3297 29.9911 11.5353C30.027 11.6459 30.0546 11.7586 30.0731 11.8692C30.2021 12.4202 30.1212 12.9282 30.0659 13.2755L30.0598 13.3154C29.9174 14.2089 29.7945 15.1053 29.691 16.0041C29.5948 16.9259 29.5343 18.3875 29.7115 20.0673C27.3865 20.5149 25.9587 19.0451 25.4762 18.197C24.9549 17.2793 24.8474 15.536 25.0717 15.1939Z" fill="url(#paint13_radial_42_7786)"/>
<path d="M25.0717 15.1939L25.0758 15.199C25.2704 14.6951 25.4127 14.0621 25.4742 13.507L25.4762 13.4885C25.5029 13.2447 25.636 12.0474 25.8183 11.5035C26.0447 10.8296 26.5128 10.2498 27.2154 10.0225C28.3595 9.65372 29.6019 10.3297 29.9911 11.5353C30.027 11.6459 30.0546 11.7586 30.0731 11.8692C30.2021 12.4202 30.1212 12.9282 30.0659 13.2755L30.0598 13.3154C29.9174 14.2089 29.7945 15.1053 29.691 16.0041C29.5948 16.9259 29.5343 18.3875 29.7115 20.0673C27.3865 20.5149 25.9587 19.0451 25.4762 18.197C24.9549 17.2793 24.8474 15.536 25.0717 15.1939Z" fill="url(#paint14_radial_42_7786)"/>
<g filter="url(#filter1_f_42_7786)">
<path d="M29.4088 12.5786C29.7885 12.3617 29.8446 11.7455 29.5343 11.2022C29.2239 10.659 28.6645 10.3945 28.2849 10.6114C27.9052 10.8283 27.849 11.4445 28.1594 11.9878C28.4697 12.531 29.0291 12.7955 29.4088 12.5786Z" fill="url(#paint15_radial_42_7786)"/>
</g>
<g filter="url(#filter2_f_42_7786)">
<path d="M28.8477 19.9565C27.8832 19.7387 27.0141 19.2169 26.3687 18.4678C25.7233 17.7187 25.3356 16.7821 25.2628 15.796C24.7825 16.009 24.2386 17.7011 24.6073 18.837C25.3263 21.0596 27.6637 21.7284 28.3038 21.7489L28.8477 19.9565Z" fill="#FCC8B3"/>
</g>
<g filter="url(#filter3_f_42_7786)">
<path d="M25.4478 17.3467C25.9661 18.1241 27.8046 19.008 28.9354 19.2518C29.4045 20.5014 30.1839 26.23 26.7271 28.5028C27.5311 27.0955 28.0955 21.8974 25.4478 17.3467Z" fill="url(#paint16_radial_42_7786)"/>
</g>
<path d="M14.3333 12.3742C15.0964 14.014 16.0459 16.0553 17.234 17.8181C17.446 18.1335 17.828 18.2933 18.1804 18.1509C19.0004 17.8081 19.7213 17.2651 20.277 16.5716C20.5208 16.2674 20.5126 15.8443 20.3231 15.5043C19.4607 13.9628 18.2306 11.2373 17.4562 8.46155C17.2372 8.00334 16.8608 7.63912 16.3957 7.43533C15.9305 7.23153 15.4076 7.20174 14.9223 7.35138C14.437 7.50102 14.0216 7.82012 13.752 8.25049C13.4824 8.68085 13.3764 9.1938 13.4535 9.69577C13.56 10.4004 14.0916 11.7822 14.3333 12.3742Z" fill="url(#paint17_radial_42_7786)"/>
<path d="M14.3333 12.3742C15.0964 14.014 16.0459 16.0553 17.234 17.8181C17.446 18.1335 17.828 18.2933 18.1804 18.1509C19.0004 17.8081 19.7213 17.2651 20.277 16.5716C20.5208 16.2674 20.5126 15.8443 20.3231 15.5043C19.4607 13.9628 18.2306 11.2373 17.4562 8.46155C17.2372 8.00334 16.8608 7.63912 16.3957 7.43533C15.9305 7.23153 15.4076 7.20174 14.9223 7.35138C14.437 7.50102 14.0216 7.82012 13.752 8.25049C13.4824 8.68085 13.3764 9.1938 13.4535 9.69577C13.56 10.4004 14.0916 11.7822 14.3333 12.3742Z" fill="url(#paint18_radial_42_7786)"/>
<path d="M14.3333 12.3742C15.0964 14.014 16.0459 16.0553 17.234 17.8181C17.446 18.1335 17.828 18.2933 18.1804 18.1509C19.0004 17.8081 19.7213 17.2651 20.277 16.5716C20.5208 16.2674 20.5126 15.8443 20.3231 15.5043C19.4607 13.9628 18.2306 11.2373 17.4562 8.46155C17.2372 8.00334 16.8608 7.63912 16.3957 7.43533C15.9305 7.23153 15.4076 7.20174 14.9223 7.35138C14.437 7.50102 14.0216 7.82012 13.752 8.25049C13.4824 8.68085 13.3764 9.1938 13.4535 9.69577C13.56 10.4004 14.0916 11.7822 14.3333 12.3742Z" fill="url(#paint19_linear_42_7786)"/>
<path d="M14.3333 12.3742C15.0964 14.014 16.0459 16.0553 17.234 17.8181C17.446 18.1335 17.828 18.2933 18.1804 18.1509C19.0004 17.8081 19.7213 17.2651 20.277 16.5716C20.5208 16.2674 20.5126 15.8443 20.3231 15.5043C19.4607 13.9628 18.2306 11.2373 17.4562 8.46155C17.2372 8.00334 16.8608 7.63912 16.3957 7.43533C15.9305 7.23153 15.4076 7.20174 14.9223 7.35138C14.437 7.50102 14.0216 7.82012 13.752 8.25049C13.4824 8.68085 13.3764 9.1938 13.4535 9.69577C13.56 10.4004 14.0916 11.7822 14.3333 12.3742Z" fill="url(#paint20_radial_42_7786)"/>
<path d="M11.7562 16.8122C11.328 16.6758 10.8674 16.6793 10.4413 16.8221C10.0151 16.9649 9.64546 17.2396 9.38582 17.6065C9.12618 17.9734 8.99003 18.4133 8.99709 18.8627C9.00414 19.3121 9.15402 19.7476 9.42504 20.1061C10.4534 21.6456 12.1905 23.8232 14.153 25.9311C16.5886 24.79 16.3715 22.4691 15.9557 21.9764C15.9485 21.999 13.8826 19.1188 12.8788 17.8446L12.8286 17.7811C12.5183 17.3847 12.1465 16.9105 11.7634 16.8122C11.6149 16.5407 11.6139 16.5336 11.7562 16.8122Z" fill="url(#paint21_radial_42_7786)"/>
<path d="M11.7562 16.8122C11.328 16.6758 10.8674 16.6793 10.4413 16.8221C10.0151 16.9649 9.64546 17.2396 9.38582 17.6065C9.12618 17.9734 8.99003 18.4133 8.99709 18.8627C9.00414 19.3121 9.15402 19.7476 9.42504 20.1061C10.4534 21.6456 12.1905 23.8232 14.153 25.9311C16.5886 24.79 16.3715 22.4691 15.9557 21.9764C15.9485 21.999 13.8826 19.1188 12.8788 17.8446L12.8286 17.7811C12.5183 17.3847 12.1465 16.9105 11.7634 16.8122C11.6149 16.5407 11.6139 16.5336 11.7562 16.8122Z" fill="url(#paint22_radial_42_7786)"/>
<g filter="url(#filter4_f_42_7786)">
<path d="M14.8677 23.1297C14.8384 23.2602 14.8612 23.397 14.9314 23.5109C15.0016 23.6248 15.1136 23.7067 15.2434 23.739C15.3732 23.7714 15.5105 23.7517 15.6259 23.6842C15.7414 23.6166 15.8259 23.5066 15.8612 23.3776L14.8677 23.1297ZM23.4653 16.5305C23.5341 16.5283 23.6018 16.5123 23.6643 16.4834C23.7267 16.4546 23.7828 16.4134 23.829 16.3623C23.8752 16.3113 23.9106 16.2515 23.9332 16.1864C23.9557 16.1214 23.965 16.0524 23.9603 15.9837C23.9556 15.9151 23.9371 15.848 23.9059 15.7866C23.8747 15.7253 23.8315 15.6708 23.7788 15.6265C23.7261 15.5822 23.665 15.549 23.5991 15.5289C23.5333 15.5087 23.4641 15.5021 23.3956 15.5093L23.4653 16.5305ZM15.8612 23.3776C16.1593 22.1843 16.9777 20.5332 18.2785 19.1474C19.5731 17.7647 21.3164 16.679 23.4653 16.5305L23.3956 15.5093C20.9221 15.6793 18.9524 16.9299 17.5308 18.4458C16.1142 19.9566 15.2098 21.7623 14.8677 23.1297L15.8612 23.3776Z" fill="#F0BBA4"/>
</g>
<g filter="url(#filter5_f_42_7786)">
<path d="M20.2932 7.56921C20.8361 9.90655 22.8692 13.7956 24.0532 15.6198" stroke="#FFE4C9" stroke-width="1.02425" stroke-linecap="round"/>
</g>
<g filter="url(#filter6_f_42_7786)">
<path d="M21.6528 10.691C22.0052 11.5124 22.8512 13.6705 24.0537 15.4117" stroke="url(#paint23_linear_42_7786)" stroke-width="0.716975" stroke-linecap="round"/>
</g>
<g filter="url(#filter7_i_42_7786)">
<path d="M21.3169 2.69293C23.1175 2.82096 26.0704 4.32968 25.9742 8.18598" stroke="#1B99E7" stroke-width="0.921825" stroke-linecap="round"/>
<path d="M21.3169 2.69293C23.1175 2.82096 26.0704 4.32968 25.9742 8.18598" stroke="url(#paint24_radial_42_7786)" stroke-width="0.921825" stroke-linecap="round"/>
</g>
<g filter="url(#filter8_i_42_7786)">
<path d="M19.092 4.30933C20.8845 4.36976 24.2297 5.9215 24.1098 10.0666" stroke="#1B99E7" stroke-width="0.921825" stroke-linecap="round"/>
<path d="M19.092 4.30933C20.8845 4.36976 24.2297 5.9215 24.1098 10.0666" stroke="url(#paint25_radial_42_7786)" stroke-width="0.921825" stroke-linecap="round"/>
</g>
<path d="M4.48525 16.5878C4.2804 19.1177 5.70513 21.9344 9.27464 22.5253" stroke="url(#paint26_linear_42_7786)" stroke-width="0.921825" stroke-linecap="round"/>
<path d="M4.48525 16.5878C4.2804 19.1177 5.70513 21.9344 9.27464 22.5253" stroke="url(#paint27_radial_42_7786)" stroke-width="0.921825" stroke-linecap="round"/>
<path d="M2.52893 18.5011C2.28823 21.0289 3.96083 23.606 7.09708 24.03" stroke="url(#paint28_linear_42_7786)" stroke-width="0.921825" stroke-linecap="round"/>
<path d="M2.52893 18.5011C2.28823 21.0289 3.96083 23.606 7.09708 24.03" stroke="url(#paint29_radial_42_7786)" stroke-width="0.921825" stroke-linecap="round"/>
<g filter="url(#filter9_f_42_7786)">
<path d="M15.0965 23.4483C13.8211 22.0372 12.6198 20.561 11.4972 19.0256C11.3907 18.8758 11.3461 18.6906 11.3728 18.5087C11.3995 18.3268 11.4955 18.1623 11.6406 18.0495C11.7933 17.9278 11.988 17.8716 12.1821 17.8931C12.3761 17.9146 12.5538 18.0121 12.6762 18.1642L15.2409 21.3527C15.2532 22.2745 15.1497 23.1349 15.0965 23.4483Z" fill="#FFD6C0"/>
</g>
<g filter="url(#filter10_f_42_7786)">
<path d="M16.3882 8.6897C16.719 9.84198 18.1909 14.1848 19.7487 16.6758" stroke="#FDCBB6" stroke-width="1.02425" stroke-linecap="round"/>
</g>
<defs>
<filter id="filter0_f_42_7786" x="12.226" y="12.2813" width="5.73022" height="8.45984" filterUnits="userSpaceOnUse" color-interpolation-filters="sRGB">
<feFlood flood-opacity="0" result="BackgroundImageFix"/>
<feBlend mode="normal" in="SourceGraphic" in2="BackgroundImageFix" result="shape"/>
<feGaussianBlur stdDeviation="0.384094" result="effect1_foregroundBlur_42_7786"/>
</filter>
<filter id="filter1_f_42_7786" x="27.4469" y="10.0235" width="2.80013" height="3.14309" filterUnits="userSpaceOnUse" color-interpolation-filters="sRGB">
<feFlood flood-opacity="0" result="BackgroundImageFix"/>
<feBlend mode="normal" in="SourceGraphic" in2="BackgroundImageFix" result="shape"/>
<feGaussianBlur stdDeviation="0.256062" result="effect1_foregroundBlur_42_7786"/>
</filter>
<filter id="filter2_f_42_7786" x="23.4616" y="14.7717" width="6.41032" height="8.00144" filterUnits="userSpaceOnUse" color-interpolation-filters="sRGB">
<feFlood flood-opacity="0" result="BackgroundImageFix"/>
<feBlend mode="normal" in="SourceGraphic" in2="BackgroundImageFix" result="shape"/>
<feGaussianBlur stdDeviation="0.512125" result="effect1_foregroundBlur_42_7786"/>
</filter>
<filter id="filter3_f_42_7786" x="23.9114" y="15.8103" width="6.98144" height="14.2289" filterUnits="userSpaceOnUse" color-interpolation-filters="sRGB">
<feFlood flood-opacity="0" result="BackgroundImageFix"/>
<feBlend mode="normal" in="SourceGraphic" in2="BackgroundImageFix" result="shape"/>
<feGaussianBlur stdDeviation="0.768187" result="effect1_foregroundBlur_42_7786"/>
</filter>
<filter id="filter4_f_42_7786" x="13.3188" y="13.9701" width="12.179" height="11.3206" filterUnits="userSpaceOnUse" color-interpolation-filters="sRGB">
<feFlood flood-opacity="0" result="BackgroundImageFix"/>
<feBlend mode="normal" in="SourceGraphic" in2="BackgroundImageFix" result="shape"/>
<feGaussianBlur stdDeviation="0.768187" result="effect1_foregroundBlur_42_7786"/>
</filter>
<filter id="filter5_f_42_7786" x="18.5519" y="5.82785" width="7.24262" height="11.5333" filterUnits="userSpaceOnUse" color-interpolation-filters="sRGB">
<feFlood flood-opacity="0" result="BackgroundImageFix"/>
<feBlend mode="normal" in="SourceGraphic" in2="BackgroundImageFix" result="shape"/>
<feGaussianBlur stdDeviation="0.61455" result="effect1_foregroundBlur_42_7786"/>
</filter>
<filter id="filter6_f_42_7786" x="20.5772" y="9.61542" width="4.55187" height="6.87182" filterUnits="userSpaceOnUse" color-interpolation-filters="sRGB">
<feFlood flood-opacity="0" result="BackgroundImageFix"/>
<feBlend mode="normal" in="SourceGraphic" in2="BackgroundImageFix" result="shape"/>
<feGaussianBlur stdDeviation="0.358487" result="effect1_foregroundBlur_42_7786"/>
</filter>
<filter id="filter7_i_42_7786" x="20.856" y="2.12957" width="5.68372" height="6.51734" filterUnits="userSpaceOnUse" color-interpolation-filters="sRGB">
<feFlood flood-opacity="0" result="BackgroundImageFix"/>
<feBlend mode="normal" in="SourceGraphic" in2="BackgroundImageFix" result="shape"/>
<feColorMatrix in="SourceAlpha" type="matrix" values="0 0 0 0 0 0 0 0 0 0 0 0 0 0 0 0 0 0 127 0" result="hardAlpha"/>
<feOffset dx="0.102425" dy="-0.102425"/>
<feGaussianBlur stdDeviation="0.256062"/>
<feComposite in2="hardAlpha" operator="arithmetic" k2="-1" k3="1"/>
<feColorMatrix type="matrix" values="0 0 0 0 0.0823529 0 0 0 0 0.337255 0 0 0 0 0.627451 0 0 0 1 0"/>
<feBlend mode="normal" in2="shape" result="effect1_innerShadow_42_7786"/>
</filter>
<filter id="filter8_i_42_7786" x="18.6311" y="3.74596" width="6.0453" height="6.78156" filterUnits="userSpaceOnUse" color-interpolation-filters="sRGB">
<feFlood flood-opacity="0" result="BackgroundImageFix"/>
<feBlend mode="normal" in="SourceGraphic" in2="BackgroundImageFix" result="shape"/>
<feColorMatrix in="SourceAlpha" type="matrix" values="0 0 0 0 0 0 0 0 0 0 0 0 0 0 0 0 0 0 127 0" result="hardAlpha"/>
<feOffset dx="0.102425" dy="-0.102425"/>
<feGaussianBlur stdDeviation="0.256062"/>
<feComposite in2="hardAlpha" operator="arithmetic" k2="-1" k3="1"/>
<feColorMatrix type="matrix" values="0 0 0 0 0.0823529 0 0 0 0 0.337255 0 0 0 0 0.627451 0 0 0 1 0"/>
<feBlend mode="normal" in2="shape" result="effect1_innerShadow_42_7786"/>
</filter>
<filter id="filter9_f_42_7786" x="10.597" y="17.1204" width="5.41308" height="7.09607" filterUnits="userSpaceOnUse" color-interpolation-filters="sRGB">
<feFlood flood-opacity="0" result="BackgroundImageFix"/>
<feBlend mode="normal" in="SourceGraphic" in2="BackgroundImageFix" result="shape"/>
<feGaussianBlur stdDeviation="0.384094" result="effect1_foregroundBlur_42_7786"/>
</filter>
<filter id="filter10_f_42_7786" x="14.8517" y="7.15318" width="6.43351" height="11.0591" filterUnits="userSpaceOnUse" color-interpolation-filters="sRGB">
<feFlood flood-opacity="0" result="BackgroundImageFix"/>
<feBlend mode="normal" in="SourceGraphic" in2="BackgroundImageFix" result="shape"/>
<feGaussianBlur stdDeviation="0.512125" result="effect1_foregroundBlur_42_7786"/>
</filter>
<radialGradient id="paint0_radial_42_7786" cx="0" cy="0" r="1" gradientUnits="userSpaceOnUse" gradientTransform="translate(24.2234 14.8466) rotate(99.3161) scale(17.1982 19.1994)">
<stop offset="0.815" stop-color="#BA7D94" stop-opacity="0"/>
<stop offset="1" stop-color="#BA7D94"/>
</radialGradient>
<linearGradient id="paint1_linear_42_7786" x1="15.1117" y1="23.1758" x2="11.408" y2="26.1082" gradientUnits="userSpaceOnUse">
<stop stop-color="#BA7D94" stop-opacity="0"/>
<stop offset="1" stop-color="#BA7D94"/>
</linearGradient>
<radialGradient id="paint2_radial_42_7786" cx="0" cy="0" r="1" gradientUnits="userSpaceOnUse" gradientTransform="translate(23.7858 11.5) rotate(156.037) scale(4.20154 8.82746)">
<stop offset="0.719" stop-color="#E1A696" stop-opacity="0"/>
<stop offset="1" stop-color="#E1A696"/>
</radialGradient>
<radialGradient id="paint3_radial_42_7786" cx="0" cy="0" r="1" gradientUnits="userSpaceOnUse" gradientTransform="translate(23.785 11.4999) rotate(154.952) scale(5.2755 13.2736)">
<stop offset="0.769" stop-color="#DF9E84" stop-opacity="0"/>
<stop offset="1" stop-color="#DF9E84"/>
</radialGradient>
<linearGradient id="paint4_linear_42_7786" x1="21.0451" y1="17.0712" x2="20.6283" y2="14.9151" gradientUnits="userSpaceOnUse">
<stop stop-color="#F5BFAE"/>
<stop offset="1" stop-color="#F5BFAE" stop-opacity="0"/>
</linearGradient>
<radialGradient id="paint5_radial_42_7786" cx="0" cy="0" r="1" gradientUnits="userSpaceOnUse" gradientTransform="translate(25.101 15.2196) rotate(-127.591) scale(3.81723 0.81645)">
<stop stop-color="#C8947A"/>
<stop offset="1" stop-color="#C8947A" stop-opacity="0"/>
</radialGradient>
<radialGradient id="paint6_radial_42_7786" cx="0" cy="0" r="1" gradientUnits="userSpaceOnUse" gradientTransform="translate(20.0783 6.011) rotate(84.463) scale(2.34761 2.93559)">
<stop stop-color="#E3B79C"/>
<stop offset="1" stop-color="#E3B79C" stop-opacity="0"/>
</radialGradient>
<radialGradient id="paint7_radial_42_7786" cx="0" cy="0" r="1" gradientUnits="userSpaceOnUse" gradientTransform="translate(16.3561 15.9872) rotate(146.452) scale(3.59091 9.61068)">
<stop offset="0.425" stop-color="#E2A693" stop-opacity="0"/>
<stop offset="1" stop-color="#E2A693"/>
</radialGradient>
<radialGradient id="paint8_radial_42_7786" cx="0" cy="0" r="1" gradientUnits="userSpaceOnUse" gradientTransform="translate(16.3563 15.9886) rotate(147.829) scale(4.68889 12.5493)">
<stop offset="0.625" stop-color="#E09E7E" stop-opacity="0"/>
<stop offset="1" stop-color="#E09E7E"/>
</radialGradient>
<radialGradient id="paint9_radial_42_7786" cx="0" cy="0" r="1" gradientUnits="userSpaceOnUse" gradientTransform="translate(12.9722 17.9179) rotate(-32.681) scale(4.03096 25.5143)">
<stop offset="0.692" stop-color="#D59271" stop-opacity="0"/>
<stop offset="1" stop-color="#D59271"/>
</radialGradient>
<linearGradient id="paint10_linear_42_7786" x1="17.2207" y1="19.8285" x2="15.4601" y2="18.9006" gradientUnits="userSpaceOnUse">
<stop stop-color="#F5BFAE"/>
<stop offset="1" stop-color="#F5BFAE" stop-opacity="0"/>
</linearGradient>
<radialGradient id="paint11_radial_42_7786" cx="0" cy="0" r="1" gradientUnits="userSpaceOnUse" gradientTransform="translate(13.049 11.4901) rotate(83.1268) scale(2.35847 2.78543)">
<stop stop-color="#DAAA90"/>
<stop offset="1" stop-color="#DAAA90" stop-opacity="0"/>
</radialGradient>
<radialGradient id="paint12_radial_42_7786" cx="0" cy="0" r="1" gradientUnits="userSpaceOnUse" gradientTransform="translate(26.1503 18.3573) rotate(-77.656) scale(5.38989 2.32656)">
<stop stop-color="#EBB5A5"/>
<stop offset="1" stop-color="#EBB5A5" stop-opacity="0"/>
</radialGradient>
<radialGradient id="paint13_radial_42_7786" cx="0" cy="0" r="1" gradientUnits="userSpaceOnUse" gradientTransform="translate(25.431 11.9303) rotate(5.452) scale(0.99978 3.61979)">
<stop stop-color="#D3987E"/>
<stop offset="1" stop-color="#D3987E" stop-opacity="0"/>
</radialGradient>
<radialGradient id="paint14_radial_42_7786" cx="0" cy="0" r="1" gradientUnits="userSpaceOnUse" gradientTransform="translate(26.4257 9.39356) rotate(58.316) scale(2.14398 7.76256)">
<stop stop-color="#D3987E"/>
<stop offset="1" stop-color="#D3987E" stop-opacity="0"/>
</radialGradient>
<radialGradient id="paint15_radial_42_7786" cx="0" cy="0" r="1" gradientUnits="userSpaceOnUse" gradientTransform="translate(29.3997 11.2827) rotate(137.305) scale(1.78614 2.48047)">
<stop stop-color="#FFE2C7"/>
<stop offset="1" stop-color="#FFE2C7" stop-opacity="0"/>
</radialGradient>
<radialGradient id="paint16_radial_42_7786" cx="0" cy="0" r="1" gradientUnits="userSpaceOnUse" gradientTransform="translate(30.217 19.5085) rotate(113.948) scale(12.5381 6.26746)">
<stop stop-color="#FFE2C8"/>
<stop offset="1" stop-color="#FFE2C8" stop-opacity="0"/>
</radialGradient>
<radialGradient id="paint17_radial_42_7786" cx="0" cy="0" r="1" gradientUnits="userSpaceOnUse" gradientTransform="translate(19.3992 12.791) rotate(149.999) scale(4.42837 10.4819)">
<stop offset="0.655" stop-color="#E2A085" stop-opacity="0"/>
<stop offset="1" stop-color="#E2A085"/>
</radialGradient>
<radialGradient id="paint18_radial_42_7786" cx="0" cy="0" r="1" gradientUnits="userSpaceOnUse" gradientTransform="translate(19.2876 12.7917) rotate(155.961) scale(1.71733 10.8681)">
<stop stop-color="#E1A086"/>
<stop offset="1" stop-color="#E1A086" stop-opacity="0"/>
</radialGradient>
<linearGradient id="paint19_linear_42_7786" x1="18.0841" y1="18.405" x2="17.2043" y2="15.6999" gradientUnits="userSpaceOnUse">
<stop stop-color="#F5BFAE"/>
<stop offset="1" stop-color="#F5BFAE" stop-opacity="0"/>
</linearGradient>
<radialGradient id="paint20_radial_42_7786" cx="0" cy="0" r="1" gradientUnits="userSpaceOnUse" gradientTransform="translate(15.8205 6.84221) rotate(83.5812) scale(2.57678 2.84555)">
<stop stop-color="#DDAD92"/>
<stop offset="1" stop-color="#DDAD92" stop-opacity="0"/>
</radialGradient>
<radialGradient id="paint21_radial_42_7786" cx="0" cy="0" r="1" gradientUnits="userSpaceOnUse" gradientTransform="translate(14.66 18.9969) rotate(140.042) scale(1.54502 5.23847)">
<stop stop-color="#F2B69C"/>
<stop offset="1" stop-color="#F2B69C" stop-opacity="0"/>
</radialGradient>
<radialGradient id="paint22_radial_42_7786" cx="0" cy="0" r="1" gradientUnits="userSpaceOnUse" gradientTransform="translate(11.3896 16.257) rotate(82.3931) scale(2.17653 2.83887)">
<stop stop-color="#DCA990"/>
<stop offset="1" stop-color="#DCA990" stop-opacity="0"/>
</radialGradient>
<linearGradient id="paint23_linear_42_7786" x1="24.0701" y1="15.1557" x2="21.5412" y2="10.6428" gradientUnits="userSpaceOnUse">
<stop stop-color="#FDCCB8"/>
<stop offset="1" stop-color="#FDCCB8" stop-opacity="0"/>
</linearGradient>
<radialGradient id="paint24_radial_42_7786" cx="0" cy="0" r="1" gradientUnits="userSpaceOnUse" gradientTransform="translate(23.3982 5.6018) rotate(-44.7093) scale(2.22937 5.704)">
<stop stop-color="#16579C"/>
<stop offset="0.744" stop-color="#16579C" stop-opacity="0"/>
</radialGradient>
<radialGradient id="paint25_radial_42_7786" cx="0" cy="0" r="1" gradientUnits="userSpaceOnUse" gradientTransform="translate(21.3351 7.35749) rotate(-43.9171) scale(2.36986 6.05944)">
<stop stop-color="#16579C"/>
<stop offset="0.862" stop-color="#16579C" stop-opacity="0"/>
</radialGradient>
<linearGradient id="paint26_linear_42_7786" x1="5.60168" y1="16.5878" x2="8.86597" y2="23.3816" gradientUnits="userSpaceOnUse">
<stop stop-color="#1679C5"/>
<stop offset="1" stop-color="#0D5194"/>
</linearGradient>
<radialGradient id="paint27_radial_42_7786" cx="0" cy="0" r="1" gradientUnits="userSpaceOnUse" gradientTransform="translate(6.32161 19.2695) rotate(164.814) scale(2.32162 6.24135)">
<stop offset="0.706" stop-color="#0E5196" stop-opacity="0"/>
<stop offset="1" stop-color="#0E5196"/>
</radialGradient>
<linearGradient id="paint28_linear_42_7786" x1="3.59005" y1="18.5011" x2="7.42279" y2="26.818" gradientUnits="userSpaceOnUse">
<stop offset="0.298" stop-color="#1679C5"/>
<stop offset="1" stop-color="#0D5194"/>
</linearGradient>
<radialGradient id="paint29_radial_42_7786" cx="0" cy="0" r="1" gradientUnits="userSpaceOnUse" gradientTransform="translate(4.27835 20.9972) rotate(165.175) scale(2.21339 5.82217)">
<stop offset="0.706" stop-color="#0E5196" stop-opacity="0"/>
<stop offset="1" stop-color="#0E5196"/>
</radialGradient>
</defs>
</svg>
