<svg width="21" height="22" viewBox="0 0 21 22" fill="none" xmlns="http://www.w3.org/2000/svg">
<path d="M1.69803 14.4643L2.17453 14.3128L1.69803 14.4643ZM0.639372 8.45481L1.12101 8.58905L0.639372 8.45481ZM5.06008 3.8893L4.762 3.48787L5.06008 3.8893ZM0.747368 8.11512L1.2181 8.28368L0.747368 8.11512ZM4.58054 20.172L4.29749 20.5841L4.58054 20.172ZM4.2978 19.962L3.98512 20.3522L4.2978 19.962ZM19.302 14.4643L18.8255 14.3128L19.302 14.4643ZM16.7022 19.962L17.0149 20.3522L16.7022 19.962ZM16.4195 20.172L16.7025 20.5841L16.4195 20.172ZM15.9399 3.8893L16.238 3.48787L15.9399 3.8893ZM20.2526 8.11512L19.7819 8.28368L20.2526 8.11512ZM20.3606 8.45481L19.879 8.58905L20.3606 8.45481ZM10.6747 1.00327L10.656 1.50292L10.6747 1.00327ZM10.3253 1.00327L10.344 1.50292L10.3253 1.00327ZM8.59338 15.9129C8.31723 15.9129 8.09338 16.1367 8.09338 16.4129C8.09338 16.689 8.31723 16.9129 8.59338 16.9129V15.9129ZM12.4066 16.9129C12.6828 16.9129 12.9066 16.689 12.9066 16.4129C12.9066 16.1367 12.6828 15.9129 12.4066 15.9129V16.9129ZM2.17453 14.3128C1.68576 12.7755 1.33161 11.6594 1.14514 10.7492C0.960956 9.8503 0.951141 9.19856 1.12101 8.58905L0.157728 8.32057C-0.0703534 9.13893 -0.0363773 9.96471 0.165489 10.95C0.365063 11.924 0.739216 13.0987 1.22153 14.6158L2.17453 14.3128ZM4.762 3.48787C3.49958 4.42525 2.52038 5.15148 1.7979 5.82038C1.06649 6.49753 0.56308 7.14664 0.276639 7.94656L1.2181 8.28368C1.43091 7.68938 1.81271 7.16944 2.47726 6.55417C3.15074 5.93065 4.07828 5.24108 5.35816 4.29074L4.762 3.48787ZM1.12101 8.58905C1.14972 8.48607 1.1821 8.38421 1.2181 8.28368L0.276639 7.94656C0.232536 8.06972 0.192874 8.19447 0.157728 8.32057L1.12101 8.58905ZM10.5 20.5C8.91767 20.5 7.7715 20.4993 6.86894 20.3995C5.97865 20.3011 5.37405 20.1103 4.86359 19.7598L4.29749 20.5841C4.99279 21.0616 5.77669 21.2849 6.75907 21.3935C7.72919 21.5007 8.93987 21.5 10.5 21.5V20.5ZM1.22153 14.6158C1.70382 16.1328 2.07676 17.308 2.47559 18.2161C2.87888 19.1343 3.32711 19.8249 3.98512 20.3522L4.61047 19.5718C4.12533 19.1831 3.75921 18.6519 3.39117 17.814C3.01867 16.9658 2.66331 15.8502 2.17453 14.3128L1.22153 14.6158ZM4.86359 19.7598C4.77702 19.7003 4.69259 19.6377 4.61047 19.5718L3.98512 20.3522C4.08642 20.4334 4.19061 20.5107 4.29749 20.5841L4.86359 19.7598ZM18.8255 14.3128C18.3367 15.8502 17.9813 16.9658 17.6088 17.814C17.2408 18.6519 16.8747 19.1831 16.3895 19.5718L17.0149 20.3522C17.6729 19.8249 18.1211 19.1343 18.5244 18.2161C18.9232 17.308 19.2962 16.1328 19.7785 14.6158L18.8255 14.3128ZM10.5 21.5C12.0601 21.5 13.2708 21.5007 14.2409 21.3935C15.2233 21.2849 16.0072 21.0616 16.7025 20.5841L16.1364 19.7598C15.626 20.1103 15.0213 20.3011 14.1311 20.3995C13.2285 20.4993 12.0823 20.5 10.5 20.5V21.5ZM16.3895 19.5718C16.3074 19.6377 16.223 19.7003 16.1364 19.7598L16.7025 20.5841C16.8094 20.5107 16.9136 20.4334 17.0149 20.3522L16.3895 19.5718ZM15.6418 4.29074C16.9217 5.24108 17.8493 5.93065 18.5227 6.55418C19.1873 7.16944 19.5691 7.68938 19.7819 8.28368L20.7234 7.94656C20.4369 7.14664 19.9335 6.49753 19.2021 5.82038C18.4796 5.15148 17.5004 4.42525 16.238 3.48787L15.6418 4.29074ZM19.7785 14.6158C20.2608 13.0987 20.6349 11.924 20.8345 10.95C21.0364 9.96471 21.0704 9.13893 20.8423 8.32057L19.879 8.58905C20.0489 9.19856 20.039 9.8503 19.8549 10.7492C19.6684 11.6594 19.3142 12.7755 18.8255 14.3128L19.7785 14.6158ZM19.7819 8.28368C19.8179 8.38421 19.8503 8.48606 19.879 8.58905L20.8423 8.32057C20.8071 8.19448 20.7675 8.06972 20.7234 7.94656L19.7819 8.28368ZM16.238 3.48787C14.9757 2.55056 13.9971 1.8231 13.1511 1.3274C12.2951 0.825807 11.5324 0.535078 10.6935 0.503626L10.656 1.50292C11.2688 1.5259 11.8676 1.73432 12.6456 2.1902C13.4337 2.65197 14.3619 3.34031 15.6418 4.29074L16.238 3.48787ZM5.35816 4.29074C6.63814 3.34031 7.56633 2.65197 8.35441 2.1902C9.13245 1.73432 9.73118 1.5259 10.344 1.50292L10.3065 0.503626C9.46762 0.535078 8.70491 0.825807 7.84887 1.3274C7.00287 1.8231 6.02433 2.55056 4.762 3.48787L5.35816 4.29074ZM10.6935 0.503626C10.5645 0.498791 10.4355 0.498791 10.3065 0.503626L10.344 1.50292C10.448 1.49903 10.552 1.49903 10.656 1.50292L10.6935 0.503626ZM8.59338 16.9129H12.4066V15.9129H8.59338V16.9129Z" fill="#4A4A4A"/>
</svg>
