<svg width="78" height="77" viewBox="0 0 78 77" fill="none" xmlns="http://www.w3.org/2000/svg">
<rect x="0.688293" y="0.232269" width="76.6234" height="76.6234" rx="38.3117" fill="#1F4E3C" fill-opacity="0.05"/>
<rect x="8.85236" y="8.39682" width="60.9008" height="60.9008" rx="30.4504" fill="#1F4E3C"/>
<path fill-rule="evenodd" clip-rule="evenodd" d="M33.2433 27.228C33.2433 25.6492 33.8705 24.1351 34.9869 23.0187C36.1032 21.9023 37.6174 21.2751 39.1962 21.2751C40.775 21.2751 42.2891 21.9023 43.4055 23.0187C44.5219 24.1351 45.149 25.6492 45.149 27.228C45.149 28.8068 44.5219 30.3209 43.4055 31.4373C42.2891 32.5537 40.775 33.1809 39.1962 33.1809C37.6174 33.1809 36.1032 32.5537 34.9869 31.4373C33.8705 30.3209 33.2433 28.8068 33.2433 27.228ZM27.4859 36.9789C28.6977 35.8285 30.3048 35.1872 31.9756 35.1872C33.6464 35.1872 35.2535 35.8285 36.4653 36.9789L36.491 37.0046L39.1962 39.7097L41.9039 37.0046L41.9296 36.9789C43.1411 35.83 44.7471 35.1896 46.4167 35.1896C48.0864 35.1896 49.6924 35.83 50.9039 36.9789C51.5057 37.5496 51.985 38.2368 52.3129 38.9986C52.6407 39.7604 52.8101 40.581 52.8109 41.4103C52.8116 42.2397 52.6436 43.0606 52.3171 43.823C51.9906 44.5854 51.5124 45.2734 50.9116 45.8451L40.091 56.3623C39.851 56.5956 39.5296 56.7261 39.1949 56.7261C38.8602 56.7261 38.5387 56.5956 38.2987 56.3623L27.4807 45.8451C26.8802 45.2736 26.4022 44.5859 26.0757 43.8238C25.7492 43.0617 25.5811 42.2412 25.5815 41.4122C25.582 40.5831 25.7511 39.7628 26.0785 39.0011C26.4058 38.2395 26.8847 37.5497 27.4859 36.9789Z" fill="white"/>
</svg>
