<svg width="148" height="139" viewBox="0 0 148 139" fill="none" xmlns="http://www.w3.org/2000/svg">
<path fill-rule="evenodd" clip-rule="evenodd" d="M57.4643 17.3C57.4643 12.9145 59.2065 8.70856 62.3075 5.60751C65.4086 2.50646 69.6145 0.764313 74 0.764313C78.3856 0.764313 82.5915 2.50646 85.6926 5.60751C88.7936 8.70856 90.5358 12.9145 90.5358 17.3C90.5358 21.6856 88.7936 25.8915 85.6926 28.9925C82.5915 32.0936 78.3856 33.8357 74 33.8357C69.6145 33.8357 65.4086 32.0936 62.3075 28.9925C59.2065 25.8915 57.4643 21.6856 57.4643 17.3ZM41.4715 44.3857C44.8375 41.1903 49.3017 39.4088 53.9429 39.4088C58.5841 39.4088 63.0483 41.1903 66.4143 44.3857L66.4858 44.4572L74 51.9715L81.5215 44.4572L81.5929 44.3857C84.9582 41.1945 89.4194 39.4156 94.0572 39.4156C98.695 39.4156 103.156 41.1945 106.521 44.3857C108.193 45.9711 109.525 47.8799 110.435 49.9961C111.346 52.1123 111.817 54.3916 111.819 56.6954C111.821 58.9992 111.354 61.2794 110.447 63.3971C109.54 65.5149 108.212 67.4261 106.543 69.0143L76.4858 98.2286C75.8191 98.8766 74.9261 99.2391 73.9965 99.2391C73.0668 99.2391 72.1738 98.8766 71.5072 98.2286L41.4572 69.0143C39.789 67.4266 38.4611 65.5163 37.5542 63.3995C36.6473 61.2826 36.1803 59.0035 36.1816 56.7005C36.183 54.3976 36.6526 52.119 37.562 50.0032C38.4713 47.8874 39.8015 45.9715 41.4715 44.3857Z" fill="white"/>
<path d="M1.86192 138V117.636H6.16732V126.038H14.9074V117.636H19.2028V138H14.9074V129.588H6.16732V138H1.86192ZM29.3532 138.298C27.7822 138.298 26.4299 137.98 25.2964 137.344C24.1695 136.701 23.3011 135.793 22.6913 134.619C22.0814 133.439 21.7765 132.044 21.7765 130.433C21.7765 128.862 22.0814 127.483 22.6913 126.297C23.3011 125.11 24.1596 124.186 25.2666 123.523C26.3802 122.86 27.6861 122.528 29.1842 122.528C30.1918 122.528 31.1297 122.691 31.9981 123.016C32.8731 123.334 33.6354 123.814 34.285 124.457C34.9413 125.1 35.4517 125.909 35.8163 126.884C36.1809 127.851 36.3632 128.985 36.3632 130.284V131.447H23.4669V128.822H32.376C32.376 128.213 32.2434 127.672 31.9782 127.202C31.7131 126.731 31.3452 126.363 30.8745 126.098C30.4105 125.826 29.8703 125.69 29.2538 125.69C28.6108 125.69 28.0407 125.839 27.5436 126.138C27.053 126.429 26.6686 126.824 26.3902 127.321C26.1117 127.812 25.9692 128.358 25.9626 128.962V131.457C25.9626 132.213 26.1018 132.866 26.3802 133.416C26.6653 133.966 27.0663 134.391 27.5833 134.689C28.1004 134.987 28.7135 135.136 29.4228 135.136C29.8935 135.136 30.3243 135.07 30.7154 134.938C31.1065 134.805 31.4413 134.606 31.7197 134.341C31.9981 134.076 32.2102 133.751 32.3561 133.366L36.2737 133.625C36.0748 134.566 35.6671 135.388 35.0507 136.091C34.4408 136.787 33.652 137.33 32.6842 137.722C31.723 138.106 30.6127 138.298 29.3532 138.298ZM43.2025 138.288C42.2281 138.288 41.3597 138.119 40.5974 137.781C39.8351 137.437 39.2318 136.929 38.7877 136.26C38.3502 135.584 38.1315 134.742 38.1315 133.734C38.1315 132.886 38.2872 132.173 38.5988 131.597C38.9103 131.02 39.3346 130.556 39.8715 130.205C40.4085 129.853 41.0183 129.588 41.7011 129.409C42.3905 129.23 43.113 129.104 43.8687 129.031C44.7569 128.938 45.4728 128.852 46.0164 128.773C46.56 128.687 46.9544 128.561 47.1996 128.395C47.4449 128.229 47.5675 127.984 47.5675 127.659V127.599C47.5675 126.97 47.3687 126.482 46.971 126.138C46.5799 125.793 46.023 125.621 45.3005 125.621C44.5382 125.621 43.9317 125.79 43.4809 126.128C43.0301 126.459 42.7318 126.877 42.586 127.381L38.6684 127.062C38.8673 126.134 39.2584 125.332 39.8417 124.656C40.425 123.973 41.1774 123.45 42.0988 123.085C43.0268 122.714 44.1007 122.528 45.3204 122.528C46.1689 122.528 46.9809 122.628 47.7565 122.827C48.5387 123.026 49.2314 123.334 49.8346 123.751C50.4444 124.169 50.925 124.706 51.2764 125.362C51.6277 126.012 51.8033 126.791 51.8033 127.699V138H47.7863V135.882H47.667C47.4217 136.359 47.0936 136.78 46.6826 137.145C46.2716 137.503 45.7778 137.785 45.2011 137.99C44.6244 138.189 43.9582 138.288 43.2025 138.288ZM44.4156 135.365C45.0387 135.365 45.5889 135.242 46.0661 134.997C46.5434 134.745 46.9179 134.407 47.1897 133.983C47.4615 133.559 47.5974 133.078 47.5974 132.541V130.92C47.4648 131.007 47.2825 131.086 47.0505 131.159C46.8251 131.225 46.5699 131.288 46.2849 131.348C45.9998 131.401 45.7148 131.451 45.4298 131.497C45.1447 131.537 44.8862 131.573 44.6542 131.607C44.157 131.679 43.7228 131.795 43.3516 131.955C42.9804 132.114 42.6921 132.329 42.4866 132.601C42.2811 132.866 42.1783 133.197 42.1783 133.595C42.1783 134.172 42.3871 134.613 42.8048 134.918C43.229 135.216 43.7659 135.365 44.4156 135.365ZM59.0454 117.636V138H54.8096V117.636H59.0454ZM70.282 122.727V125.909H61.0846V122.727H70.282ZM63.1727 119.068H67.4085V133.307C67.4085 133.698 67.4681 134.003 67.5874 134.222C67.7068 134.434 67.8725 134.583 68.0846 134.669C68.3034 134.755 68.5552 134.798 68.8403 134.798C69.0392 134.798 69.238 134.782 69.4369 134.749C69.6357 134.709 69.7882 134.679 69.8943 134.659L70.5605 137.811C70.3483 137.877 70.05 137.954 69.6656 138.04C69.2811 138.133 68.8138 138.189 68.2636 138.209C67.2427 138.249 66.3479 138.113 65.5789 137.801C64.8166 137.49 64.2233 137.006 63.7991 136.349C63.3749 135.693 63.166 134.865 63.1727 133.864V119.068ZM77.3252 129.17V138H73.0894V117.636H77.2059V125.422H77.3849C77.7296 124.52 78.2864 123.814 79.0553 123.304C79.8243 122.787 80.7887 122.528 81.9488 122.528C83.0094 122.528 83.9341 122.76 84.7229 123.224C85.5184 123.682 86.1349 124.341 86.5724 125.203C87.0165 126.058 87.2352 127.082 87.2286 128.276V138H82.9928V129.031C82.9994 128.09 82.7608 127.357 82.2769 126.834C81.7996 126.31 81.1301 126.048 80.2684 126.048C79.6917 126.048 79.1813 126.171 78.7371 126.416C78.2996 126.661 77.9549 127.019 77.703 127.49C77.4578 127.954 77.3318 128.514 77.3252 129.17ZM97.1826 138.298C95.6182 138.298 94.2726 137.967 93.1457 137.304C92.0254 136.634 91.1637 135.706 90.5605 134.52C89.9639 133.333 89.6656 131.968 89.6656 130.423C89.6656 128.859 89.9672 127.487 90.5704 126.307C91.1803 125.12 92.0453 124.196 93.1656 123.533C94.2858 122.863 95.6182 122.528 97.1627 122.528C98.4951 122.528 99.6618 122.77 100.663 123.254C101.664 123.738 102.456 124.418 103.039 125.293C103.622 126.168 103.944 127.195 104.004 128.375H100.006C99.8938 127.613 99.5955 127 99.1116 126.536C98.6343 126.065 98.0079 125.83 97.2323 125.83C96.5761 125.83 96.0027 126.009 95.5122 126.366C95.0283 126.718 94.6504 127.232 94.3787 127.908C94.1069 128.584 93.971 129.402 93.971 130.364C93.971 131.338 94.1036 132.167 94.3687 132.849C94.6405 133.532 95.0216 134.053 95.5122 134.411C96.0027 134.768 96.5761 134.947 97.2323 134.947C97.7162 134.947 98.1504 134.848 98.5349 134.649C98.926 134.45 99.2475 134.162 99.4994 133.784C99.7579 133.4 99.9269 132.939 100.006 132.402H104.004C103.937 133.569 103.619 134.596 103.049 135.484C102.486 136.366 101.707 137.055 100.712 137.553C99.7181 138.05 98.5415 138.298 97.1826 138.298ZM110.791 138.288C109.816 138.288 108.948 138.119 108.186 137.781C107.423 137.437 106.82 136.929 106.376 136.26C105.938 135.584 105.72 134.742 105.72 133.734C105.72 132.886 105.876 132.173 106.187 131.597C106.499 131.02 106.923 130.556 107.46 130.205C107.997 129.853 108.607 129.588 109.289 129.409C109.979 129.23 110.701 129.104 111.457 129.031C112.345 128.938 113.061 128.852 113.605 128.773C114.148 128.687 114.543 128.561 114.788 128.395C115.033 128.229 115.156 127.984 115.156 127.659V127.599C115.156 126.97 114.957 126.482 114.559 126.138C114.168 125.793 113.611 125.621 112.889 125.621C112.126 125.621 111.52 125.79 111.069 126.128C110.618 126.459 110.32 126.877 110.174 127.381L106.257 127.062C106.456 126.134 106.847 125.332 107.43 124.656C108.013 123.973 108.766 123.45 109.687 123.085C110.615 122.714 111.689 122.528 112.909 122.528C113.757 122.528 114.569 122.628 115.345 122.827C116.127 123.026 116.82 123.334 117.423 123.751C118.033 124.169 118.513 124.706 118.865 125.362C119.216 126.012 119.392 126.791 119.392 127.699V138H115.375V135.882H115.255C115.01 136.359 114.682 136.78 114.271 137.145C113.86 137.503 113.366 137.785 112.789 137.99C112.213 138.189 111.546 138.288 110.791 138.288ZM112.004 135.365C112.627 135.365 113.177 135.242 113.654 134.997C114.132 134.745 114.506 134.407 114.778 133.983C115.05 133.559 115.186 133.078 115.186 132.541V130.92C115.053 131.007 114.871 131.086 114.639 131.159C114.413 131.225 114.158 131.288 113.873 131.348C113.588 131.401 113.303 131.451 113.018 131.497C112.733 131.537 112.474 131.573 112.242 131.607C111.745 131.679 111.311 131.795 110.94 131.955C110.569 132.114 110.28 132.329 110.075 132.601C109.869 132.866 109.767 133.197 109.767 133.595C109.767 134.172 109.975 134.613 110.393 134.918C110.817 135.216 111.354 135.365 112.004 135.365ZM122.398 138V122.727H126.504V125.392H126.663C126.942 124.444 127.409 123.728 128.065 123.244C128.722 122.754 129.477 122.509 130.333 122.509C130.545 122.509 130.773 122.522 131.019 122.548C131.264 122.575 131.479 122.611 131.665 122.658V126.416C131.466 126.357 131.191 126.304 130.84 126.257C130.488 126.211 130.167 126.188 129.875 126.188C129.252 126.188 128.695 126.323 128.205 126.595C127.721 126.86 127.336 127.232 127.051 127.709C126.773 128.186 126.634 128.736 126.634 129.359V138H122.398ZM139.824 138.298C138.253 138.298 136.901 137.98 135.767 137.344C134.64 136.701 133.772 135.793 133.162 134.619C132.552 133.439 132.247 132.044 132.247 130.433C132.247 128.862 132.552 127.483 133.162 126.297C133.772 125.11 134.63 124.186 135.738 123.523C136.851 122.86 138.157 122.528 139.655 122.528C140.663 122.528 141.601 122.691 142.469 123.016C143.344 123.334 144.106 123.814 144.756 124.457C145.412 125.1 145.923 125.909 146.287 126.884C146.652 127.851 146.834 128.985 146.834 130.284V131.447H133.938V128.822H142.847C142.847 128.213 142.714 127.672 142.449 127.202C142.184 126.731 141.816 126.363 141.345 126.098C140.881 125.826 140.341 125.69 139.725 125.69C139.082 125.69 138.512 125.839 138.014 126.138C137.524 126.429 137.139 126.824 136.861 127.321C136.583 127.812 136.44 128.358 136.434 128.962V131.457C136.434 132.213 136.573 132.866 136.851 133.416C137.136 133.966 137.537 134.391 138.054 134.689C138.571 134.987 139.184 135.136 139.894 135.136C140.364 135.136 140.795 135.07 141.186 134.938C141.577 134.805 141.912 134.606 142.191 134.341C142.469 134.076 142.681 133.751 142.827 133.366L146.745 133.625C146.546 134.566 146.138 135.388 145.522 136.091C144.912 136.787 144.123 137.33 143.155 137.722C142.194 138.106 141.084 138.298 139.824 138.298Z" fill="white"/>
</svg>
