<svg width="16" height="16" viewBox="0 0 16 16" fill="none" xmlns="http://www.w3.org/2000/svg">
<g clip-path="url(#clip0_762_2474)">
<path d="M10.2873 11.086C10.2423 10.5259 10.2297 9.964 10.2495 9.40267L10.2487 9.42733C10.796 8.90729 11.1373 8.2341 11.2182 7.51533L11.2196 7.50133C11.4662 7.48267 11.8553 7.26267 11.9687 6.39067C12.003 6.24049 11.9901 6.08449 11.9315 5.94076C11.8729 5.79704 11.7711 5.67149 11.6378 5.57867L11.6356 5.57733C12.0371 4.47067 12.8705 1.04667 10.0931 0.693333C9.80727 0.233333 9.07564 0 8.12436 0C4.31855 0.064 3.85964 2.634 4.69164 5.57733C4.5573 5.671 4.45483 5.7978 4.39623 5.9429C4.33763 6.088 4.32531 6.24539 4.36073 6.39667L4.36 6.39133C4.47636 7.262 4.86255 7.48333 5.10909 7.502C5.19557 8.22877 5.54776 8.90734 6.10836 9.42733C6.1268 9.99851 6.11272 10.5702 6.06618 11.14L6.06982 11.086C5.31491 12.942 0.232727 12.4207 0 16H16.3331C16.0989 12.4207 11.04 12.942 10.2865 11.086H10.2873Z" fill="#1F4E3C"/>
</g>
<defs>
<clipPath id="clip0_762_2474">
<rect width="16" height="16" fill="white"/>
</clipPath>
</defs>
</svg>
